<svg width="32" height="32" viewBox="0 0 32 32" fill="none" xmlns="http://www.w3.org/2000/svg">
<circle cx="16.0003" cy="15.9993" r="12.3333" fill="#005A9C" stroke="#005A9C" stroke-width="2"/>
<path d="M23.334 17.132C23.334 17.2425 23.2444 17.332 23.134 17.332H17.334V23.132C17.334 23.2425 17.2444 23.332 17.134 23.332H15.534C15.4235 23.332 15.334 23.2425 15.334 23.132V17.332H9.53398C9.42353 17.332 9.33398 17.2425 9.33398 17.132V15.532C9.33398 15.4216 9.42353 15.332 9.53398 15.332H15.334V9.53203C15.334 9.42157 15.4235 9.33203 15.534 9.33203H17.134C17.2444 9.33203 17.334 9.42157 17.334 9.53203V15.332H23.134C23.2444 15.332 23.334 15.4216 23.334 15.532V17.132Z" fill="white"/>
</svg>
