<svg width="31" height="41" viewBox="0 0 31 41" fill="none" xmlns="http://www.w3.org/2000/svg">
<g clip-path="url(#clip0_2582_181)">
<path d="M7.89647 15.3602C7.89735 17.9407 9.16471 20.3558 11.2843 21.8164V23.8351C11.2826 24.2288 11.1477 24.611 10.9018 24.9171C10.6559 25.224 10.314 25.4381 9.93059 25.5248L6.68199 26.2423L4.8779 26.6404C3.55414 26.9358 2.37051 27.6736 1.51826 28.7317C1.46538 28.798 1.41427 28.8644 1.36403 28.9334C0.612254 29.9613 0.206841 31.2016 0.205078 32.4755V40.2259C0.205078 40.4312 0.286161 40.6284 0.430699 40.7735C0.575238 40.9186 0.771775 41 0.976244 41H30.4339C30.6384 41 30.8349 40.9186 30.9795 40.7735C31.124 40.6284 31.2051 40.4312 31.2051 40.2259V32.4755C31.2033 31.2016 30.7979 29.9613 30.0461 28.9343C29.9959 28.8661 29.9448 28.7989 29.8919 28.7326C29.0952 27.7409 28.005 27.0287 26.7781 26.7014C26.6962 26.6793 26.6142 26.6598 26.5323 26.6412L21.6673 25.5664L21.4805 25.5248C21.098 25.4381 20.7551 25.224 20.5092 24.9162C20.2633 24.6092 20.1285 24.227 20.1267 23.8334V21.8146C22.2463 20.354 23.5137 17.9398 23.5137 15.3584V7.84685C23.5163 5.76615 22.694 3.77038 21.2302 2.29921C19.7654 0.827148 17.778 0 15.7051 0C13.6322 0 11.6448 0.827148 10.1809 2.29832C8.71611 3.77038 7.89471 5.76615 7.89647 7.84596V15.3593V15.3602ZM9.4388 8.8925C11.1653 8.73946 15.4389 8.12551 17.9243 5.73961C18.691 6.79323 20.1576 8.42983 21.9714 8.63153V15.0249L16.0303 12.2489C15.8241 12.1524 15.5861 12.1524 15.3799 12.2489L9.4388 15.0249V8.89162V8.8925ZM9.57541 16.6677L15.7051 13.8041L21.8339 16.6677C21.4329 18.5617 20.1858 20.1638 18.4513 21.0131C16.7177 21.8624 14.6915 21.8624 12.9571 21.0131C11.2235 20.1647 9.97553 18.5617 9.57453 16.6677H9.57541ZM15.7051 30.7212L11.3213 26.5917C12.2547 25.9866 12.8214 24.9498 12.8266 23.8342V22.6435C14.6757 23.3822 16.7354 23.3822 18.5844 22.6435V23.8351C18.5897 24.9507 19.1555 25.9875 20.0888 26.5917L15.7051 30.7212ZM25.6412 33.9936L25.0261 37.1615C24.9723 37.4375 24.7317 37.6374 24.4505 37.6374C24.1923 37.6374 23.9649 37.4685 23.89 37.2208L23.511 35.9716C23.4529 35.7788 23.2748 35.6461 23.0739 35.6461C22.873 35.6461 22.6949 35.7788 22.6368 35.9716L22.2578 37.2208C22.1829 37.4685 21.9555 37.6374 21.6973 37.6374C21.417 37.6374 21.1764 37.4384 21.1226 37.1615L20.5075 33.9936C20.437 33.6318 20.474 33.2558 20.6159 32.9152C20.7578 32.5737 20.9957 32.2827 21.3015 32.0774C21.6796 31.8279 22.1635 31.8076 22.5618 32.0235C22.8835 32.1907 23.2669 32.1907 23.5877 32.0235C23.9861 31.8076 24.4691 31.8279 24.8471 32.0774C25.153 32.2827 25.3918 32.5737 25.5328 32.9152C25.6738 33.2567 25.7117 33.6317 25.6412 33.9945V33.9936Z" fill="white"/>
</g>
<defs>
<clipPath id="clip0_2582_181">
<rect width="31" height="41" fill="white"/>
</clipPath>
</defs>
</svg>
