<svg width="46" height="30" viewBox="0 0 46 30" fill="none" xmlns="http://www.w3.org/2000/svg">
<path d="M27.142 13.6265C28.402 13.6265 28.5958 11.6832 28.8381 9.38C28.9351 8.48032 29.3712 7.58065 30.0497 6.82492C30.5828 6.24913 31.0189 5.56538 31.2128 4.80965C31.9397 1.89471 29.0804 -1.12819 23.7012 0.419245C23.265 0.527206 22.8289 0.527206 22.3927 0.419245C17.0135 -1.09221 14.1543 1.89471 14.8812 4.80965C15.075 5.56538 15.5112 6.24913 16.0443 6.82492C16.7227 7.58065 17.1589 8.44434 17.2558 9.38C17.4981 11.7192 17.6435 13.6265 18.952 13.6265C20.4543 13.6265 20.9389 11.6832 21.1812 10.9634C21.5689 9.81184 22.102 8.94815 22.5381 8.40835C22.6835 8.22841 22.8774 8.15644 23.1197 8.15644C23.362 8.15644 23.5558 8.22841 23.7012 8.40835C24.0889 8.94815 24.6704 9.81184 25.0581 10.9634C25.155 11.6832 25.6388 13.6265 27.142 13.6265Z" fill="white"/>
<path d="M41.389 9.27222C41.0982 9.99196 40.4197 11.1435 39.6928 12.3311C40.1289 13.1588 40.0805 14.2384 39.2566 15.426C39.0628 15.7139 38.8205 16.0018 38.5297 16.2897C37.8028 17.0454 36.7851 17.8371 35.7189 18.7368L35.4766 18.9167C35.1859 19.1326 34.7497 19.2046 34.4105 19.0247C33.9743 18.8088 33.9259 18.4129 34.2651 18.125C34.362 18.053 34.4589 17.9811 34.5074 17.9091C35.9128 16.7575 37.2697 15.6779 37.8513 14.8502C38.9174 13.3028 38.1905 12.2951 37.1728 11.8273C36.3489 11.4674 35.1859 11.4674 34.5559 12.1512C33.6351 13.1588 32.3751 14.2384 31.1635 15.2461C29.7582 16.4336 28.3528 17.6932 27.5774 18.6648C26.7051 19.7804 25.542 22.4075 25.3481 25.1425C25.2512 26.51 25.2028 28.0214 25.1543 28.9571C25.1543 29.4249 25.6389 29.8208 26.2689 29.8208H33.5866C34.2166 29.8208 34.7012 29.4609 34.7012 28.9931V27.4456C34.7012 27.0858 34.9436 26.7259 35.3312 26.51C37.9482 25.1785 40.3713 23.559 41.7766 22.3715C44.7813 19.7804 45.8474 12.1152 45.9928 9.84802C46.1867 7.65217 42.3097 7.14835 41.389 9.27158V9.27222Z" fill="white"/>
<path d="M18.467 18.7356C17.6431 17.728 16.2862 16.5044 14.8808 15.3169C13.6693 14.2732 12.4093 13.2296 11.4885 12.222C10.8585 11.5022 9.6954 11.5022 8.87155 11.8981C7.85386 12.3299 7.12693 13.3736 8.19309 14.921C8.77463 15.7487 10.0831 16.8283 11.5369 17.9799C11.6339 18.0519 11.7308 18.1238 11.7793 18.1958C12.1185 18.4477 12.0216 18.8796 11.6339 19.0955C11.2946 19.2394 10.8585 19.2035 10.5677 18.9875C10.4708 18.9156 10.4223 18.8796 10.3254 18.8076C9.21078 17.9079 8.24155 17.1162 7.51463 16.3605C7.22386 16.0726 6.98155 15.7487 6.7877 15.4968C5.96385 14.3092 5.91539 13.2296 6.35155 12.4019C5.62462 11.1784 4.94616 10.0628 4.65539 9.34302C3.78394 7.21979 -0.141449 7.7596 0.00393579 10.0268C0.149321 12.294 1.26394 19.9592 4.2201 22.5502C5.57703 23.7378 8.04857 25.3212 10.6655 26.6887C11.0532 26.9047 11.2955 27.2285 11.2955 27.6244V29.1718C11.2955 29.6397 11.8286 29.9995 12.4101 29.9995H19.7278C20.3578 29.9995 20.8909 29.6037 20.8909 29.1358C20.8424 28.2002 20.794 26.6528 20.6971 25.3212C20.5032 22.4789 19.3886 19.8519 18.4678 18.7363L18.467 18.7356Z" fill="white"/>
</svg>
