<svg width="201" height="42" viewBox="0 0 201 42" fill="none" xmlns="http://www.w3.org/2000/svg">
<path d="M16.3491 7.46777V10.9144H3.95604V34.0044H0V7.46777H16.3491Z" fill="#3D3D3D"/>
<path d="M18.4583 41.4678V14.1019H22.1967V17.3283H22.5168C22.7387 16.9137 23.0587 16.4342 23.477 15.89C23.8952 15.3458 24.4756 14.8707 25.2181 14.4647C25.9607 14.0501 26.9422 13.8428 28.1628 13.8428C29.7503 13.8428 31.1671 14.2488 32.4132 15.0608C33.6594 15.8728 34.6367 17.0432 35.3451 18.5722C36.062 20.1012 36.4205 21.9411 36.4205 24.092C36.4205 26.2429 36.0663 28.0872 35.3579 29.6248C34.6495 31.1537 33.6764 32.3329 32.4389 33.1621C31.2013 33.9828 29.7887 34.3931 28.2012 34.3931C27.0062 34.3931 26.029 34.1901 25.2693 33.7841C24.5182 33.3781 23.9293 32.903 23.5026 32.3588C23.0758 31.8146 22.7472 31.3308 22.5168 30.9076H22.2863V41.4678H18.4583ZM22.2095 24.0531C22.2095 25.4525 22.4101 26.6792 22.8112 27.733C23.2124 28.7869 23.7928 29.6118 24.5524 30.2079C25.312 30.7953 26.2423 31.089 27.3434 31.089C28.4871 31.089 29.443 30.7823 30.2112 30.169C30.9793 29.547 31.5597 28.7048 31.9524 27.6423C32.3535 26.5798 32.5541 25.3834 32.5541 24.0531C32.5541 22.7401 32.3578 21.561 31.9652 20.5158C31.5811 19.4706 31.0007 18.6456 30.224 18.0409C29.4558 17.4363 28.4956 17.1339 27.3434 17.1339C26.2338 17.1339 25.2949 17.4233 24.5268 18.0021C23.7672 18.5808 23.191 19.3885 22.7984 20.4251C22.4058 21.4617 22.2095 22.671 22.2095 24.0531Z" fill="#3D3D3D"/>
<path d="M46.4322 34.4449C45.1861 34.4449 44.0594 34.2117 43.0523 33.7452C42.0452 33.2701 41.2471 32.5834 40.6582 31.685C40.0778 30.7866 39.7876 29.6853 39.7876 28.3809C39.7876 27.2579 40.001 26.3336 40.4277 25.608C40.8545 24.8824 41.4306 24.308 42.1561 23.8847C42.8816 23.4614 43.6924 23.1418 44.5886 22.9259C45.4848 22.7099 46.3981 22.5458 47.3284 22.4335C48.5063 22.2953 49.4622 22.183 50.1962 22.0966C50.9302 22.0016 51.4637 21.8504 51.7965 21.6431C52.1294 21.4358 52.2959 21.0989 52.2959 20.6324V20.5417C52.2959 19.4101 51.9801 18.5333 51.3485 17.9114C50.7254 17.2894 49.7951 16.9784 48.5575 16.9784C47.2687 16.9784 46.253 17.2678 45.5104 17.8466C44.7764 18.4167 44.2686 19.0516 43.9869 19.7513L40.3893 18.922C40.8161 17.7127 41.4392 16.7366 42.2585 15.9937C43.0864 15.2422 44.0381 14.698 45.1135 14.3611C46.189 14.0155 47.3199 13.8428 48.5062 13.8428C49.2915 13.8428 50.1237 13.9378 51.0028 14.1278C51.8904 14.3092 52.7183 14.6461 53.4865 15.1385C54.2632 15.6309 54.8991 16.3349 55.3941 17.2505C55.8891 18.1576 56.1367 19.3367 56.1367 20.7879V34.0044H52.3983V31.2833H52.2446C51.9971 31.7843 51.6258 32.2767 51.1308 32.7605C50.6358 33.2442 49.9999 33.6459 49.2232 33.9655C48.4465 34.2851 47.5162 34.4449 46.4322 34.4449ZM47.2644 31.3351C48.3227 31.3351 49.2275 31.1235 49.9786 30.7002C50.7382 30.277 51.3143 29.7241 51.7069 29.0417C52.1081 28.3506 52.3087 27.6121 52.3087 26.826V24.2605C52.1721 24.3987 51.9075 24.5282 51.5149 24.6492C51.1308 24.7615 50.6912 24.8608 50.1962 24.9472C49.7012 25.0249 49.2189 25.0984 48.7495 25.1675C48.2801 25.2279 47.8875 25.2798 47.5717 25.323C46.8291 25.418 46.1506 25.5778 45.536 25.8024C44.93 26.027 44.4435 26.3509 44.0765 26.7742C43.718 27.1888 43.5388 27.7417 43.5388 28.4327C43.5388 29.3916 43.8887 30.1172 44.5886 30.6095C45.2885 31.0933 46.1804 31.3351 47.2644 31.3351Z" fill="#3D3D3D"/>
<path d="M74.563 22.3816V25.7376H63.9111V22.3816H74.563ZM64.9865 14.1019V34.0044H61.2353V14.1019H64.9865ZM77.2387 14.1019V34.0044H73.5003V14.1019H77.2387Z" fill="#3D3D3D"/>
<path d="M93.9463 21.1118V24.4678H82.3214V21.1118H93.9463Z" fill="#3D3D3D"/>
<path d="M99.0481 34.0044V14.1019H115.09V34.0044H111.339V17.4449H102.774V34.0044H99.0481Z" fill="#3D3D3D"/>
<path d="M120.208 41.4678V14.1019H123.946V17.3283H124.266C124.488 16.9137 124.808 16.4342 125.226 15.89C125.645 15.3458 126.225 14.8707 126.968 14.4647C127.71 14.0501 128.692 13.8428 129.912 13.8428C131.5 13.8428 132.917 14.2488 134.163 15.0608C135.409 15.8728 136.386 17.0432 137.095 18.5722C137.812 20.1012 138.17 21.9411 138.17 24.092C138.17 26.2429 137.816 28.0872 137.107 29.6248C136.399 31.1537 135.426 32.3329 134.188 33.1621C132.951 33.9828 131.538 34.3931 129.951 34.3931C128.756 34.3931 127.778 34.1901 127.019 33.7841C126.268 33.3781 125.679 32.903 125.252 32.3588C124.825 31.8146 124.497 31.3308 124.266 30.9076H124.036V41.4678H120.208ZM123.959 24.0531C123.959 25.4525 124.16 26.6792 124.561 27.733C124.962 28.7869 125.542 29.6118 126.302 30.2079C127.062 30.7953 127.992 31.089 129.093 31.089C130.237 31.089 131.193 30.7823 131.961 30.169C132.729 29.547 133.309 28.7048 133.702 27.6423C134.103 26.5798 134.304 25.3834 134.304 24.0531C134.304 22.7401 134.107 21.561 133.715 20.5158C133.331 19.4706 132.75 18.6456 131.973 18.0409C131.205 17.4363 130.245 17.1339 129.093 17.1339C127.983 17.1339 127.044 17.4233 126.276 18.0021C125.517 18.5808 124.941 19.3885 124.548 20.4251C124.155 21.4617 123.959 22.671 123.959 24.0531Z" fill="#3D3D3D"/>
<path d="M146.21 28.5752L154.878 14.1019H159V34.0044H155.249V19.5181L146.62 34.0044H142.459V14.1019H146.21V28.5752Z" fill="#3D3D3D"/>
<path d="M103.732 0V7.80488H102.712V1.0061H99.5199V7.80488H98.5V0H103.732Z" fill="#3D3D3D"/>
<path d="M105.217 10V1.95122H106.184V2.90015H106.267C106.324 2.7782 106.407 2.6372 106.515 2.47713C106.624 2.31707 106.774 2.17734 106.966 2.05793C107.158 1.93598 107.412 1.875 107.727 1.875C108.138 1.875 108.504 1.99441 108.827 2.23323C109.149 2.47205 109.402 2.81631 109.585 3.26601C109.77 3.7157 109.863 4.25686 109.863 4.88948C109.863 5.5221 109.772 6.06453 109.588 6.51677C109.405 6.96646 109.153 7.31326 108.833 7.55716C108.513 7.79853 108.148 7.91921 107.737 7.91921C107.428 7.91921 107.175 7.8595 106.979 7.74009C106.785 7.62068 106.632 7.48094 106.522 7.32088C106.412 7.16082 106.327 7.01855 106.267 6.89405H106.207V10H105.217ZM106.187 4.87805C106.187 5.28963 106.239 5.65041 106.343 5.96037C106.447 6.27033 106.597 6.51296 106.793 6.68826C106.99 6.86103 107.231 6.94741 107.515 6.94741C107.811 6.94741 108.058 6.85721 108.257 6.67683C108.456 6.4939 108.606 6.24619 108.707 5.93369C108.811 5.62119 108.863 5.26931 108.863 4.87805C108.863 4.49187 108.812 4.14507 108.711 3.83765C108.611 3.53023 108.461 3.2876 108.26 3.10976C108.062 2.93191 107.813 2.84299 107.515 2.84299C107.228 2.84299 106.986 2.9281 106.787 3.09832C106.59 3.26855 106.441 3.5061 106.34 3.81098C106.238 4.11585 106.187 4.47154 106.187 4.87805Z" fill="#3D3D3D"/>
<path d="M113.115 7.92302C112.638 7.92302 112.222 7.79726 111.867 7.54573C111.511 7.29421 111.235 6.94233 111.039 6.49009C110.842 6.03786 110.744 5.5094 110.744 4.90473C110.744 4.29751 110.842 3.76651 111.039 3.31174C111.235 2.85696 111.511 2.50381 111.867 2.25229C112.222 2.00076 112.638 1.875 113.115 1.875C113.592 1.875 114.008 2.00076 114.363 2.25229C114.719 2.50381 114.995 2.85696 115.191 3.31174C115.388 3.76651 115.486 4.29751 115.486 4.90473C115.486 5.5094 115.388 6.03786 115.191 6.49009C114.995 6.94233 114.719 7.29421 114.363 7.54573C114.008 7.79726 113.592 7.92302 113.115 7.92302ZM113.118 6.96646C113.427 6.96646 113.683 6.87246 113.887 6.68445C114.09 6.49644 114.24 6.24619 114.337 5.93369C114.436 5.62119 114.486 5.27693 114.486 4.90091C114.486 4.52744 114.436 4.18445 114.337 3.87195C114.24 3.55691 114.09 3.30412 113.887 3.11357C113.683 2.92302 113.427 2.82774 113.118 2.82774C112.807 2.82774 112.549 2.92302 112.343 3.11357C112.14 3.30412 111.989 3.55691 111.89 3.87195C111.793 4.18445 111.744 4.52744 111.744 4.90091C111.744 5.27693 111.793 5.62119 111.89 5.93369C111.989 6.24619 112.14 6.49644 112.343 6.68445C112.549 6.87246 112.807 6.96646 113.118 6.96646Z" fill="#3D3D3D"/>
<path d="M116.157 9.69131V6.8064H116.604C116.757 6.65904 116.899 6.44944 117.032 6.17759C117.164 5.90574 117.277 5.53862 117.369 5.07622C117.462 4.61382 117.526 4.02058 117.561 3.29649L117.72 0H121.903V6.8064H122.671V9.67988H121.691V7.80488H117.138V9.69131H116.157ZM117.81 6.8064H120.923V1.01372H118.648L118.542 3.29649C118.513 3.84781 118.465 4.34324 118.399 4.78277C118.335 5.22231 118.252 5.61103 118.151 5.94893C118.052 6.2843 117.938 6.57012 117.81 6.8064Z" fill="#3D3D3D"/>
<path d="M125.855 7.92302C125.378 7.92302 124.962 7.79726 124.607 7.54573C124.251 7.29421 123.975 6.94233 123.779 6.49009C123.582 6.03786 123.484 5.5094 123.484 4.90473C123.484 4.29751 123.582 3.76651 123.779 3.31174C123.975 2.85696 124.251 2.50381 124.607 2.25229C124.962 2.00076 125.378 1.875 125.855 1.875C126.332 1.875 126.748 2.00076 127.103 2.25229C127.459 2.50381 127.735 2.85696 127.931 3.31174C128.128 3.76651 128.226 4.29751 128.226 4.90473C128.226 5.5094 128.128 6.03786 127.931 6.49009C127.735 6.94233 127.459 7.29421 127.103 7.54573C126.748 7.79726 126.332 7.92302 125.855 7.92302ZM125.858 6.96646C126.167 6.96646 126.423 6.87246 126.627 6.68445C126.83 6.49644 126.98 6.24619 127.077 5.93369C127.176 5.62119 127.226 5.27693 127.226 4.90091C127.226 4.52744 127.176 4.18445 127.077 3.87195C126.98 3.55691 126.83 3.30412 126.627 3.11357C126.423 2.92302 126.167 2.82774 125.858 2.82774C125.547 2.82774 125.289 2.92302 125.083 3.11357C124.88 3.30412 124.729 3.55691 124.63 3.87195C124.533 4.18445 124.484 4.52744 124.484 4.90091C124.484 5.27693 124.533 5.62119 124.63 5.93369C124.729 6.24619 124.88 6.49644 125.083 6.68445C125.289 6.87246 125.547 6.96646 125.858 6.96646Z" fill="#3D3D3D"/>
<path d="M129.331 7.80488V1.95122H130.321V4.40549H130.798L132.477 1.95122H133.702L131.732 4.79802L133.725 7.80488H132.497L130.964 5.46494H130.321V7.80488H129.331Z" fill="#3D3D3D"/>
<path d="M134.21 2.93445V1.95122H138.501V2.93445H136.842V7.80488H135.875V2.93445H134.21Z" fill="#3D3D3D"/>
<path d="M141.454 7.92302C140.977 7.92302 140.561 7.79726 140.206 7.54573C139.85 7.29421 139.574 6.94233 139.378 6.49009C139.182 6.03786 139.083 5.5094 139.083 4.90473C139.083 4.29751 139.182 3.76651 139.378 3.31174C139.574 2.85696 139.85 2.50381 140.206 2.25229C140.561 2.00076 140.977 1.875 141.454 1.875C141.931 1.875 142.347 2.00076 142.703 2.25229C143.058 2.50381 143.334 2.85696 143.531 3.31174C143.727 3.76651 143.825 4.29751 143.825 4.90473C143.825 5.5094 143.727 6.03786 143.531 6.49009C143.334 6.94233 143.058 7.29421 142.703 7.54573C142.347 7.79726 141.931 7.92302 141.454 7.92302ZM141.458 6.96646C141.767 6.96646 142.023 6.87246 142.226 6.68445C142.429 6.49644 142.579 6.24619 142.676 5.93369C142.776 5.62119 142.825 5.27693 142.825 4.90091C142.825 4.52744 142.776 4.18445 142.676 3.87195C142.579 3.55691 142.429 3.30412 142.226 3.11357C142.023 2.92302 141.767 2.82774 141.458 2.82774C141.146 2.82774 140.888 2.92302 140.683 3.11357C140.48 3.30412 140.328 3.55691 140.229 3.87195C140.132 4.18445 140.083 4.52744 140.083 4.90091C140.083 5.27693 140.132 5.62119 140.229 5.93369C140.328 6.24619 140.48 6.49644 140.683 6.68445C140.888 6.87246 141.146 6.96646 141.458 6.96646Z" fill="#3D3D3D"/>
<path d="M144.93 10V1.95122H145.897V2.90015H145.98C146.038 2.7782 146.12 2.6372 146.229 2.47713C146.337 2.31707 146.487 2.17734 146.679 2.05793C146.871 1.93598 147.125 1.875 147.441 1.875C147.851 1.875 148.218 1.99441 148.54 2.23323C148.862 2.47205 149.115 2.81631 149.298 3.26601C149.484 3.7157 149.576 4.25686 149.576 4.88948C149.576 5.5221 149.485 6.06453 149.302 6.51677C149.118 6.96646 148.867 7.31326 148.547 7.55716C148.226 7.79853 147.861 7.91921 147.45 7.91921C147.141 7.91921 146.889 7.8595 146.692 7.74009C146.498 7.62068 146.346 7.48094 146.235 7.32088C146.125 7.16082 146.04 7.01855 145.98 6.89405H145.921V10H144.93ZM145.901 4.87805C145.901 5.28963 145.953 5.65041 146.056 5.96037C146.16 6.27033 146.31 6.51296 146.507 6.68826C146.703 6.86103 146.944 6.94741 147.229 6.94741C147.524 6.94741 147.772 6.85721 147.97 6.67683C148.169 6.4939 148.319 6.24619 148.421 5.93369C148.524 5.62119 148.576 5.26931 148.576 4.87805C148.576 4.49187 148.526 4.14507 148.424 3.83765C148.325 3.53023 148.175 3.2876 147.974 3.10976C147.775 2.93191 147.527 2.84299 147.229 2.84299C146.942 2.84299 146.699 2.9281 146.5 3.09832C146.304 3.26855 146.155 3.5061 146.053 3.81098C145.951 4.11585 145.901 4.47154 145.901 4.87805Z" fill="#3D3D3D"/>
<path d="M152.828 7.92302C152.351 7.92302 151.935 7.79726 151.58 7.54573C151.224 7.29421 150.948 6.94233 150.752 6.49009C150.555 6.03786 150.457 5.5094 150.457 4.90473C150.457 4.29751 150.555 3.76651 150.752 3.31174C150.948 2.85696 151.224 2.50381 151.58 2.25229C151.935 2.00076 152.351 1.875 152.828 1.875C153.305 1.875 153.721 2.00076 154.077 2.25229C154.432 2.50381 154.708 2.85696 154.905 3.31174C155.101 3.76651 155.199 4.29751 155.199 4.90473C155.199 5.5094 155.101 6.03786 154.905 6.49009C154.708 6.94233 154.432 7.29421 154.077 7.54573C153.721 7.79726 153.305 7.92302 152.828 7.92302ZM152.832 6.96646C153.141 6.96646 153.397 6.87246 153.6 6.68445C153.803 6.49644 153.953 6.24619 154.05 5.93369C154.149 5.62119 154.199 5.27693 154.199 4.90091C154.199 4.52744 154.149 4.18445 154.05 3.87195C153.953 3.55691 153.803 3.30412 153.6 3.11357C153.397 2.92302 153.141 2.82774 152.832 2.82774C152.52 2.82774 152.262 2.92302 152.057 3.11357C151.854 3.30412 151.702 3.55691 151.603 3.87195C151.506 4.18445 151.457 4.52744 151.457 4.90091C151.457 5.27693 151.506 5.62119 151.603 5.93369C151.702 6.24619 151.854 6.49644 152.057 6.68445C152.262 6.87246 152.52 6.96646 152.832 6.96646Z" fill="#3D3D3D"/>
<path d="M156.304 7.80488V1.95122H158.414C158.988 1.95122 159.443 2.09223 159.778 2.37424C160.114 2.65371 160.281 3.03354 160.281 3.51372C160.281 3.85671 160.187 4.12856 159.997 4.32927C159.807 4.52998 159.555 4.66463 159.242 4.73323C159.469 4.76372 159.678 4.84248 159.868 4.96951C160.057 5.094 160.21 5.26169 160.324 5.47256C160.441 5.68343 160.5 5.93496 160.5 6.22713C160.5 6.53709 160.43 6.81148 160.291 7.0503C160.152 7.28659 159.95 7.47205 159.685 7.60671C159.423 7.73882 159.106 7.80488 158.735 7.80488H156.304ZM157.235 6.85213H158.735C158.98 6.85213 159.172 6.78481 159.311 6.65015C159.45 6.5155 159.52 6.33257 159.52 6.10137C159.52 5.82952 159.45 5.61611 159.311 5.46113C159.172 5.30361 158.98 5.22485 158.735 5.22485H157.235V6.85213ZM157.235 4.39024H158.424C158.609 4.39024 158.768 4.35976 158.901 4.29878C159.035 4.2378 159.138 4.15142 159.209 4.03963C159.281 3.9253 159.318 3.79065 159.318 3.63567C159.318 3.40955 159.237 3.23298 159.076 3.10595C158.915 2.97891 158.694 2.9154 158.414 2.9154H157.235V4.39024Z" fill="#3D3D3D"/>
<path d="M200.5 17.0207C200.5 16.8905 200.5 16.8905 200.5 16.7602C200.5 16.63 200.38 16.63 200.38 16.4996C200.26 16.4996 200.259 16.3694 200.139 16.3694L189.553 14.6759L184.861 4.1242C184.861 3.99394 184.741 3.99394 184.741 3.86367C184.62 3.86367 184.62 3.7334 184.5 3.7334C184.38 3.7334 184.38 3.7334 184.259 3.86367C184.139 3.86367 184.139 3.99394 184.139 4.1242L179.447 14.6759L168.861 16.3694C168.741 16.3694 168.741 16.3694 168.62 16.4996C168.5 16.4996 168.5 16.63 168.5 16.7602C168.5 16.8905 168.5 16.8905 168.5 17.0207C168.5 17.1511 168.62 17.1511 168.62 17.2813L176.199 25.4882L174.395 37.0821C174.395 37.2123 174.395 37.2123 174.395 37.3427C174.395 37.4729 174.515 37.4729 174.515 37.6032C174.635 37.6032 174.635 37.7334 174.756 37.7334C174.876 37.7334 174.876 37.7334 174.996 37.7334L184.38 32.2622L193.763 37.7334C193.884 37.7334 193.884 37.7334 194.004 37.7334C194.124 37.7334 194.124 37.7334 194.244 37.7334L194.485 37.4729C194.485 37.3426 194.485 37.3426 194.485 37.2123L192.68 25.6184L200.259 17.4116C200.38 17.2813 200.5 17.1511 200.5 17.0207ZM191.477 20.4078L188.35 23.6644C188.35 23.6644 188.229 23.7947 188.229 23.925C188.229 24.0552 188.229 24.0552 188.229 24.1855L188.951 28.8751C188.951 29.0055 188.951 29.0055 188.951 29.1357L188.831 29.266C188.831 29.266 188.711 29.266 188.711 29.3962C188.59 29.3962 188.59 29.3962 188.59 29.3962L184.741 27.1817C184.62 27.1817 184.62 27.1817 184.5 27.1817C184.38 27.1817 184.38 27.1817 184.259 27.1817L180.41 29.3962H180.289C180.169 29.3962 180.169 29.3962 180.169 29.266L180.049 29.1357C180.049 29.1357 180.049 29.0055 180.049 28.8751L180.771 24.1855C180.771 24.0552 180.771 24.0552 180.771 23.925C180.771 23.7947 180.65 23.7947 180.65 23.6644L177.402 20.1472C177.402 20.0169 177.402 20.0169 177.402 19.8867C177.402 19.7563 177.402 19.7563 177.523 19.7563L177.643 19.6261L181.853 18.9747C181.974 18.9747 181.974 18.9747 182.094 18.8445L182.214 18.7143L184.139 14.4154L184.259 14.2851H184.5L184.62 14.4154L186.545 18.7143C186.545 18.8445 186.665 18.8445 186.665 18.8445C186.665 18.8445 186.786 18.9747 186.906 18.9747L191.117 19.6261C191.237 19.6261 191.237 19.6261 191.237 19.7563L191.357 19.8867C191.357 19.8867 191.357 20.0169 191.357 20.1472C191.357 20.2774 191.477 20.2774 191.477 20.4078Z" fill="#FF9D14"/>
</svg>
