<svg width="75" height="75" viewBox="0 0 75 75" fill="none" xmlns="http://www.w3.org/2000/svg">
<path d="M64.6655 0L60.5662 3.51588H64.6655V0Z" fill="#005A94"/>
<path d="M27.9277 16.4074H47.2921L64.6655 0H45.993C45.3236 0 44.6802 0.259592 44.1982 0.724183L27.9277 16.4074Z" fill="#106CA6"/>
<path d="M51.1807 24.9631H23.6806V14.2247C23.6806 13.5106 24.2595 12.9316 24.9737 12.9316H49.8875C50.6017 12.9316 51.1806 13.5106 51.1806 14.2247L51.1807 24.9631ZM26.8056 21.838H48.0556V16.0568H26.8056V21.838Z" fill="#F3BD6D"/>
<path d="M10.7887 0L14.888 3.51588H10.7887V0Z" fill="#0A649E"/>
<path d="M47.2921 16.4074H27.9277L10.7496 0H29.4875C29.9896 0 30.4721 0.194692 30.8336 0.543133L47.2921 16.4074Z" fill="url(#paint0_linear_1118_18117)"/>
<path d="M65.3018 45.2588C65.3018 29.9043 52.8545 17.457 37.5 17.457C22.1455 17.457 9.6983 29.9043 9.6983 45.2588C9.6983 60.6132 22.1456 73.0605 37.5 73.0605C52.8545 73.0605 65.3018 60.6132 65.3018 45.2588Z" fill="url(#paint1_linear_1118_18117)"/>
<path d="M64.6552 45.2587C64.6552 30.2613 52.4974 18.1035 37.5 18.1035C22.5026 18.1035 10.3448 30.2613 10.3448 45.2587C10.3448 60.2561 22.5026 72.4139 37.5 72.4139C52.4974 72.4139 64.6552 60.2561 64.6552 45.2587Z" fill="url(#paint2_linear_1118_18117)"/>
<path d="M37.4999 67.8093C49.9547 67.8093 60.0512 57.7131 60.0512 45.2584C60.0512 32.8036 49.9547 22.707 37.4999 22.707C25.0452 22.707 14.9487 32.8036 14.9487 45.2584C14.9487 57.7131 25.0452 67.8093 37.4999 67.8093Z" fill="#E9B76E"/>
<path d="M37.4999 67.8093C49.9547 67.8093 60.0512 57.7131 60.0512 45.2584C60.0512 32.8036 49.9547 22.707 37.4999 22.707C25.0452 22.707 14.9487 32.8036 14.9487 45.2584C14.9487 57.7131 25.0452 67.8093 37.4999 67.8093Z" fill="url(#paint3_radial_1118_18117)"/>
<path d="M37.4999 67.8093C49.9547 67.8093 60.0512 57.7131 60.0512 45.2584C60.0512 32.8036 49.9547 22.707 37.4999 22.707C25.0452 22.707 14.9487 32.8036 14.9487 45.2584C14.9487 57.7131 25.0452 67.8093 37.4999 67.8093Z" fill="url(#paint4_radial_1118_18117)"/>
<path d="M37.5002 67.5971C49.8984 67.5971 59.9491 57.5463 59.9491 45.1481C59.9491 32.7499 49.8984 22.6992 37.5002 22.6992C25.102 22.6992 15.0513 32.7499 15.0513 45.1481C15.0513 57.5463 25.102 67.5971 37.5002 67.5971Z" fill="url(#paint5_radial_1118_18117)"/>
<g filter="url(#filter0_f_1118_18117)">
<path d="M37.0877 56.304C37.2942 56.1935 37.5403 56.1945 37.7461 56.3065L46.8028 61.2343C47.3131 61.512 48.0939 60.9484 48.0161 60.3597L46.5755 49.1679C46.5456 48.9408 46.4174 48.9376 46.5755 48.7763L53.7823 41.4249C54.5851 40.6221 54.0551 39.3487 53.4816 39.2547L43.3315 38.5357C43.1039 38.4984 42.9081 38.3496 42.8064 38.1368L38.111 28.3104C37.8505 27.7652 37.0949 27.7667 36.8367 28.3128L32.1939 38.1343C32.0926 38.3485 31.896 38.4985 31.6672 38.5357L21.106 39.4705C21.106 39.4705 20.3905 40.6557 21.1617 41.4267L28.4051 48.7673C28.5692 48.9335 28.4422 49.0029 28.4051 49.2367L26.6525 60.3427C26.5584 60.9356 27.3606 61.504 27.8786 61.2271L37.0877 56.304Z" fill="#A96800" fill-opacity="0.9"/>
</g>
<path d="M37.1891 52.3727C37.3688 52.2767 37.583 52.2774 37.7621 52.3749L45.6437 56.6634C46.0878 56.905 46.7672 56.4145 46.6996 55.9022L45.4459 46.1625C45.4198 45.965 45.3083 45.9622 45.4459 45.8218L51.7175 39.4243C52.4162 38.7256 51.9583 37.6275 51.4593 37.5457L42.6228 36.9099C42.4247 36.8775 42.2543 36.748 42.1658 36.5628L38.0796 28.0113C37.853 27.5369 37.1953 27.5382 36.9707 28.0135L32.9303 36.5605C32.8421 36.7471 32.671 36.8775 32.472 36.9099L23.3294 37.7193C23.3294 37.7193 22.6585 38.7549 23.3295 39.4258L29.6331 45.8139C29.7759 45.9586 29.6654 46.019 29.6331 46.2225L28.1079 55.8875C28.026 56.4034 28.7241 56.898 29.1749 56.6571L37.1891 52.3727Z" fill="url(#paint6_linear_1118_18117)"/>
<path d="M37.2027 51.4862C37.3883 51.3872 37.6093 51.3883 37.794 51.4891L45.6086 55.7519C46.0669 56.0018 46.6078 55.6135 46.538 55.0846L45.2697 45.4773C45.2428 45.2734 45.3105 45.0684 45.4525 44.9236L51.6895 38.5612C52.06 38.1834 51.8562 37.5326 51.3412 37.4482L42.6317 36.0203C42.4278 35.9869 42.2522 35.8538 42.1607 35.6633L38.076 27.1562C37.8412 26.6672 37.1626 26.6698 36.9317 27.1608L32.9342 35.6589C32.8433 35.8519 32.6665 35.987 32.4606 36.0206L23.704 37.4483C23.1878 37.5324 22.9845 38.1854 23.3569 38.5628L29.6255 44.9154C29.7728 45.0648 29.8406 45.2784 29.8072 45.4884L28.2868 55.0612C28.2023 55.5933 28.7434 55.9972 29.2086 55.7492L37.2027 51.4862Z" fill="url(#paint7_linear_1118_18117)"/>
<path fill-rule="evenodd" clip-rule="evenodd" d="M31.4871 60.7544C31.5319 60.5958 31.5992 60.4561 31.6888 60.3354C31.7819 60.2147 31.8905 60.1147 32.0146 60.0354C32.1423 59.9526 32.2836 59.8906 32.4388 59.8492C32.594 59.8078 32.7578 59.7871 32.9302 59.7871C33.1371 59.7871 33.3216 59.813 33.4836 59.8647C33.6457 59.9164 33.7819 59.9906 33.8922 60.0871C34.006 60.1802 34.0905 60.2923 34.1457 60.4233C34.2043 60.5544 34.2336 60.6992 34.2336 60.8578C34.2336 61.0371 34.2077 61.2009 34.156 61.3492C34.1043 61.4974 34.025 61.6406 33.9181 61.7785C33.8112 61.9164 33.675 62.0544 33.5095 62.1923C33.3474 62.3268 33.1543 62.4717 32.9302 62.6268L32.5164 62.8648H34.3474V63.4441H31.5388V62.9837L32.356 62.3889C32.4871 62.2855 32.625 62.1785 32.7698 62.0681C32.9146 61.9544 33.0474 61.8388 33.1681 61.7216C33.2922 61.6009 33.394 61.4767 33.4733 61.3492C33.5526 61.2216 33.5922 61.0906 33.5922 60.9561C33.5922 60.7802 33.5319 60.6423 33.4112 60.5423C33.294 60.4388 33.1302 60.3871 32.9198 60.3871C32.7992 60.3871 32.6906 60.4044 32.594 60.4388C32.5009 60.4699 32.4164 60.513 32.3405 60.5681C32.2681 60.6199 32.206 60.6819 32.1543 60.7544C32.1026 60.8233 32.0612 60.8958 32.0302 60.9716L31.4871 60.7544ZM34.7206 61.6337C34.7206 61.3681 34.7551 61.1233 34.824 60.8992C34.893 60.6716 34.9931 60.4768 35.124 60.3147C35.2551 60.1492 35.4172 60.0199 35.6103 59.9268C35.8068 59.8337 36.031 59.7871 36.2827 59.7871C36.5379 59.7871 36.762 59.8337 36.9551 59.9268C37.1516 60.0199 37.3155 60.1492 37.4465 60.3147C37.5809 60.4768 37.6827 60.6716 37.7516 60.8992C37.8206 61.1233 37.8551 61.3681 37.8551 61.6337C37.8551 61.9026 37.8206 62.1509 37.7516 62.3786C37.6861 62.6029 37.5879 62.7975 37.4568 62.963C37.3258 63.1253 37.162 63.2527 36.9654 63.3458C36.7724 63.4357 36.5482 63.4803 36.293 63.4803C36.0379 63.4803 35.812 63.4357 35.6154 63.3458C35.4224 63.2527 35.2585 63.1253 35.124 62.963C34.9931 62.7975 34.893 62.6029 34.824 62.3786C34.7551 62.1509 34.7206 61.9026 34.7206 61.6337ZM35.362 61.6337C35.362 62.0371 35.4431 62.3475 35.6051 62.5648C35.7706 62.7788 35.9999 62.8854 36.293 62.8854C36.6068 62.8854 36.8379 62.7788 36.9861 62.5648C37.1379 62.3475 37.2137 62.0371 37.2137 61.6337C37.2137 61.2302 37.1361 60.9216 36.9809 60.7078C36.8293 60.4906 36.5965 60.3819 36.2827 60.3819C35.9792 60.3819 35.7499 60.4923 35.5947 60.713C35.4396 60.9302 35.362 61.2371 35.362 61.6337ZM38.3882 60.3364C38.2985 60.4572 38.2312 60.5969 38.1864 60.7556L38.7299 60.9731C38.7609 60.8972 38.8023 60.8247 38.8541 60.7556C38.9059 60.6832 38.9679 60.6211 39.0404 60.5693C39.1163 60.5141 39.2009 60.471 39.294 60.4399C39.3906 60.4054 39.4994 60.3881 39.6202 60.3881C39.8306 60.3881 39.9945 60.4399 40.1119 60.5434C40.2326 60.6435 40.293 60.7816 40.293 60.9576C40.293 61.0921 40.2533 61.2232 40.174 61.3509C40.0946 61.4786 39.9928 61.6028 39.8686 61.7236C39.7478 61.8409 39.6149 61.9565 39.47 62.0704C39.3251 62.1808 39.187 62.2878 39.0559 62.3913L38.2381 62.9866V63.4472H41.0487V62.8675H39.2164L39.6305 62.6294C39.8548 62.4741 40.048 62.3292 40.2102 62.1946C40.3759 62.0566 40.5121 61.9185 40.6191 61.7806C40.7261 61.6425 40.8054 61.4993 40.8572 61.3509C40.909 61.2025 40.9349 61.0386 40.9349 60.8592C40.9349 60.7004 40.9055 60.5555 40.8469 60.4244C40.7916 60.2933 40.7071 60.1811 40.5932 60.088C40.4828 59.9914 40.3465 59.9171 40.1843 59.8654C40.0221 59.8136 39.8375 59.7878 39.6305 59.7878C39.4579 59.7878 39.294 59.8084 39.1387 59.8498C38.9835 59.8913 38.842 59.9534 38.7143 60.0362C38.5901 60.1156 38.4814 60.2156 38.3882 60.3364ZM41.3239 62.7588H43.3737V63.4472H43.9792V62.7588H44.5952V62.205H43.9792V59.824H43.4617L41.3239 62.3551V62.7588ZM43.3737 60.8126V62.205H42.1521L43.3737 60.8126Z" fill="#845100"/>
<defs>
<filter id="filter0_f_1118_18117" x="14.8039" y="21.9023" width="45.3875" height="45.4043" filterUnits="userSpaceOnUse" color-interpolation-filters="sRGB">
<feFlood flood-opacity="0" result="BackgroundImageFix"/>
<feBlend mode="normal" in="SourceGraphic" in2="BackgroundImageFix" result="shape"/>
<feGaussianBlur stdDeviation="3" result="effect1_foregroundBlur_1118_18117"/>
</filter>
<linearGradient id="paint0_linear_1118_18117" x1="29.0209" y1="0" x2="29.0209" y2="16.4074" gradientUnits="userSpaceOnUse">
<stop stop-color="#117DC1"/>
<stop offset="1" stop-color="#1599EC"/>
</linearGradient>
<linearGradient id="paint1_linear_1118_18117" x1="25.9725" y1="17.457" x2="68.014" y2="83.9096" gradientUnits="userSpaceOnUse">
<stop offset="0.0572917" stop-color="#FFDE9D"/>
<stop offset="0.354067" stop-color="#DA9F4D"/>
<stop offset="0.380208" stop-color="#FFD98C"/>
</linearGradient>
<linearGradient id="paint2_linear_1118_18117" x1="39.7814" y1="18.0997" x2="33.7457" y2="78.2561" gradientUnits="userSpaceOnUse">
<stop offset="0.254069" stop-color="#FFF4D8"/>
<stop offset="0.457141" stop-color="#EFAD4F"/>
<stop offset="0.594916" stop-color="#FFF4D8"/>
</linearGradient>
<radialGradient id="paint3_radial_1118_18117" cx="0" cy="0" r="1" gradientUnits="userSpaceOnUse" gradientTransform="translate(37.4999 45.2584) rotate(90) scale(22.5513 22.5513)">
<stop offset="0.591475" stop-color="#F7BF6F"/>
<stop offset="1" stop-color="#DFAA5D"/>
</radialGradient>
<radialGradient id="paint4_radial_1118_18117" cx="0" cy="0" r="1" gradientUnits="userSpaceOnUse" gradientTransform="translate(37.5 45.2583) rotate(-114.32) scale(22.4544 24.6742)">
<stop offset="0.0689457" stop-color="#FFF0C8"/>
<stop offset="1" stop-color="#F6B450"/>
</radialGradient>
<radialGradient id="paint5_radial_1118_18117" cx="0" cy="0" r="1" gradientUnits="userSpaceOnUse" gradientTransform="translate(37.5002 45.8408) rotate(90) scale(22.3378 22.5094)">
<stop offset="0.947917" stop-color="#BC812B" stop-opacity="0"/>
<stop offset="1" stop-color="#BB802A"/>
</radialGradient>
<linearGradient id="paint6_linear_1118_18117" x1="37.5195" y1="60.9849" x2="37.5059" y2="27.5677" gradientUnits="userSpaceOnUse">
<stop offset="0.364583" stop-color="#FFD98C"/>
<stop offset="0.401142" stop-color="#D79331"/>
</linearGradient>
<linearGradient id="paint7_linear_1118_18117" x1="19.1536" y1="66.1056" x2="8.56765" y2="51.7566" gradientUnits="userSpaceOnUse">
<stop offset="0.1875" stop-color="#FFFCF4"/>
<stop offset="0.671875" stop-color="#FFF1D7"/>
<stop offset="0.69778" stop-color="#FFFDF7"/>
</linearGradient>
</defs>
</svg>
