<svg width="77" height="75" viewBox="0 0 77 75" fill="none" xmlns="http://www.w3.org/2000/svg">
<mask id="mask0_402_1246" style="mask-type:luminance" maskUnits="userSpaceOnUse" x="0" y="0" width="75" height="75">
<path d="M74.5714 0H0V75H74.5714V0Z" fill="white"/>
</mask>
<g mask="url(#mask0_402_1246)">
<path d="M64.2965 0L60.2207 3.51588H64.2965V0Z" fill="#005A94"/>
<path d="M27.7676 16.4074H47.0213L64.2955 0H45.7297C45.0641 0 44.4244 0.259592 43.9451 0.724183L27.7676 16.4074Z" fill="#106CA6"/>
<path d="M50.8879 24.9626H23.5449V14.2243C23.5449 13.5101 24.1205 12.9312 24.8306 12.9312H49.602C50.3121 12.9312 50.8878 13.5101 50.8878 14.2243L50.8879 24.9626ZM26.652 21.8375H47.7806V16.0563H26.652V21.8375Z" fill="#F3BD6D"/>
<path d="M10.7266 0L14.8025 3.51588H10.7266V0Z" fill="#0A649E"/>
<path d="M47.0212 16.4074H27.7675L10.6875 0H29.3183C29.8176 0 30.2973 0.194692 30.6568 0.543132L47.0212 16.4074Z" fill="url(#paint0_linear_402_1246)"/>
<path d="M37.2867 18.4404C52.3686 18.4404 64.5947 30.737 64.5947 45.9056C64.5947 61.0741 52.3686 73.3704 37.2867 73.3704C22.2048 73.3704 9.97852 61.0741 9.97852 45.9056C9.97852 30.737 22.2048 18.4404 37.2867 18.4404Z" fill="url(#paint1_linear_402_1246)"/>
<path d="M37.2867 18.4404C52.3686 18.4404 64.5947 30.737 64.5947 45.9056C64.5947 61.0741 52.3686 73.3704 37.2867 73.3704C22.2048 73.3704 9.97852 61.0741 9.97852 45.9056C9.97852 30.737 22.2048 18.4404 37.2867 18.4404Z" fill="#E0952D"/>
<path d="M37.2867 18.4404C52.3686 18.4404 64.5947 30.737 64.5947 45.9056C64.5947 61.0741 52.3686 73.3704 37.2867 73.3704C22.2048 73.3704 9.97852 61.0741 9.97852 45.9056C9.97852 30.737 22.2048 18.4404 37.2867 18.4404Z" fill="url(#paint2_linear_402_1246)"/>
<path d="M37.286 16.8105C53.2628 16.8105 66.2146 29.8368 66.2146 45.9054C66.2146 61.974 53.2628 75.0002 37.286 75.0002C21.3092 75.0002 8.35742 61.974 8.35742 45.9054C8.35742 29.8368 21.3092 16.8105 37.286 16.8105Z" fill="url(#paint3_linear_402_1246)"/>
<path d="M37.286 16.8105C53.2628 16.8105 66.2146 29.8368 66.2146 45.9054C66.2146 61.974 53.2628 75.0002 37.286 75.0002C21.3092 75.0002 8.35742 61.974 8.35742 45.9054C8.35742 29.8368 21.3092 16.8105 37.286 16.8105Z" fill="url(#paint4_linear_402_1246)"/>
<path d="M11.3926 45.9051C11.3926 31.5229 22.985 19.8638 37.2851 19.8638C51.5852 19.8638 63.1776 31.5229 63.1776 45.9051C63.1776 60.2873 51.5852 71.9462 37.2851 71.9462C22.9851 71.9462 11.3926 60.2873 11.3926 45.9051Z" fill="url(#paint5_radial_402_1246)"/>
<path fill-rule="evenodd" clip-rule="evenodd" d="M12.6783 45.9051C12.6783 32.237 23.6951 21.1569 37.2851 21.1569C50.8751 21.1569 61.8919 32.237 61.8919 45.9051C61.8919 59.5732 50.8751 70.6531 37.2851 70.6531C23.6951 70.6531 12.6783 59.5732 12.6783 45.9051ZM37.2851 19.8638C22.985 19.8638 11.3926 31.5229 11.3926 45.9051C11.3926 60.2873 22.9851 71.9462 37.2851 71.9462C51.5852 71.9462 63.1776 60.2873 63.1776 45.9051C63.1776 31.5229 51.5852 19.8638 37.2851 19.8638Z" fill="url(#paint6_linear_402_1246)"/>
<path fill-rule="evenodd" clip-rule="evenodd" d="M12.6783 45.9051C12.6783 32.237 23.6951 21.1569 37.2851 21.1569C50.8751 21.1569 61.8919 32.237 61.8919 45.9051C61.8919 59.5732 50.8751 70.6531 37.2851 70.6531C23.6951 70.6531 12.6783 59.5732 12.6783 45.9051ZM37.2851 19.8638C22.985 19.8638 11.3926 31.5229 11.3926 45.9051C11.3926 60.2873 22.9851 71.9462 37.2851 71.9462C51.5852 71.9462 63.1776 60.2873 63.1776 45.9051C63.1776 31.5229 51.5852 19.8638 37.2851 19.8638Z" fill="url(#paint7_linear_402_1246)"/>
<g filter="url(#filter0_f_402_1246)">
<path fill-rule="evenodd" clip-rule="evenodd" d="M37.8629 26.5419C37.8192 26.4526 37.7513 26.3775 37.6669 26.3253C37.5827 26.273 37.4854 26.2458 37.3864 26.2466C37.2878 26.247 37.1912 26.2748 37.1073 26.3269C37.0234 26.379 36.9554 26.4534 36.9108 26.5419L31.2712 37.8799L18.7055 39.6807C18.608 39.6949 18.5163 39.7361 18.4406 39.7996C18.3649 39.863 18.3082 39.9464 18.2768 40.0404C18.2456 40.1343 18.2416 40.2351 18.265 40.3313C18.2883 40.4275 18.3382 40.5151 18.4088 40.5841L27.4871 49.4314L25.4475 61.2029L25.3268 61.8997C25.3092 61.9971 25.3196 62.0975 25.3567 62.1893C25.3937 62.281 25.4559 62.3603 25.5361 62.4178C25.6164 62.4763 25.7113 62.5112 25.8101 62.5187C25.909 62.526 26.0079 62.5056 26.096 62.4597L37.3407 56.5884L48.5691 62.4944C48.6418 62.5331 48.7225 62.5541 48.8046 62.5559C48.8868 62.5577 48.9684 62.5401 49.0426 62.5046C49.112 62.4719 49.1735 62.4246 49.2231 62.3659C49.2728 62.3072 49.3093 62.2385 49.3302 62.1644C49.3507 62.0905 49.3548 62.0131 49.3424 61.9375L47.2105 49.4621L56.3111 40.6423C56.3821 40.5738 56.4326 40.4866 56.4571 40.3908C56.4815 40.2949 56.4788 40.1941 56.4493 40.0996C56.4189 40.005 56.3626 39.9208 56.2867 39.857C56.2108 39.7932 56.1185 39.7522 56.0205 39.7389L43.4609 37.8993L37.8629 26.5419ZM37.3681 37.1836L40.051 42.6269L45.9588 43.4921L41.6806 47.6383L42.6937 53.567L37.3494 50.7559L31.9934 53.5525L33.0209 47.6221L28.7554 43.465L34.6649 42.6182L37.3681 37.1836ZM46.8455 57.828C46.8434 57.829 46.8413 57.8301 46.8392 57.831L46.8471 57.8273L46.8564 57.8229C46.8528 57.8246 46.8491 57.8263 46.8455 57.828Z" fill="#0F0F0F"/>
</g>
<path d="M31.2676 63.1972C31.3122 63.0386 31.379 62.899 31.4681 62.7783C31.5607 62.6575 31.6687 62.5576 31.7921 62.4783C31.919 62.3955 32.0596 62.3334 32.2139 62.292C32.3681 62.2507 32.531 62.23 32.7024 62.23C32.9081 62.23 33.0916 62.2558 33.2527 62.3076C33.4139 62.3593 33.5493 62.4334 33.659 62.53C33.7721 62.6231 33.8562 62.7351 33.911 62.8662C33.9693 62.9972 33.9984 63.1421 33.9984 63.3007C33.9984 63.48 33.9727 63.6438 33.9213 63.792C33.8699 63.9403 33.791 64.0835 33.6847 64.2214C33.5785 64.3593 33.443 64.4972 33.2784 64.6352C33.1173 64.7697 32.9253 64.9145 32.7024 65.0697L32.291 65.3076H34.1116V65.8869H31.319V65.4266L32.1316 64.8318C32.2619 64.7283 32.399 64.6214 32.543 64.511C32.687 64.3972 32.819 64.2817 32.939 64.1645C33.0624 64.0437 33.1636 63.9196 33.2424 63.792C33.3213 63.6645 33.3607 63.5334 33.3607 63.3989C33.3607 63.2231 33.3007 63.0852 33.1807 62.9852C33.0642 62.8817 32.9013 62.83 32.6921 62.83C32.5722 62.83 32.4642 62.8472 32.3681 62.8817C32.2756 62.9127 32.1916 62.9559 32.1161 63.011C32.0441 63.0627 31.9824 63.1248 31.931 63.1972C31.8796 63.2662 31.8384 63.3386 31.8076 63.4145L31.2676 63.1972Z" fill="#FFFAEA"/>
<path d="M34.4824 64.0765C34.4824 63.811 34.5168 63.5662 34.5853 63.3421C34.6539 63.1145 34.7533 62.9197 34.8836 62.7576C35.0139 62.5921 35.175 62.4627 35.367 62.3696C35.5624 62.2765 35.7853 62.23 36.0356 62.23C36.2893 62.23 36.5122 62.2765 36.7041 62.3696C36.8996 62.4627 37.0625 62.5921 37.1927 62.7576C37.3264 62.9197 37.4276 63.1145 37.4961 63.3421C37.5647 63.5662 37.599 63.811 37.599 64.0765C37.599 64.3455 37.5647 64.5938 37.4961 64.8214C37.431 65.0458 37.3333 65.2404 37.203 65.4059C37.0727 65.5682 36.9098 65.6956 36.7144 65.7887C36.5225 65.8785 36.2996 65.9231 36.0459 65.9231C35.7922 65.9231 35.5676 65.8785 35.3721 65.7887C35.1802 65.6956 35.0173 65.5682 34.8836 65.4059C34.7533 65.2404 34.6539 65.0458 34.5853 64.8214C34.5168 64.5938 34.4824 64.3455 34.4824 64.0765ZM35.1201 64.0765C35.1201 64.48 35.2008 64.7904 35.3619 65.0076C35.5264 65.2216 35.7544 65.3283 36.0459 65.3283C36.3579 65.3283 36.5876 65.2216 36.735 65.0076C36.8859 64.7904 36.9613 64.48 36.9613 64.0765C36.9613 63.6731 36.8841 63.3645 36.7298 63.1507C36.579 62.9334 36.3476 62.8248 36.0356 62.8248C35.7339 62.8248 35.5058 62.9352 35.3516 63.1558C35.1973 63.3731 35.1201 63.68 35.1201 64.0765Z" fill="#FFFAEA"/>
<path d="M37.9434 63.1972C37.988 63.0386 38.0548 62.899 38.1439 62.7783C38.2365 62.6575 38.3445 62.5576 38.4679 62.4783C38.5948 62.3955 38.7354 62.3334 38.8896 62.292C39.0439 62.2507 39.2068 62.23 39.3782 62.23C39.5839 62.23 39.7674 62.2558 39.9285 62.3076C40.0897 62.3593 40.2251 62.4334 40.3348 62.53C40.4479 62.6231 40.532 62.7351 40.5868 62.8662C40.6451 62.9972 40.6742 63.1421 40.6742 63.3007C40.6742 63.48 40.6485 63.6438 40.5971 63.792C40.5456 63.9403 40.4668 64.0835 40.3605 64.2214C40.2542 64.3593 40.1188 64.4972 39.9542 64.6352C39.7931 64.7697 39.6011 64.9145 39.3782 65.0697L38.9668 65.3076H40.7874V65.8869H37.9948V65.4266L38.8074 64.8318C38.9377 64.7283 39.0748 64.6214 39.2188 64.511C39.3628 64.3972 39.4948 64.2817 39.6148 64.1645C39.7382 64.0437 39.8394 63.9196 39.9182 63.792C39.9971 63.6645 40.0365 63.5334 40.0365 63.3989C40.0365 63.2231 39.9765 63.0852 39.8565 62.9852C39.74 62.8817 39.5771 62.83 39.3679 62.83C39.248 62.83 39.14 62.8472 39.0439 62.8817C38.9514 62.9127 38.8674 62.9559 38.7919 63.011C38.7199 63.0627 38.6582 63.1248 38.6068 63.1972C38.5554 63.2662 38.5142 63.3386 38.4834 63.4145L37.9434 63.1972Z" fill="#FFFAEA"/>
<path d="M41.1618 63.0628C41.2064 62.9283 41.2733 62.8094 41.3624 62.7059C41.455 62.6025 41.5613 62.5146 41.6813 62.4421C41.8047 62.3697 41.9418 62.3146 42.0927 62.2766C42.2435 62.2387 42.4013 62.2197 42.5658 62.2197C42.7544 62.2197 42.9275 62.2422 43.0853 62.287C43.243 62.3283 43.3801 62.3887 43.4967 62.468C43.6133 62.5473 43.7041 62.6439 43.7693 62.7577C43.8344 62.868 43.867 62.9922 43.867 63.1301C43.867 63.337 43.8121 63.5146 43.7024 63.6628C43.5961 63.8111 43.4572 63.9094 43.2858 63.9577C43.3613 63.9749 43.4384 64.0042 43.5173 64.0456C43.5961 64.0835 43.6664 64.1369 43.7281 64.2059C43.7933 64.2714 43.8447 64.3542 43.8824 64.4542C43.9236 64.5507 43.9441 64.6683 43.9441 64.806C43.9441 64.9819 43.9081 65.139 43.8361 65.2767C43.7641 65.4144 43.6664 65.5321 43.543 65.6284C43.423 65.7247 43.2807 65.7991 43.1161 65.8508C42.9516 65.9025 42.7767 65.9284 42.5916 65.9284C42.4476 65.9284 42.2984 65.9129 42.1441 65.8819C41.9898 65.8476 41.8424 65.7939 41.7018 65.7215C41.5647 65.6491 41.4412 65.556 41.3316 65.4422C41.2252 65.3284 41.1447 65.1907 41.0898 65.0284L41.6556 64.7905C41.6932 64.8732 41.743 64.9489 41.8047 65.0181C41.8698 65.0834 41.9418 65.1403 42.0207 65.1888C42.103 65.2334 42.1887 65.2683 42.2778 65.2922C42.3669 65.3161 42.4544 65.3284 42.5401 65.3284C42.6464 65.3284 42.7458 65.3181 42.8384 65.2974C42.931 65.2735 43.0115 65.2385 43.0801 65.1939C43.1487 65.1493 43.2018 65.0957 43.2396 65.0336C43.2807 64.9683 43.3013 64.8939 43.3013 64.8112C43.3013 64.7148 43.279 64.6352 43.2344 64.5732C43.1898 64.5077 43.1281 64.4576 43.0493 64.4232C42.9738 64.3852 42.883 64.3594 42.7767 64.3456C42.6704 64.3283 42.5538 64.3197 42.427 64.3197H42.0773V63.7508H42.4476C42.6841 63.7508 42.8727 63.7042 43.0133 63.6111C43.1573 63.518 43.2293 63.4008 43.2293 63.2594C43.2293 63.187 43.2104 63.1232 43.1727 63.068C43.1384 63.0128 43.0887 62.9663 43.0236 62.9283C42.9584 62.887 42.883 62.8577 42.7973 62.8404C42.7115 62.8197 42.6173 62.8094 42.5144 62.8094C42.4047 62.8094 42.307 62.8215 42.2213 62.8456C42.1355 62.8663 42.0601 62.8991 41.995 62.9439C41.9298 62.9852 41.8732 63.037 41.8253 63.099C41.7773 63.1577 41.7327 63.2249 41.6916 63.3008L41.1618 63.0628Z" fill="#FFFAEA"/>
<path fill-rule="evenodd" clip-rule="evenodd" d="M37.8629 25.043C37.8192 24.9536 37.7513 24.8785 37.6669 24.8263C37.5827 24.774 37.4854 24.7467 37.3864 24.7476C37.2878 24.748 37.1912 24.7758 37.1073 24.8279C37.0234 24.8801 36.9554 24.9545 36.9108 25.043L31.2712 36.3809L18.7055 38.1816C18.608 38.1959 18.5163 38.237 18.4406 38.3005C18.3649 38.3641 18.3082 38.4474 18.2768 38.5414C18.2456 38.6353 18.2416 38.7362 18.265 38.8323C18.2883 38.9285 18.3382 39.0161 18.4088 39.0851L27.4871 47.9324L25.4475 59.7039L25.3268 60.4006C25.3092 60.4981 25.3196 60.5985 25.3567 60.6903C25.3937 60.782 25.4559 60.8613 25.5361 60.9188C25.6164 60.9773 25.7113 61.0122 25.8101 61.0196C25.909 61.027 26.0079 61.0066 26.096 60.9607L37.3407 55.0894L48.5691 60.9955C48.6418 61.0341 48.7225 61.0551 48.8046 61.0569C48.8868 61.0587 48.9684 61.0411 49.0426 61.0057C49.112 60.9729 49.1735 60.9256 49.2231 60.8669C49.2728 60.8082 49.3093 60.7394 49.3302 60.6653C49.3507 60.5915 49.3548 60.5141 49.3424 60.4385L47.2105 47.963L56.3111 39.1433C56.3821 39.0748 56.4326 38.9877 56.4571 38.8918C56.4815 38.7959 56.4788 38.6951 56.4493 38.6007C56.4189 38.5059 56.3626 38.4218 56.2867 38.358C56.2108 38.2941 56.1185 38.2532 56.0205 38.2399L43.4609 36.4003L37.8629 25.043ZM37.3681 35.6846L40.051 41.1278L45.9588 41.9931L41.6806 46.1393L42.6937 52.0679L37.3494 49.2569L31.9934 52.0535L33.0209 46.1231L28.7554 41.9661L34.6649 41.1192L37.3681 35.6846ZM46.8455 56.329C46.8434 56.33 46.8413 56.331 46.8392 56.3321L46.8471 56.3283L46.8564 56.3239C46.8528 56.3256 46.8491 56.3273 46.8455 56.329Z" fill="#F0A232"/>
<path fill-rule="evenodd" clip-rule="evenodd" d="M56.3111 38.6697C56.3821 38.6011 56.4326 38.514 56.4571 38.4182C56.4815 38.3223 56.4788 38.2214 56.4493 38.127C56.4189 38.0323 56.3626 37.9482 56.2867 37.8844C56.2108 37.8205 56.1185 37.7796 56.0205 37.7663L43.4609 35.9267L37.8629 24.5693C37.8192 24.48 37.7513 24.4049 37.6669 24.3526C37.5827 24.3004 37.4854 24.2731 37.3864 24.2739C37.2878 24.2744 37.1912 24.3022 37.1073 24.3543C37.0234 24.4064 36.9554 24.4808 36.9108 24.5693L31.2712 35.9072L18.7055 37.708C18.608 37.7223 18.5163 37.7634 18.4406 37.8269C18.3649 37.8905 18.3082 37.9738 18.2768 38.0677C18.2456 38.1617 18.2416 38.2625 18.265 38.3587C18.2883 38.4549 18.3382 38.5424 18.4088 38.6114L27.4871 47.4588L25.3268 59.927C25.3092 60.0244 25.3196 60.1249 25.3567 60.2167C25.3937 60.3084 25.4559 60.3876 25.5361 60.4452C25.6164 60.5037 25.7113 60.5386 25.8101 60.546C25.909 60.5534 26.0079 60.533 26.096 60.4871L37.3407 54.6157L48.5691 60.5218C48.6418 60.5604 48.7225 60.5815 48.8046 60.5833C48.8868 60.5851 48.9684 60.5675 49.0426 60.5321C49.112 60.4993 49.1735 60.4519 49.2231 60.3932C49.2728 60.3345 49.3093 60.2658 49.3302 60.1917C49.3507 60.1179 49.3548 60.0404 49.3424 59.9648L47.2105 47.4894L56.3111 38.6697ZM45.9588 41.5195L40.051 40.6542L37.3681 35.2109L34.6649 40.6456L28.7554 41.4925L33.0209 45.6495L31.9934 51.5798L37.3494 48.7832L42.6937 51.5943L41.6806 45.6657L45.9588 41.5195ZM46.8439 55.8561C46.8422 55.857 46.8404 55.8578 46.8388 55.8586L46.8471 55.8546L46.8564 55.8502C46.8523 55.8522 46.8481 55.8542 46.8439 55.8561Z" fill="url(#paint8_linear_402_1246)"/>
<path d="M37.4864 70.8778C51.0886 70.8778 62.1154 59.7874 62.1154 46.107C62.1154 32.4266 51.0886 21.3364 37.4864 21.3364C23.8842 21.3364 12.8574 32.4266 12.8574 46.107C12.8574 59.7874 23.8842 70.8778 37.4864 70.8778Z" fill="url(#paint9_radial_402_1246)"/>
</g>
<defs>
<filter id="filter0_f_402_1246" x="14.25" y="22.2466" width="46.2236" height="44.3096" filterUnits="userSpaceOnUse" color-interpolation-filters="sRGB">
<feFlood flood-opacity="0" result="BackgroundImageFix"/>
<feBlend mode="normal" in="SourceGraphic" in2="BackgroundImageFix" result="shape"/>
<feGaussianBlur stdDeviation="2" result="effect1_foregroundBlur_402_1246"/>
</filter>
<linearGradient id="paint0_linear_402_1246" x1="28.8544" y1="0" x2="28.8544" y2="16.4074" gradientUnits="userSpaceOnUse">
<stop stop-color="#117DC1"/>
<stop offset="1" stop-color="#1599EC"/>
</linearGradient>
<linearGradient id="paint1_linear_402_1246" x1="79.0886" y1="69.2324" x2="-4.7043" y2="19.6073" gradientUnits="userSpaceOnUse">
<stop offset="0.0416667" stop-color="#FFDA45"/>
<stop offset="0.520833" stop-color="#FFCE51"/>
<stop offset="0.890625" stop-color="#FFA425"/>
</linearGradient>
<linearGradient id="paint2_linear_402_1246" x1="64.5947" y1="57.2935" x2="-0.89165" y2="16.1" gradientUnits="userSpaceOnUse">
<stop offset="0.0572917" stop-color="#FFDA45"/>
<stop offset="0.354067" stop-color="#FFA425"/>
<stop offset="0.354167" stop-color="#FFBA32"/>
</linearGradient>
<linearGradient id="paint3_linear_402_1246" x1="66.2146" y1="57.9691" x2="-3.15775" y2="14.3313" gradientUnits="userSpaceOnUse">
<stop offset="0.0572917" stop-color="#FFDE9D"/>
<stop offset="0.354067" stop-color="#EFA02F"/>
<stop offset="0.380208" stop-color="#FFD98C"/>
</linearGradient>
<linearGradient id="paint4_linear_402_1246" x1="66.2146" y1="57.9691" x2="-3.15775" y2="14.3313" gradientUnits="userSpaceOnUse">
<stop offset="0.0572917" stop-color="#FFDE9D"/>
<stop offset="0.354067" stop-color="#DA9F4D"/>
<stop offset="0.380208" stop-color="#FFD98C"/>
</linearGradient>
<radialGradient id="paint5_radial_402_1246" cx="0" cy="0" r="1" gradientUnits="userSpaceOnUse" gradientTransform="translate(37.2851 45.9051) rotate(180) scale(25.8925 26.0414)">
<stop stop-color="#5E5E5E"/>
<stop offset="1" stop-color="#383838"/>
</radialGradient>
<linearGradient id="paint6_linear_402_1246" x1="35.7549" y1="50.2454" x2="79.8694" y2="99.0123" gradientUnits="userSpaceOnUse">
<stop offset="0.255208" stop-color="#FFF4D8"/>
<stop offset="0.385307" stop-color="#F1B35B"/>
</linearGradient>
<linearGradient id="paint7_linear_402_1246" x1="35.1098" y1="19.8601" x2="40.9305" y2="77.5426" gradientUnits="userSpaceOnUse">
<stop offset="0.254069" stop-color="#FFF4D8"/>
<stop offset="0.457141" stop-color="#EFAD4F"/>
<stop offset="0.594916" stop-color="#FFF4D8"/>
</linearGradient>
<linearGradient id="paint8_linear_402_1246" x1="14.2563" y1="72.2806" x2="1.78211" y2="54.5062" gradientUnits="userSpaceOnUse">
<stop offset="0.1875" stop-color="#FFF8E8"/>
<stop offset="0.671875" stop-color="#FFE5B4"/>
<stop offset="0.69778" stop-color="#FFFAED"/>
</linearGradient>
<radialGradient id="paint9_radial_402_1246" cx="0" cy="0" r="1" gradientUnits="userSpaceOnUse" gradientTransform="translate(37.4864 46.8712) rotate(90) scale(24.6479 24.6954)">
<stop offset="0.9375" stop-opacity="0"/>
<stop offset="1" stop-opacity="0.46"/>
</radialGradient>
</defs>
</svg>
