<svg width="28" height="26" viewBox="0 0 28 26" fill="none" xmlns="http://www.w3.org/2000/svg">
<path d="M27.5344 9.05469H25.201C24.9434 9.05469 24.7344 9.26802 24.7344 9.53087C24.7344 9.79372 24.9434 10.007 25.201 10.007H27.5344C27.792 10.007 28.001 9.79372 28.001 9.53087C28.001 9.26802 27.792 9.05469 27.5344 9.05469Z" fill="#4CC9F0"/>
<path d="M24.8879 7.26469C24.793 7.34849 24.7354 7.46767 24.7274 7.595C24.7199 7.72288 24.7626 7.84804 24.8463 7.94327C24.9301 8.0385 25.0485 8.09509 25.1733 8.10054C25.2986 8.10598 25.4207 8.05972 25.5125 7.97211L27.0677 6.54367C27.1642 6.46041 27.2239 6.34123 27.2325 6.21227C27.241 6.0833 27.1983 5.95651 27.1135 5.86073C27.0293 5.76496 26.9098 5.70836 26.7839 5.70347C26.6575 5.69857 26.5349 5.74646 26.4437 5.8357L24.8874 7.26415L24.8879 7.26469Z" fill="#4CC9F0"/>
<path d="M26.7563 13.3325C26.9494 13.3325 27.1222 13.2106 27.191 13.0266C27.2598 12.8427 27.2107 12.6343 27.0672 12.5026L25.512 11.0742C25.4208 10.9866 25.2987 10.9403 25.1734 10.9457C25.048 10.9512 24.9302 11.0078 24.8464 11.103C24.7627 11.1982 24.7195 11.3234 24.7275 11.4513C24.735 11.5786 24.7931 11.6983 24.888 11.7816L26.4438 13.21C26.5296 13.2895 26.6411 13.333 26.7563 13.3325Z" fill="#4CC9F0"/>
<path d="M0.466667 10.007H2.8C3.0576 10.007 3.26667 9.79372 3.26667 9.53087C3.26667 9.26802 3.0576 9.05469 2.8 9.05469H0.466667C0.209067 9.05469 0 9.26802 0 9.53087C0 9.79372 0.209067 10.007 0.466667 10.007Z" fill="#4CC9F0"/>
<path d="M2.48799 7.96906C2.57972 8.05667 2.70185 8.10292 2.82719 8.09748C2.95252 8.09204 3.07039 8.03545 3.15412 7.94022C3.23785 7.84499 3.28105 7.71983 3.27305 7.59195C3.26505 7.46461 3.20745 7.3449 3.11252 7.26164L1.55679 5.83319C1.46612 5.74123 1.34239 5.69171 1.21492 5.69552C1.08745 5.69933 0.966386 5.75646 0.881053 5.85333C0.79572 5.95019 0.753053 6.07861 0.763186 6.20867C0.77332 6.33873 0.834653 6.45844 0.933853 6.54116L2.48799 7.9696V7.96906Z" fill="#4CC9F0"/>
<path d="M3.11101 11.7816C3.20594 11.6978 3.26354 11.5786 3.27154 11.4513C3.27901 11.3234 3.23634 11.1982 3.15261 11.103C3.06887 11.0078 2.95047 10.9512 2.82567 10.9457C2.70034 10.9403 2.57821 10.9866 2.48647 11.0742L0.931807 12.5026C0.78834 12.6343 0.739274 12.8427 0.808074 13.0266C0.876874 13.2106 1.05021 13.3319 1.24274 13.3325C1.35794 13.3325 1.46941 13.2889 1.55421 13.21L3.11047 11.7816H3.11101Z" fill="#4CC9F0"/>
<path d="M14.4685 3.8043C14.4685 4.06716 14.2594 4.28048 14.0018 4.28048C13.7442 4.28048 13.5352 4.06716 13.5352 3.8043C13.5352 3.54145 13.7442 3.32812 14.0018 3.32812C14.2594 3.32812 14.4685 3.54145 14.4685 3.8043Z" fill="#4CC9F0"/>
<path d="M9.33177 5.71055C9.33177 5.97341 9.1227 6.18673 8.8651 6.18673C8.6075 6.18673 8.39844 5.97341 8.39844 5.71055C8.39844 5.4477 8.6075 5.23438 8.8651 5.23438C9.1227 5.23438 9.33177 5.4477 9.33177 5.71055Z" fill="#4CC9F0"/>
<path d="M15.4729 8.31138C15.4729 8.30703 15.4671 8.30376 15.4649 8.29941L14.0004 5.28906L12.5359 8.29941C12.5359 8.30376 12.53 8.30703 12.5273 8.31138L14.0004 9.33986L15.4729 8.31138Z" fill="#4CC9F0"/>
<path d="M19.6013 5.71055C19.6013 5.97341 19.3922 6.18673 19.1346 6.18673C18.877 6.18673 18.668 5.97341 18.668 5.71055C18.668 5.4477 18.877 5.23438 19.1346 5.23438C19.3922 5.23438 19.6013 5.4477 19.6013 5.71055Z" fill="#4CC9F0"/>
<path d="M6.96239 15.1406L2.36719 22.8129H6.20185C6.39652 22.8129 6.57092 22.9359 6.63919 23.122L7.68239 25.9614L12.0264 17.9023C10.0957 17.5491 8.32292 16.5827 6.96239 15.1406Z" fill="#4CC9F0"/>
<path d="M20.7052 15.1797C19.7094 16.2359 18.4865 17.0418 17.134 17.5343C16.6481 17.7101 16.1484 17.8456 15.6406 17.9386L19.9862 26L21.0289 23.1605C21.0972 22.9749 21.271 22.8514 21.4657 22.8514H25.3004L20.7052 15.1797Z" fill="#4CC9F0"/>
<path d="M13.7346 10.3157L9.87109 7.61719L10.2306 12.3787H17.766L18.1255 7.61719L14.262 10.3146C14.1036 10.4256 13.8946 10.4262 13.7351 10.3157H13.7346Z" fill="#4CC9F0"/>
<path d="M21.5869 12.2376C22.7053 9.83088 22.6631 7.0308 21.4727 4.66058C20.2823 2.29036 18.0786 0.619349 15.5106 0.139973C12.9426 -0.339404 10.3021 0.427272 8.36605 2.21364C6.43005 4.00056 5.41832 6.60421 5.62899 9.25846C5.83965 11.9133 7.24872 14.3167 9.44125 15.7624C11.6338 17.2082 14.3607 17.5308 16.8199 16.6363C18.9207 15.8783 20.6375 14.2944 21.5863 12.2376H21.5869ZM9.79912 13.328C9.55485 13.3285 9.35112 13.137 9.33245 12.8883L8.89832 7.13527C8.88659 7.13527 8.87592 7.13854 8.86419 7.13854C8.43805 7.1418 8.03272 6.94809 7.76232 6.61182C7.49192 6.27555 7.38525 5.83209 7.47219 5.40604C7.55912 4.97999 7.83005 4.61705 8.20925 4.41845C8.58845 4.21984 9.03592 4.20678 9.42579 4.38362C9.81565 4.56046 10.1058 4.90707 10.2162 5.32714C10.3266 5.74721 10.2445 6.19611 9.99325 6.54762L11.7485 7.77299L13.1362 4.92231C12.8279 4.67636 12.6343 4.31071 12.6029 3.91295C12.5709 3.51519 12.7037 3.12179 12.9687 2.82851C13.2338 2.53522 13.6071 2.36817 13.9981 2.36817C14.389 2.36817 14.7623 2.53522 15.0274 2.82851C15.2925 3.12179 15.4253 3.51519 15.3933 3.91295C15.3613 4.31071 15.1677 4.67691 14.8594 4.92231L16.2471 7.77245L18.0029 6.54707C17.8279 6.30439 17.7335 6.01111 17.733 5.7102C17.733 5.33149 17.8807 4.96801 18.1431 4.7003C18.4055 4.43259 18.7618 4.28187 19.133 4.28187C19.5042 4.28187 19.8605 4.43259 20.1229 4.7003C20.3853 4.96801 20.533 5.33149 20.533 5.7102C20.533 6.08892 20.3853 6.45239 20.1229 6.7201C19.8605 6.98782 19.5042 7.13854 19.133 7.13854C19.1213 7.13854 19.1101 7.13527 19.0983 7.13527L18.6663 12.8883C18.6477 13.137 18.4445 13.3291 18.1997 13.3285H9.79912V13.328Z" fill="#4CC9F0"/>
</svg>
