<svg width="28" height="26" viewBox="0 0 28 26" fill="none" xmlns="http://www.w3.org/2000/svg">
<path d="M4.82743 18.3669C4.82743 19.6352 3.74664 20.6635 2.41372 20.6635C1.08079 20.6635 0 19.6352 0 18.3669C0 17.0987 1.08079 16.0703 2.41372 16.0703C3.74664 16.0703 4.82743 17.0987 4.82743 18.3669Z" fill="#005A9C"/>
<path d="M27.9993 2.29659C27.9993 3.56484 26.9185 4.59319 25.5856 4.59319C24.2527 4.59319 23.1719 3.56484 23.1719 2.29659C23.1719 1.02835 24.2527 0 25.5856 0C26.9185 0 27.9993 1.02835 27.9993 2.29659Z" fill="#005A9C"/>
<path d="M14.0006 3.21094C12.2081 3.21094 10.489 3.88863 9.22171 5.09441C7.95444 6.30018 7.24219 7.93588 7.24219 9.6414C7.24219 11.3469 7.95444 12.9826 9.22171 14.1884C10.489 15.3942 12.2081 16.0719 14.0006 16.0719C15.7931 16.0719 17.5122 15.3942 18.7795 14.1884C20.0467 12.9826 20.759 11.3469 20.759 9.6414C20.7568 7.93641 20.0445 6.30176 18.7773 5.09651C17.51 3.89125 15.792 3.21304 14.0006 3.21094ZM16.71 13.1621L14.0006 11.2949L11.2912 13.1642L12.3278 10.1359L9.61618 8.26292H12.965L14.0011 5.23666L15.0372 8.26292H18.3861L15.6745 10.1333L16.7111 13.1616L16.71 13.1621Z" fill="#005A9C"/>
<path d="M14.3366 9.18213L14.0017 8.20312L13.6668 9.18213H12.5938L13.4643 9.78318L13.1295 10.7601L14.0017 10.1585L14.874 10.7601L14.5391 9.78318L15.4097 9.18213H14.3366Z" fill="#005A9C"/>
<path d="M19.3078 26.0032V23.4252H15.9286V22.5066H19.3078V18.3984C18.7501 18.631 18.1277 18.6824 17.5363 18.5449C17.1943 18.4788 16.8428 18.4709 16.4975 18.5213C16.1868 18.6383 15.9005 18.8068 15.6511 19.0179C15.2004 19.4294 14.6189 19.6872 13.9977 19.7507C13.3765 19.6872 12.795 19.4294 12.3442 19.0179C12.0948 18.8063 11.8085 18.6383 11.4979 18.5213C11.1531 18.4714 10.8016 18.4793 10.459 18.5449C9.8676 18.6819 9.24528 18.6305 8.6875 18.399V20.6693H12.0667V21.5879H8.6875V26.0032L13.5149 24.4719V21.1286H14.4804V24.4719L19.3078 26.0032Z" fill="#005A9C"/>
<path d="M23.0825 10.6516C23.3715 10.3739 23.5696 10.0216 23.6524 9.63845C23.5696 9.25524 23.3715 8.90354 23.083 8.62532C22.7779 8.29566 22.5434 7.91246 22.3934 7.49724C22.3018 7.05366 22.3018 6.59697 22.3934 6.15393C22.4927 5.78909 22.4811 5.40484 22.3608 5.04579C22.091 4.7618 21.7413 4.55655 21.3529 4.45471C20.9076 4.3114 20.4966 4.08673 20.1424 3.79329C19.834 3.45576 19.5973 3.06468 19.4467 2.64158C19.3397 2.27203 19.124 1.93869 18.8249 1.682C18.447 1.56756 18.0432 1.55654 17.6592 1.65103C17.193 1.73817 16.7136 1.73817 16.2474 1.65103C15.811 1.50825 15.4082 1.28515 15.0617 0.994858C14.7699 0.719792 14.4003 0.531865 13.9975 0.453125C13.5948 0.531865 13.2246 0.720317 12.9327 0.995383C12.5862 1.28567 12.1835 1.50825 11.7471 1.65155C11.2809 1.73869 10.8015 1.73869 10.3353 1.65155C9.95184 1.55654 9.54744 1.56756 9.17008 1.68252C8.87105 1.93922 8.65589 2.27203 8.54941 2.64106C8.39879 3.06468 8.16211 3.45576 7.85426 3.79276C7.49951 4.0862 7.08849 4.3114 6.64381 4.45471C6.25541 4.55655 5.90563 4.7618 5.63585 5.04631C5.51502 5.40537 5.50344 5.79014 5.60219 6.1555C5.69378 6.59907 5.69378 7.05524 5.60219 7.49828C5.45213 7.91351 5.2182 8.29671 4.91311 8.62637C4.62402 8.90406 4.42651 9.25629 4.34375 9.63897C4.42651 10.0222 4.62457 10.3739 4.91311 10.6521C5.2182 10.9818 5.45268 11.365 5.60274 11.7802C5.69433 12.2238 5.69433 12.6804 5.60274 13.1235C5.50344 13.4883 5.51502 13.8726 5.63529 14.2316C5.90508 14.5156 6.25486 14.7209 6.64326 14.8227C7.08849 14.966 7.49951 15.1907 7.8537 15.4841C8.16211 15.8217 8.39879 16.2127 8.54941 16.6364C8.65644 17.0059 8.87215 17.3393 9.17118 17.5959C9.5491 17.7104 9.95295 17.7214 10.3369 17.6269C10.6095 17.5875 10.8848 17.565 11.1606 17.5592C11.3592 17.5571 11.5568 17.5797 11.7493 17.6264C12.1857 17.7692 12.5884 17.9923 12.9349 18.2826C13.2268 18.5576 13.5964 18.7461 13.9992 18.8248C14.4019 18.7461 14.7721 18.5576 15.064 18.2826C15.4104 17.9923 15.8132 17.7697 16.2496 17.6264C16.7158 17.5393 17.1952 17.5393 17.6614 17.6264C18.0448 17.7209 18.4492 17.7099 18.8266 17.5954C19.1256 17.3387 19.3408 17.0059 19.4473 16.6369C19.5979 16.2133 19.8346 15.8222 20.143 15.4852C20.4977 15.1917 20.9087 14.9665 21.354 14.8232C21.7424 14.7214 22.0921 14.5161 22.3619 14.2316C22.4827 13.8726 22.4943 13.4878 22.3956 13.1224C22.304 12.6789 22.304 12.2227 22.3956 11.7797C22.5456 11.3644 22.7796 10.9818 23.0841 10.6521L23.0825 10.6516ZM16.8603 16.4631C14.4814 17.3665 11.7857 17.0889 9.66496 15.7214C7.5442 14.3545 6.27417 12.0757 6.27362 9.63792C6.27362 7.84947 6.95884 6.12243 8.20128 4.78017C9.44372 3.43791 11.1579 2.57281 13.0221 2.34709C14.8869 2.12137 16.7737 2.55024 18.3301 3.55339C19.8859 4.55655 21.0042 6.06521 21.4753 7.79697C21.9459 9.52821 21.7374 11.3639 20.8872 12.9592C20.0376 14.5545 18.6059 15.8007 16.8598 16.4631H16.8603Z" fill="#005A9C"/>
</svg>
