<svg width="26" height="32" viewBox="0 0 26 32" fill="none" xmlns="http://www.w3.org/2000/svg">
<g clip-path="url(#clip0_1118_11364)">
<path d="M24.0918 8.308C24.1017 6.65771 23.4668 5.008 22.1906 3.75029C20.9208 2.5 19.2581 1.87543 17.5955 1.87543C16.4191 0.717143 14.7941 0 12.9997 0C11.2053 0 9.578 0.717143 8.40222 1.87486C6.73896 1.87486 5.07569 2.5 3.80648 3.74971C2.53668 4.99771 1.90237 6.636 1.90237 8.27486C0.726591 9.43314 0 11.0331 0 12.8C0 14.5669 0.726591 16.1669 1.90237 17.3251C1.90237 20.0651 3.55229 21.8194 4.75998 22.6257L1.62438 28.8L6.49927 27.2L8.12424 32L11.4653 25.4194C12.4635 25.6571 13.5905 25.6434 14.5324 25.4194L17.874 32L19.499 27.2L24.3739 28.8L21.2377 22.6257C22.9619 21.4749 24.0941 19.5297 24.0941 17.3251C24.0941 17.316 24.0912 17.3051 24.0912 17.2971C25.0593 16.3394 25.7446 15.0909 25.942 13.6491C26.2211 11.6006 25.4643 9.66743 24.0912 8.308H24.0918ZM12.9997 21.6C8.07201 21.6 4.06241 17.6526 4.06241 12.8C4.06241 7.94743 8.07201 4 12.9997 4C17.9274 4 21.937 7.94743 21.937 12.8C21.937 17.6526 17.9286 21.6 12.9997 21.6ZM20.2662 12C19.8907 8.668 17.1962 6.01486 13.8122 5.64514V8.00057H12.1872V5.64571C8.80266 6.01543 6.1087 8.66914 5.73322 12.0006H8.1254V13.6006H5.7338C6.10928 16.9326 8.80382 19.5857 12.1878 19.9554V17.6006H13.8128V19.9554C17.1968 19.5857 19.8913 16.932 20.2668 13.6006H17.8752V12.0006H20.2668L20.2662 12ZM15.3513 15.6423C15.5521 16.0371 15.3896 16.5183 14.9874 16.7154C14.6943 16.86 14.1366 16.8274 13.8975 16.3577L12.2725 13.1577C12.0897 12.7966 12.2075 12.3583 12.5488 12.1343L17.4237 8.93429C17.798 8.688 18.3029 8.788 18.5501 9.156C18.7997 9.524 18.6993 10.0211 18.3249 10.2651L14.0466 13.0737L15.3507 15.6423H15.3513Z" fill="#F18F01"/>
</g>
<defs>
<clipPath id="clip0_1118_11364">
<rect width="26" height="32" fill="white"/>
</clipPath>
</defs>
</svg>
