<svg width="28" height="28" viewBox="0 0 28 28" fill="none" xmlns="http://www.w3.org/2000/svg">
<g clip-path="url(#clip0_1118_11371)">
<path d="M26.8503 11.7843C26.1164 11.271 25.8576 10.3037 26.2352 9.48923C26.6085 8.67898 26.5703 7.77115 26.1206 6.99907C25.6752 6.22699 24.9115 5.73914 24.0248 5.65854C23.1297 5.58218 22.4212 4.87374 22.3406 3.97864C22.26 3.08778 21.7721 2.32472 21 1.87929C20.2279 1.43386 19.32 1.39144 18.5097 1.76899C17.6952 2.1423 16.7321 1.88353 16.2103 1.14539C15.697 0.419976 14.8909 0 14 0C13.1091 0 12.303 0.419976 11.7855 1.15387C11.2721 1.88353 10.3048 2.1423 9.4903 1.76475C8.68 1.39144 7.77212 1.43386 7 1.87929C6.22788 2.32472 5.74 3.09255 5.65939 3.97917C5.57879 4.87427 4.87455 5.57847 3.97939 5.65907C3.08849 5.73967 2.32485 6.22753 1.87939 6.9996C1.43394 7.77168 1.39152 8.67951 1.76909 9.48976C2.14242 10.3043 1.88364 11.2715 1.14545 11.789C0.42 12.3018 0 13.1078 0 13.9987C0 14.8895 0.42 15.6955 1.15394 16.2131C1.88364 16.7306 2.14242 17.6936 1.76485 18.5124C1.39152 19.3184 1.43394 20.2262 1.87939 20.9983C2.32485 21.7704 3.08849 22.2582 3.97939 22.3388C4.87455 22.4194 5.57879 23.1279 5.65939 24.023C5.82803 25.8768 7.77371 27.0238 9.4903 26.2331C10.3048 25.8556 11.2679 26.1143 11.7897 26.8525C12.862 28.3765 15.128 28.3887 16.2145 26.8482C16.7321 26.1143 17.6952 25.8556 18.5139 26.2331C20.221 27.0238 22.172 25.8805 22.3406 24.023C22.4212 23.1279 23.1297 22.4194 24.0248 22.3388C24.9115 22.2582 25.6752 21.7704 26.1248 20.9983C26.5703 20.2262 26.6085 19.3226 26.2352 18.5081C25.8576 17.6936 26.1164 16.7306 26.8461 16.2173L26.8503 16.2131C26.8545 16.2131 26.8545 16.2089 26.8545 16.2089C27.5842 15.6961 28 14.8901 28 13.9992C28 13.1083 27.5842 12.3023 26.8503 11.7848V11.7843ZM24.6188 15.8748C24.0365 16.2857 23.8345 17.0403 24.1283 17.6756C24.4475 18.366 24.4125 19.137 24.0328 19.7935C23.6536 20.4494 23.0035 20.8646 22.2483 20.9325C21.5489 20.9951 20.9963 21.5482 20.9332 22.2471C20.8653 23.0022 20.4501 23.6523 19.7941 24.032C19.1376 24.4111 18.3665 24.4461 17.6787 24.1279C17.0413 23.8326 16.2867 24.0346 15.8826 24.6073C15.4424 25.2309 14.7578 25.5857 14.0005 25.5857C13.2433 25.5857 12.5586 25.2309 12.1222 24.6121C11.7155 24.0346 10.9598 23.8326 10.325 24.1264C9.63348 24.4461 8.86348 24.4106 8.20697 24.0314C7.55045 23.6523 7.13576 23.0016 7.06788 22.2465C7.00477 21.5471 6.4522 20.994 5.75326 20.9315C4.99811 20.8636 4.34742 20.4479 3.96826 19.7919C3.58909 19.1354 3.55462 18.3649 3.8728 17.6766C4.16712 17.0393 3.96561 16.2847 3.39341 15.8811C2.76924 15.441 2.41447 14.7564 2.41447 13.9992C2.41447 13.242 2.76977 12.5569 3.38864 12.1204C3.96614 11.7132 4.16765 10.9586 3.87439 10.3228C3.55515 9.63241 3.58962 8.86139 3.96932 8.20544C4.34848 7.54897 4.99864 7.13376 5.75379 7.06589C6.45326 7.00331 7.00636 6.45024 7.06947 5.75134C7.13735 4.99623 7.55258 4.34612 8.20856 3.96644C8.86508 3.5873 9.63561 3.5523 10.3239 3.87046C10.9608 4.16529 11.716 3.96326 12.1195 3.3911C12.5597 2.76696 13.2448 2.41221 14.0016 2.41221C14.7583 2.41221 15.444 2.76696 15.8805 3.38579C16.2877 3.96379 17.0423 4.16476 17.6777 3.87152C18.3681 3.5523 19.1386 3.5873 19.7957 3.96697C20.4522 4.34612 20.8669 4.99676 20.9348 5.75187C20.9973 6.45077 21.5505 7.00384 22.2499 7.06695C23.0045 7.13482 23.6552 7.55003 24.0344 8.2065C24.4141 8.86298 24.4486 9.63347 24.1304 10.3218C24.1283 10.3265 24.1261 10.3313 24.124 10.3355C23.8382 10.9687 24.0413 11.7164 24.6098 12.1173C25.2339 12.5569 25.5887 13.242 25.5887 13.9992C25.5887 14.7564 25.2355 15.4373 24.6199 15.8737L24.6188 15.8748Z" fill="#005A9C"/>
<path d="M24.1264 12.8151C23.2101 12.1703 22.8919 10.974 23.3586 9.96861C23.3586 9.96437 23.3628 9.96012 23.3628 9.95588C23.558 9.52318 23.5368 9.04381 23.2992 8.63232C23.0574 8.21659 22.6501 7.95357 22.1707 7.91115C21.0634 7.81358 20.1895 6.93545 20.0877 5.82824C20.0452 5.35311 19.7822 4.94162 19.3707 4.70406C18.9549 4.46226 18.4671 4.44105 18.0343 4.64043C17.0246 5.11131 15.8283 4.7889 15.1877 3.88108C14.9119 3.48655 14.4792 3.26172 13.9998 3.26172C13.5204 3.26172 13.0919 3.48655 12.8161 3.87684C12.1713 4.7889 10.9749 5.10707 9.96948 4.64467C9.53251 4.44105 9.04463 4.46226 8.63312 4.70406C8.21736 4.94162 7.95433 5.35311 7.9119 5.82824C7.81433 6.93545 6.93615 7.81358 5.82887 7.91115C5.35372 7.95357 4.94221 8.21659 4.70463 8.63232C4.46281 9.04381 4.4416 9.53166 4.64099 9.96437C5.10766 10.974 4.78948 12.1703 3.8816 12.8109C3.48706 13.0909 3.26221 13.5236 3.26221 13.9987C3.26221 14.4738 3.48706 14.9108 3.87736 15.1865C4.78948 15.8271 5.10766 17.0234 4.64099 18.033C4.4416 18.4657 4.46281 18.9536 4.70463 19.3693C4.94221 19.7808 5.35372 20.0438 5.82887 20.0862C6.93615 20.188 7.81433 21.0619 7.9119 22.1691C7.95433 22.6485 8.21736 23.0557 8.63312 23.2975C9.04463 23.5351 9.53251 23.5606 9.96524 23.3569C10.2792 23.2127 10.6058 23.1448 10.9325 23.1448C11.6622 23.1448 12.3707 23.4927 12.8119 24.1163C13.0919 24.5151 13.5246 24.7356 13.9998 24.7356C14.4749 24.7356 14.9119 24.5151 15.1877 24.1248C15.8283 23.2127 17.0246 22.8903 18.0343 23.3569C18.4671 23.5606 18.9549 23.5351 19.3707 23.2975C19.7822 23.0557 20.0452 22.6485 20.0877 22.1734C20.1895 21.0619 21.0634 20.188 22.1707 20.0862C22.6501 20.0438 23.0574 19.7808 23.2992 19.3693C23.5368 18.9536 23.558 18.4699 23.3586 18.033C22.8919 17.0234 23.2101 15.8271 24.118 15.1907L24.1264 15.1865C24.5168 14.9108 24.7374 14.478 24.7374 13.9987C24.7374 13.5236 24.5168 13.0909 24.1264 12.8151ZM7.08039 19.3141V12.4291H10.1816C10.2352 12.4291 10.285 12.4423 10.3343 12.4556V19.2924C10.2855 19.3057 10.2346 19.3141 10.1816 19.3141H7.08039ZM20.3549 12.9636H19.5871C19.5743 12.9636 19.5701 12.9721 19.5574 12.9721C20.1598 12.989 20.6095 13.443 20.6095 14.0199C20.6095 14.565 20.1762 15.055 19.5828 15.055H19.061C19.6422 15.055 20.0961 15.5259 20.0961 16.0901C20.0961 16.6543 19.656 17.1209 19.061 17.1209H18.4204C18.8446 17.2482 19.1671 17.6342 19.1671 18.1051C19.1671 18.6773 18.7423 19.1445 18.1361 19.1445L12.0907 19.1821C11.7937 19.1821 11.5137 19.0973 11.2719 18.9064C11.2475 18.8867 11.2274 18.8629 11.204 18.8422V12.2541C11.6421 11.4115 13.7362 9.53166 13.338 6.16708C13.338 6.16708 13.6392 6.00164 14.0252 6.00164C15.0848 6.00164 16.2371 7.42701 15.5143 9.77718C15.3955 10.1378 15.298 10.528 15.3361 10.9056H20.3549C20.9595 10.9056 21.3816 11.4083 21.3816 11.9322C21.3816 12.5054 20.9192 12.9631 20.3549 12.9631V12.9636Z" fill="#005A9C"/>
</g>
<defs>
<clipPath id="clip0_1118_11371">
<rect width="28" height="28" fill="white"/>
</clipPath>
</defs>
</svg>
