<svg width="30" height="22" viewBox="0 0 30 22" fill="none" xmlns="http://www.w3.org/2000/svg">
<g clip-path="url(#clip0_1118_11381)">
<path d="M13.7427 20.2952C13.3965 20.1646 13.2391 20.0993 12.8929 19.9686C13.0188 19.544 13.0818 18.8581 12.83 18.1395C12.5467 17.3229 11.9802 16.6697 11.6655 16.3104C11.5396 16.1797 11.3822 16.1797 11.2878 16.3104C11.0675 16.6697 10.6898 17.3883 10.9101 18.2701C11.0045 18.6294 11.1619 18.9561 11.3822 19.25C10.6583 18.8581 10.3436 18.6294 9.68261 18.1395C9.90293 17.7475 10.1232 17.0943 10.0603 16.3757C9.99735 15.5265 9.58819 14.7426 9.39935 14.3506C9.3364 14.22 9.14756 14.1547 9.02167 14.2853C8.7384 14.5793 8.20335 15.1999 8.20335 16.0818C8.20335 16.441 8.29777 16.8003 8.42367 17.127C7.82567 16.5717 7.57388 16.2777 7.03883 15.6898C7.32209 15.3632 7.69977 14.8079 7.82567 14.0567C7.95156 13.2074 7.76272 12.3909 7.63683 11.9336C7.60535 11.7703 7.41651 11.705 7.29062 11.7703C6.94441 11.9989 6.28346 12.4562 6.09462 13.3054C6.0002 13.6647 6.03167 14.024 6.06314 14.3833C5.62251 13.73 5.43367 13.3708 5.05599 12.6522C5.4022 12.3909 5.90578 11.9336 6.18904 11.2477C6.50378 10.4638 6.50378 9.61456 6.4723 9.15729C6.4723 8.99397 6.31493 8.86332 6.18904 8.92865C5.81136 9.0593 5.05599 9.35326 4.6783 10.1372C4.52094 10.4638 4.45799 10.8231 4.42652 11.1824C4.14325 10.4311 4.01736 10.0392 3.82852 9.25527C4.23767 9.09196 4.8042 8.76534 5.24483 8.17741C5.71693 7.4915 5.90578 6.64227 6.0002 6.18499C6.03167 6.02168 5.90578 5.85837 5.77988 5.89103C5.37072 5.92369 4.58388 6.05434 4.04883 6.70759C3.82852 7.00156 3.67115 7.32818 3.57673 7.68747C3.48231 6.87091 3.45083 6.47896 3.41936 5.62973C3.85999 5.5644 4.48946 5.40109 5.02451 4.91115C5.65399 4.35589 6.03167 3.53932 6.22051 3.08205C6.28346 2.91873 6.22051 2.75542 6.06314 2.72276C5.65399 2.65743 4.86715 2.59211 4.17473 3.11471C3.89146 3.34335 3.67115 3.63731 3.48231 3.96394C3.57673 3.04938 3.63967 2.59211 3.85999 1.67756C3.92294 1.35093 3.82852 1.05697 3.6082 0.991641C3.38788 0.926316 3.1361 1.15495 3.07315 1.48158C2.85283 2.42879 2.75841 2.91873 2.66399 3.86595C2.5381 3.50666 2.4122 3.11471 2.22336 2.78808C1.75126 1.93886 1.05884 1.61223 0.649678 1.48158C0.523784 1.44892 0.366415 1.64489 0.334942 1.90619C0.303468 2.59211 0.429363 3.89861 0.995888 4.71518C1.49947 5.40109 2.16041 5.59707 2.56957 5.62973C2.56957 6.51162 2.60104 6.93623 2.72694 7.78546C2.5381 7.45883 2.31778 7.13221 2.03452 6.87091C1.37357 6.21765 0.618205 6.05434 0.209047 6.02168C0.051679 6.02168 -0.042742 6.25032 0.0202053 6.47896C0.177574 7.13221 0.586731 8.34072 1.31062 8.96131C1.9401 9.51658 2.63252 9.51658 3.04167 9.45125C3.23052 10.2678 3.35641 10.6924 3.67115 11.4763C3.41936 11.215 3.1361 10.9537 2.82136 10.7578C2.03452 10.2678 1.24768 10.3005 0.869994 10.3985C0.712625 10.4311 0.681152 10.6924 0.775573 10.8884C1.05884 11.4763 1.71978 12.5215 2.56957 12.9461C3.29346 13.3054 3.95441 13.1748 4.36357 13.0115C4.74125 13.7627 4.96157 14.122 5.43367 14.8406C5.11894 14.6446 4.8042 14.4486 4.42652 14.3506C3.54525 14.0567 2.82136 14.2853 2.44368 14.4813C2.31778 14.5466 2.31778 14.8079 2.47515 14.9712C2.88431 15.4938 3.76557 16.3431 4.6783 16.5717C5.46515 16.7677 6.09462 16.441 6.44083 16.2124C6.97588 16.8657 7.25914 17.1596 7.88862 17.7475C7.54241 17.6169 7.16472 17.5189 6.78704 17.5189C5.8743 17.4536 5.21336 17.8455 4.89862 18.1068C4.77273 18.2048 4.83567 18.4335 5.02451 18.5968C5.52809 18.9887 6.5982 19.642 7.54241 19.642C8.36072 19.642 8.89577 19.1847 9.17904 18.8581C9.87146 19.3807 10.2177 19.6093 10.973 20.0013C10.5953 19.9686 10.2177 19.9686 9.83998 20.0339C8.92725 20.1972 8.36072 20.7198 8.10893 21.0465C8.01451 21.1771 8.1404 21.4058 8.36072 21.5037C8.95872 21.765 10.1547 22.157 11.0989 21.9284C11.9172 21.7324 12.3264 21.1771 12.5467 20.7852C12.8929 20.9485 13.0818 21.0138 13.4594 21.1445C13.7742 21.2424 14.0889 21.1445 14.1519 20.9158C14.2469 20.6545 14.0265 20.3932 13.7433 20.2952H13.7427Z" fill="#4CC9F0"/>
<path d="M28.6929 8.99256C29.4168 8.37197 29.8259 7.16346 29.9833 6.51021C30.0463 6.28157 29.9204 6.02027 29.7945 6.05293C29.3853 6.05293 28.6299 6.21624 27.969 6.90216C27.7172 7.16346 27.4654 7.49008 27.2766 7.81671C27.4025 6.96748 27.4339 6.54287 27.4339 5.66098C27.8746 5.59565 28.5355 5.43234 29.0076 4.74643C29.5741 3.96252 29.7 2.65602 29.6686 1.93744C29.6686 1.67614 29.5112 1.48017 29.3538 1.51283C28.9761 1.64348 28.2523 1.97011 27.7801 2.81933C27.5913 3.14596 27.4339 3.53791 27.3395 3.8972C27.2451 2.94998 27.1822 2.46005 26.9304 1.51283C26.8359 1.1862 26.5842 0.957566 26.3953 1.02289C26.175 1.08822 26.0806 1.41484 26.1435 1.70881C26.3638 2.62336 26.4268 3.08063 26.5212 3.99519C26.3324 3.66856 26.112 3.3746 25.8288 3.14596C25.1364 2.5907 24.3495 2.65602 23.9404 2.75401C23.783 2.78667 23.72 2.94998 23.783 3.1133C23.9718 3.53791 24.3495 4.35448 24.979 4.9424C25.514 5.43234 26.175 5.62832 26.5842 5.66098C26.5842 6.47754 26.5527 6.90216 26.4268 7.71872C26.3324 7.35943 26.175 7.03281 25.9547 6.73884C25.4196 6.05293 24.6328 5.92228 24.2236 5.92228C24.0663 5.92228 23.9718 6.05293 24.0033 6.21624C24.0977 6.67352 24.2551 7.52275 24.7587 8.20866C25.1678 8.79659 25.7658 9.12321 26.175 9.28653C25.9862 10.0704 25.8603 10.4624 25.577 11.2136C25.5455 10.8543 25.4826 10.495 25.3252 10.1684C24.9475 9.38451 24.1922 9.09055 23.8145 8.9599C23.6886 8.92724 23.5312 9.02523 23.5312 9.18854C23.4997 9.64581 23.4997 10.5277 23.8145 11.2789C24.0977 11.9649 24.5698 12.4221 24.9475 12.6834C24.6013 13.402 24.381 13.7613 23.9404 14.4146C24.0033 14.0553 24.0033 13.696 23.9089 13.3367C23.72 12.4875 23.0591 11.9975 22.7129 11.8015C22.587 11.7362 22.4296 11.8015 22.3667 11.9649C22.2408 12.3895 22.0519 13.2387 22.1778 14.0879C22.3037 14.8065 22.6814 15.3944 22.9647 15.7211C22.4611 16.3416 22.1778 16.6356 21.5798 17.1582C21.7057 16.8316 21.8002 16.4723 21.8002 16.113C21.8002 15.2311 21.2651 14.6105 20.9818 14.3166C20.8874 14.2186 20.6986 14.2512 20.6042 14.3819C20.3838 14.7738 20.0062 15.5577 19.9432 16.407C19.8803 17.1582 20.1321 17.7788 20.3209 18.1707C19.6914 18.6607 19.3452 18.8893 18.6213 19.2813C18.8416 18.9873 19.0305 18.6607 19.0934 18.3014C19.3137 17.4195 18.9361 16.7009 18.7157 16.3416C18.6528 16.211 18.464 16.211 18.3381 16.3416C18.0233 16.6683 17.4568 17.3542 17.1735 18.1707C16.9217 18.8893 17.0162 19.5752 17.1106 19.9999C16.7644 20.1305 16.607 20.1958 16.2608 20.3265C15.9461 20.4245 15.7572 20.6858 15.8202 20.9144C15.8831 21.143 16.1978 21.241 16.5126 21.143C16.8903 21.0124 17.0476 20.9471 17.4253 20.7838C17.6456 21.1757 18.0548 21.731 18.8731 21.9269C19.8173 22.1556 21.0133 21.7963 21.6113 21.5023C21.8316 21.4043 21.9575 21.1757 21.8631 21.0451C21.6113 20.7184 21.0448 20.1632 20.1321 20.0325C19.7544 19.9672 19.3767 19.9672 18.999 19.9999C19.7544 19.5752 20.1006 19.3466 20.793 18.8567C21.0763 19.1833 21.6113 19.6406 22.4296 19.6406C23.3738 19.6406 24.4439 19.02 24.9475 18.5954C25.1364 18.4647 25.1993 18.2034 25.0734 18.1054C24.7587 17.8441 24.0663 17.4522 23.185 17.5175C22.8073 17.5502 22.4296 17.6481 22.0834 17.7461C22.7129 17.1582 22.9962 16.8642 23.5312 16.211C23.8774 16.4723 24.5069 16.7663 25.2937 16.5703C26.2065 16.3743 27.0877 15.4924 27.4969 14.9698C27.6543 14.7738 27.6543 14.5452 27.5284 14.4799C27.1507 14.2839 26.4268 14.0879 25.5455 14.3492C25.1993 14.4472 24.8531 14.6432 24.5384 14.8392C25.0105 14.1533 25.2308 13.7613 25.6085 13.0101C26.0176 13.1734 26.6786 13.3367 27.4025 12.9447C28.2523 12.5201 28.9132 11.4749 29.1965 10.887C29.2909 10.6584 29.2594 10.4297 29.102 10.3971C28.6929 10.2991 27.9375 10.2664 27.1507 10.7563C26.8359 10.9523 26.5527 11.2136 26.3009 11.4749C26.6156 10.691 26.7415 10.2664 26.9304 9.44984C27.3716 9.51516 28.064 9.51516 28.6934 8.99256H28.6929Z" fill="#4CC9F0"/>
<path d="M21.4537 5.95592C21.139 2.88564 18.7155 0.403868 15.757 0.0439963C11.8543 -0.41328 8.51807 2.75499 8.51807 6.70716C8.51807 9.71212 10.438 12.2598 13.0817 13.109L14.4666 15.9507C14.6869 16.4079 15.3164 16.4079 15.5367 15.9507L16.9215 13.109C19.7856 12.1618 21.8314 9.28751 21.4537 5.95592ZM16.6697 9.94076L15.1905 9.05887C15.0961 8.99354 15.0016 8.99354 14.9072 9.05887L13.428 9.94076C13.0817 10.1367 12.6411 9.84277 12.7355 9.41816L13.0817 7.68704C13.1132 7.58905 13.0817 7.49107 12.9873 7.39308L11.7284 6.18456C11.4136 5.8906 11.6025 5.368 12.0116 5.33533L13.7112 5.13936C13.8056 5.13936 13.9001 5.07403 13.9315 4.97605L14.624 3.34292C14.7813 2.95097 15.3164 2.95097 15.5052 3.34292L16.2291 4.97605C16.2606 5.07403 16.355 5.13936 16.4494 5.13936L18.149 5.33533C18.5582 5.368 18.7155 5.92326 18.4323 6.18456L17.1733 7.39308C17.1104 7.4584 17.0789 7.55639 17.0789 7.68704L17.4251 9.41816C17.4566 9.81011 17.016 10.1367 16.6697 9.94076Z" fill="#4CC9F0"/>
</g>
<defs>
<clipPath id="clip0_1118_11381">
<rect width="30" height="22" fill="white"/>
</clipPath>
</defs>
</svg>
