<svg width="203" height="42" viewBox="0 0 203 42" fill="none" xmlns="http://www.w3.org/2000/svg">
    <path d="M16.3491 7.4668V10.9134H3.95604V34.0034H0V7.4668H16.3491Z" fill="#505050"/>
    <path d="M18.4583 41.4668V14.1009H22.1967V17.3273H22.5168C22.7387 16.9127 23.0587 16.4333 23.477 15.8891C23.8952 15.3448 24.4756 14.8697 25.2181 14.4637C25.9607 14.0491 26.9422 13.8418 28.1628 13.8418C29.7503 13.8418 31.1671 14.2478 32.4132 15.0598C33.6594 15.8718 34.6367 17.0423 35.3451 18.5712C36.062 20.1002 36.4205 21.9401 36.4205 24.091C36.4205 26.2419 36.0663 28.0862 35.3579 29.6238C34.6495 31.1528 33.6764 32.3319 32.4389 33.1612C31.2013 33.9818 29.7887 34.3921 28.2012 34.3921C27.0062 34.3921 26.029 34.1891 25.2693 33.7831C24.5182 33.3771 23.9293 32.902 23.5026 32.3578C23.0758 31.8136 22.7472 31.3299 22.5168 30.9066H22.2863V41.4668H18.4583ZM22.2095 24.0522C22.2095 25.4516 22.4101 26.6782 22.8112 27.732C23.2124 28.7859 23.7928 29.6109 24.5524 30.2069C25.312 30.7943 26.2423 31.088 27.3434 31.088C28.4871 31.088 29.443 30.7813 30.2112 30.168C30.9793 29.5461 31.5597 28.7038 31.9524 27.6413C32.3535 26.5788 32.5541 25.3824 32.5541 24.0522C32.5541 22.7392 32.3578 21.56 31.9652 20.5148C31.5811 19.4696 31.0007 18.6446 30.224 18.04C29.4558 17.4353 28.4956 17.133 27.3434 17.133C26.2338 17.133 25.2949 17.4223 24.5268 18.0011C23.7672 18.5799 23.191 19.3875 22.7984 20.4241C22.4058 21.4607 22.2095 22.67 22.2095 24.0522Z" fill="#505050"/>
    <path d="M46.4322 34.4439C45.1861 34.4439 44.0594 34.2107 43.0523 33.7442C42.0452 33.2691 41.2471 32.5824 40.6582 31.684C40.0778 30.7856 39.7876 29.6843 39.7876 28.3799C39.7876 27.2569 40.001 26.3326 40.4277 25.607C40.8545 24.8814 41.4306 24.307 42.1561 23.8837C42.8816 23.4604 43.6924 23.1408 44.5886 22.9249C45.4848 22.7089 46.3981 22.5448 47.3284 22.4325C48.5063 22.2943 49.4622 22.182 50.1962 22.0956C50.9302 22.0006 51.4637 21.8494 51.7965 21.6421C52.1294 21.4348 52.2959 21.0979 52.2959 20.6314V20.5407C52.2959 19.4091 51.9801 18.5323 51.3485 17.9104C50.7254 17.2884 49.7951 16.9775 48.5575 16.9775C47.2687 16.9775 46.253 17.2668 45.5104 17.8456C44.7764 18.4157 44.2686 19.0506 43.9869 19.7503L40.3893 18.9211C40.8161 17.7117 41.4392 16.7356 42.2585 15.9927C43.0864 15.2412 44.0381 14.697 45.1135 14.3601C46.189 14.0146 47.3199 13.8418 48.5062 13.8418C49.2915 13.8418 50.1237 13.9368 51.0028 14.1269C51.8904 14.3083 52.7183 14.6452 53.4865 15.1375C54.2632 15.6299 54.8991 16.3339 55.3941 17.2496C55.8891 18.1566 56.1367 19.3357 56.1367 20.7869V34.0034H52.3983V31.2823H52.2446C51.9971 31.7834 51.6258 32.2757 51.1308 32.7595C50.6358 33.2432 49.9999 33.6449 49.2232 33.9645C48.4465 34.2841 47.5162 34.4439 46.4322 34.4439ZM47.2644 31.3342C48.3227 31.3342 49.2275 31.1225 49.9786 30.6993C50.7382 30.276 51.3143 29.7231 51.7069 29.0407C52.1081 28.3497 52.3087 27.6111 52.3087 26.825V24.2595C52.1721 24.3977 51.9075 24.5273 51.5149 24.6482C51.1308 24.7605 50.6912 24.8598 50.1962 24.9462C49.7012 25.024 49.2189 25.0974 48.7495 25.1665C48.2801 25.227 47.8875 25.2788 47.5717 25.322C46.8291 25.417 46.1506 25.5768 45.536 25.8014C44.93 26.026 44.4435 26.3499 44.0765 26.7732C43.718 27.1878 43.5388 27.7407 43.5388 28.4317C43.5388 29.3906 43.8887 30.1162 44.5886 30.6086C45.2885 31.0923 46.1804 31.3342 47.2644 31.3342Z" fill="#505050"/>
    <path d="M74.563 22.3807V25.7366H63.9111V22.3807H74.563ZM64.9865 14.1009V34.0034H61.2353V14.1009H64.9865ZM77.2387 14.1009V34.0034H73.5003V14.1009H77.2387Z" fill="#505050"/>
    <path d="M93.9463 21.1109V24.4668H82.3214V21.1109H93.9463Z" fill="#505050"/>
    <path d="M99.0481 34.0034V14.1009H115.09V34.0034H111.339V17.4439H102.774V34.0034H99.0481Z" fill="#505050"/>
    <path d="M120.208 41.4668V14.1009H123.946V17.3273H124.266C124.488 16.9127 124.808 16.4333 125.226 15.8891C125.645 15.3448 126.225 14.8697 126.968 14.4637C127.71 14.0491 128.692 13.8418 129.912 13.8418C131.5 13.8418 132.917 14.2478 134.163 15.0598C135.409 15.8718 136.386 17.0423 137.095 18.5712C137.812 20.1002 138.17 21.9401 138.17 24.091C138.17 26.2419 137.816 28.0862 137.107 29.6238C136.399 31.1528 135.426 32.3319 134.188 33.1612C132.951 33.9818 131.538 34.3921 129.951 34.3921C128.756 34.3921 127.778 34.1891 127.019 33.7831C126.268 33.3771 125.679 32.902 125.252 32.3578C124.825 31.8136 124.497 31.3299 124.266 30.9066H124.036V41.4668H120.208ZM123.959 24.0522C123.959 25.4516 124.16 26.6782 124.561 27.732C124.962 28.7859 125.542 29.6109 126.302 30.2069C127.062 30.7943 127.992 31.088 129.093 31.088C130.237 31.088 131.193 30.7813 131.961 30.168C132.729 29.5461 133.309 28.7038 133.702 27.6413C134.103 26.5788 134.304 25.3824 134.304 24.0522C134.304 22.7392 134.107 21.56 133.715 20.5148C133.331 19.4696 132.75 18.6446 131.973 18.04C131.205 17.4353 130.245 17.133 129.093 17.133C127.983 17.133 127.044 17.4223 126.276 18.0011C125.517 18.5799 124.941 19.3875 124.548 20.4241C124.155 21.4607 123.959 22.67 123.959 24.0522Z" fill="#505050"/>
    <path d="M146.21 28.5743L154.878 14.1009H159V34.0034H155.249V19.5171L146.62 34.0034H142.459V14.1009H146.21V28.5743Z" fill="#505050"/>
    <path d="M103.732 0V7.80488H102.712V1.0061H99.5199V7.80488H98.5V0H103.732Z" fill="#505050"/>
    <path d="M105.217 10V1.95122H106.184V2.90015H106.267C106.324 2.7782 106.407 2.6372 106.515 2.47713C106.624 2.31707 106.774 2.17734 106.966 2.05793C107.158 1.93598 107.412 1.875 107.727 1.875C108.138 1.875 108.504 1.99441 108.827 2.23323C109.149 2.47205 109.402 2.81631 109.585 3.26601C109.77 3.7157 109.863 4.25686 109.863 4.88948C109.863 5.5221 109.772 6.06453 109.588 6.51677C109.405 6.96646 109.153 7.31326 108.833 7.55716C108.513 7.79853 108.148 7.91921 107.737 7.91921C107.428 7.91921 107.175 7.8595 106.979 7.74009C106.785 7.62068 106.632 7.48094 106.522 7.32088C106.412 7.16082 106.327 7.01855 106.267 6.89405H106.207V10H105.217ZM106.187 4.87805C106.187 5.28963 106.239 5.65041 106.343 5.96037C106.447 6.27033 106.597 6.51296 106.793 6.68826C106.99 6.86103 107.231 6.94741 107.515 6.94741C107.811 6.94741 108.058 6.85721 108.257 6.67683C108.456 6.4939 108.606 6.24619 108.707 5.93369C108.811 5.62119 108.863 5.26931 108.863 4.87805C108.863 4.49187 108.812 4.14507 108.711 3.83765C108.611 3.53023 108.461 3.2876 108.26 3.10976C108.062 2.93191 107.813 2.84299 107.515 2.84299C107.228 2.84299 106.986 2.9281 106.787 3.09832C106.59 3.26855 106.441 3.5061 106.34 3.81098C106.238 4.11585 106.187 4.47154 106.187 4.87805Z" fill="#505050"/>
    <path d="M113.115 7.92302C112.638 7.92302 112.222 7.79726 111.867 7.54573C111.511 7.29421 111.235 6.94233 111.039 6.49009C110.842 6.03786 110.744 5.5094 110.744 4.90473C110.744 4.29751 110.842 3.76651 111.039 3.31174C111.235 2.85696 111.511 2.50381 111.867 2.25229C112.222 2.00076 112.638 1.875 113.115 1.875C113.592 1.875 114.008 2.00076 114.363 2.25229C114.719 2.50381 114.995 2.85696 115.191 3.31174C115.388 3.76651 115.486 4.29751 115.486 4.90473C115.486 5.5094 115.388 6.03786 115.191 6.49009C114.995 6.94233 114.719 7.29421 114.363 7.54573C114.008 7.79726 113.592 7.92302 113.115 7.92302ZM113.118 6.96646C113.427 6.96646 113.683 6.87246 113.887 6.68445C114.09 6.49644 114.24 6.24619 114.337 5.93369C114.436 5.62119 114.486 5.27693 114.486 4.90091C114.486 4.52744 114.436 4.18445 114.337 3.87195C114.24 3.55691 114.09 3.30412 113.887 3.11357C113.683 2.92302 113.427 2.82774 113.118 2.82774C112.807 2.82774 112.549 2.92302 112.343 3.11357C112.14 3.30412 111.989 3.55691 111.89 3.87195C111.793 4.18445 111.744 4.52744 111.744 4.90091C111.744 5.27693 111.793 5.62119 111.89 5.93369C111.989 6.24619 112.14 6.49644 112.343 6.68445C112.549 6.87246 112.807 6.96646 113.118 6.96646Z" fill="#505050"/>
    <path d="M116.157 9.69131V6.8064H116.604C116.757 6.65904 116.899 6.44944 117.032 6.17759C117.164 5.90574 117.277 5.53862 117.369 5.07622C117.462 4.61382 117.526 4.02058 117.561 3.29649L117.72 0H121.903V6.8064H122.671V9.67988H121.691V7.80488H117.138V9.69131H116.157ZM117.81 6.8064H120.923V1.01372H118.648L118.542 3.29649C118.513 3.84781 118.465 4.34324 118.399 4.78277C118.335 5.22231 118.252 5.61103 118.151 5.94893C118.052 6.2843 117.938 6.57012 117.81 6.8064Z" fill="#505050"/>
    <path d="M125.855 7.92302C125.378 7.92302 124.962 7.79726 124.607 7.54573C124.251 7.29421 123.975 6.94233 123.779 6.49009C123.582 6.03786 123.484 5.5094 123.484 4.90473C123.484 4.29751 123.582 3.76651 123.779 3.31174C123.975 2.85696 124.251 2.50381 124.607 2.25229C124.962 2.00076 125.378 1.875 125.855 1.875C126.332 1.875 126.748 2.00076 127.103 2.25229C127.459 2.50381 127.735 2.85696 127.931 3.31174C128.128 3.76651 128.226 4.29751 128.226 4.90473C128.226 5.5094 128.128 6.03786 127.931 6.49009C127.735 6.94233 127.459 7.29421 127.103 7.54573C126.748 7.79726 126.332 7.92302 125.855 7.92302ZM125.858 6.96646C126.167 6.96646 126.423 6.87246 126.627 6.68445C126.83 6.49644 126.98 6.24619 127.077 5.93369C127.176 5.62119 127.226 5.27693 127.226 4.90091C127.226 4.52744 127.176 4.18445 127.077 3.87195C126.98 3.55691 126.83 3.30412 126.627 3.11357C126.423 2.92302 126.167 2.82774 125.858 2.82774C125.547 2.82774 125.289 2.92302 125.083 3.11357C124.88 3.30412 124.729 3.55691 124.63 3.87195C124.533 4.18445 124.484 4.52744 124.484 4.90091C124.484 5.27693 124.533 5.62119 124.63 5.93369C124.729 6.24619 124.88 6.49644 125.083 6.68445C125.289 6.87246 125.547 6.96646 125.858 6.96646Z" fill="#505050"/>
    <path d="M129.331 7.80488V1.95122H130.321V4.40549H130.798L132.477 1.95122H133.702L131.732 4.79802L133.725 7.80488H132.497L130.964 5.46494H130.321V7.80488H129.331Z" fill="#505050"/>
    <path d="M134.21 2.93445V1.95122H138.501V2.93445H136.842V7.80488H135.875V2.93445H134.21Z" fill="#505050"/>
    <path d="M141.454 7.92302C140.977 7.92302 140.561 7.79726 140.206 7.54573C139.85 7.29421 139.574 6.94233 139.378 6.49009C139.182 6.03786 139.083 5.5094 139.083 4.90473C139.083 4.29751 139.182 3.76651 139.378 3.31174C139.574 2.85696 139.85 2.50381 140.206 2.25229C140.561 2.00076 140.977 1.875 141.454 1.875C141.931 1.875 142.347 2.00076 142.703 2.25229C143.058 2.50381 143.334 2.85696 143.531 3.31174C143.727 3.76651 143.825 4.29751 143.825 4.90473C143.825 5.5094 143.727 6.03786 143.531 6.49009C143.334 6.94233 143.058 7.29421 142.703 7.54573C142.347 7.79726 141.931 7.92302 141.454 7.92302ZM141.458 6.96646C141.767 6.96646 142.023 6.87246 142.226 6.68445C142.429 6.49644 142.579 6.24619 142.676 5.93369C142.776 5.62119 142.825 5.27693 142.825 4.90091C142.825 4.52744 142.776 4.18445 142.676 3.87195C142.579 3.55691 142.429 3.30412 142.226 3.11357C142.023 2.92302 141.767 2.82774 141.458 2.82774C141.146 2.82774 140.888 2.92302 140.683 3.11357C140.48 3.30412 140.328 3.55691 140.229 3.87195C140.132 4.18445 140.083 4.52744 140.083 4.90091C140.083 5.27693 140.132 5.62119 140.229 5.93369C140.328 6.24619 140.48 6.49644 140.683 6.68445C140.888 6.87246 141.146 6.96646 141.458 6.96646Z" fill="#505050"/>
    <path d="M144.93 10V1.95122H145.897V2.90015H145.98C146.038 2.7782 146.12 2.6372 146.229 2.47713C146.337 2.31707 146.487 2.17734 146.679 2.05793C146.871 1.93598 147.125 1.875 147.441 1.875C147.851 1.875 148.218 1.99441 148.54 2.23323C148.862 2.47205 149.115 2.81631 149.298 3.26601C149.484 3.7157 149.576 4.25686 149.576 4.88948C149.576 5.5221 149.485 6.06453 149.302 6.51677C149.118 6.96646 148.867 7.31326 148.547 7.55716C148.226 7.79853 147.861 7.91921 147.45 7.91921C147.141 7.91921 146.889 7.8595 146.692 7.74009C146.498 7.62068 146.346 7.48094 146.235 7.32088C146.125 7.16082 146.04 7.01855 145.98 6.89405H145.921V10H144.93ZM145.901 4.87805C145.901 5.28963 145.953 5.65041 146.056 5.96037C146.16 6.27033 146.31 6.51296 146.507 6.68826C146.703 6.86103 146.944 6.94741 147.229 6.94741C147.524 6.94741 147.772 6.85721 147.97 6.67683C148.169 6.4939 148.319 6.24619 148.421 5.93369C148.524 5.62119 148.576 5.26931 148.576 4.87805C148.576 4.49187 148.526 4.14507 148.424 3.83765C148.325 3.53023 148.175 3.2876 147.974 3.10976C147.775 2.93191 147.527 2.84299 147.229 2.84299C146.942 2.84299 146.699 2.9281 146.5 3.09832C146.304 3.26855 146.155 3.5061 146.053 3.81098C145.951 4.11585 145.901 4.47154 145.901 4.87805Z" fill="#505050"/>
    <path d="M152.828 7.92302C152.351 7.92302 151.935 7.79726 151.58 7.54573C151.224 7.29421 150.948 6.94233 150.752 6.49009C150.555 6.03786 150.457 5.5094 150.457 4.90473C150.457 4.29751 150.555 3.76651 150.752 3.31174C150.948 2.85696 151.224 2.50381 151.58 2.25229C151.935 2.00076 152.351 1.875 152.828 1.875C153.305 1.875 153.721 2.00076 154.077 2.25229C154.432 2.50381 154.708 2.85696 154.905 3.31174C155.101 3.76651 155.199 4.29751 155.199 4.90473C155.199 5.5094 155.101 6.03786 154.905 6.49009C154.708 6.94233 154.432 7.29421 154.077 7.54573C153.721 7.79726 153.305 7.92302 152.828 7.92302ZM152.832 6.96646C153.141 6.96646 153.397 6.87246 153.6 6.68445C153.803 6.49644 153.953 6.24619 154.05 5.93369C154.149 5.62119 154.199 5.27693 154.199 4.90091C154.199 4.52744 154.149 4.18445 154.05 3.87195C153.953 3.55691 153.803 3.30412 153.6 3.11357C153.397 2.92302 153.141 2.82774 152.832 2.82774C152.52 2.82774 152.262 2.92302 152.057 3.11357C151.854 3.30412 151.702 3.55691 151.603 3.87195C151.506 4.18445 151.457 4.52744 151.457 4.90091C151.457 5.27693 151.506 5.62119 151.603 5.93369C151.702 6.24619 151.854 6.49644 152.057 6.68445C152.262 6.87246 152.52 6.96646 152.832 6.96646Z" fill="#505050"/>
    <path d="M156.304 7.80488V1.95122H158.414C158.988 1.95122 159.443 2.09223 159.778 2.37424C160.114 2.65371 160.281 3.03354 160.281 3.51372C160.281 3.85671 160.187 4.12856 159.997 4.32927C159.807 4.52998 159.555 4.66463 159.242 4.73323C159.469 4.76372 159.678 4.84248 159.868 4.96951C160.057 5.094 160.21 5.26169 160.324 5.47256C160.441 5.68343 160.5 5.93496 160.5 6.22713C160.5 6.53709 160.43 6.81148 160.291 7.0503C160.152 7.28659 159.95 7.47205 159.685 7.60671C159.423 7.73882 159.106 7.80488 158.735 7.80488H156.304ZM157.235 6.85213H158.735C158.98 6.85213 159.172 6.78481 159.311 6.65015C159.45 6.5155 159.52 6.33257 159.52 6.10137C159.52 5.82952 159.45 5.61611 159.311 5.46113C159.172 5.30361 158.98 5.22485 158.735 5.22485H157.235V6.85213ZM157.235 4.39024H158.424C158.609 4.39024 158.768 4.35976 158.901 4.29878C159.035 4.2378 159.138 4.15142 159.209 4.03963C159.281 3.9253 159.318 3.79065 159.318 3.63567C159.318 3.40955 159.237 3.23298 159.076 3.10595C158.915 2.97891 158.694 2.9154 158.414 2.9154H157.235V4.39024Z" fill="#505050"/>
    <path d="M202.5 17.0197C202.5 16.8895 202.5 16.8895 202.5 16.7592C202.5 16.629 202.372 16.629 202.372 16.4987C202.244 16.4987 202.244 16.3685 202.117 16.3685L190.869 14.675L185.884 4.12323C185.884 3.99296 185.756 3.99296 185.756 3.86269C185.628 3.86269 185.628 3.73242 185.5 3.73242C185.372 3.73242 185.372 3.73242 185.244 3.86269C185.117 3.86269 185.117 3.99296 185.117 4.12323L180.132 14.675L168.883 16.3685C168.756 16.3685 168.756 16.3685 168.628 16.4987C168.5 16.4987 168.5 16.629 168.5 16.7592C168.5 16.8895 168.5 16.8895 168.5 17.0197C168.5 17.1501 168.628 17.1501 168.628 17.2803L176.68 25.4873L174.763 37.0811C174.763 37.2113 174.763 37.2113 174.763 37.3417C174.763 37.4719 174.891 37.4719 174.891 37.6022C175.019 37.6022 175.019 37.7324 175.147 37.7324C175.274 37.7324 175.274 37.7324 175.402 37.7324L185.372 32.2612L195.342 37.7324C195.47 37.7324 195.47 37.7324 195.598 37.7324C195.726 37.7324 195.726 37.7324 195.853 37.7324L196.109 37.4719C196.109 37.3417 196.109 37.3417 196.109 37.2113L194.192 25.6175L202.244 17.4106C202.372 17.2803 202.5 17.1501 202.5 17.0197ZM192.914 20.4068L189.59 23.6635C189.59 23.6635 189.462 23.7937 189.462 23.924C189.462 24.0542 189.462 24.0542 189.462 24.1846L190.229 28.8742C190.229 29.0045 190.229 29.0045 190.229 29.1347L190.102 29.265C190.102 29.265 189.974 29.265 189.974 29.3952C189.846 29.3952 189.846 29.3952 189.846 29.3952L185.756 27.1807C185.628 27.1807 185.628 27.1807 185.5 27.1807C185.372 27.1807 185.372 27.1807 185.244 27.1807L181.154 29.3952H181.026C180.899 29.3952 180.899 29.3952 180.899 29.265L180.771 29.1347C180.771 29.1347 180.771 29.0045 180.771 28.8742L181.538 24.1846C181.538 24.0542 181.538 24.0542 181.538 23.924C181.538 23.7937 181.41 23.7937 181.41 23.6635L177.959 20.1462C177.959 20.0159 177.959 20.0159 177.959 19.8857C177.959 19.7554 177.959 19.7554 178.086 19.7554L178.214 19.6252L182.688 18.9737C182.816 18.9737 182.816 18.9737 182.944 18.8435L183.071 18.7133L185.117 14.4144L185.244 14.2841H185.5L185.628 14.4144L187.673 18.7133C187.673 18.8435 187.801 18.8435 187.801 18.8435C187.801 18.8435 187.929 18.9737 188.056 18.9737L192.53 19.6252C192.658 19.6252 192.658 19.6252 192.658 19.7554L192.786 19.8857C192.786 19.8857 192.786 20.0159 192.786 20.1462C192.786 20.2764 192.914 20.2764 192.914 20.4068Z" fill="#F18F01"/>
</svg>
