<svg width="205" height="23" viewBox="0 0 205 23" fill="none" xmlns="http://www.w3.org/2000/svg">
<path d="M11.4801 3.70565H3.65568V16.7138H0V0.375H15.1358V16.7138H11.4801V3.70565Z" fill="#FF4A37"/>
<path d="M18.6934 0.377046H22.3491V2.16803C23.0973 1.47677 23.8989 0.942626 24.7541 0.56557C25.6092 0.188523 26.5712 0 27.6401 0C28.8373 0 29.9384 0.219947 30.9431 0.659832C31.9693 1.07878 32.8457 1.67577 33.5726 2.45082C34.2995 3.20492 34.866 4.10569 35.2722 5.15296C35.6784 6.17943 35.8814 7.3001 35.8814 8.51498C35.8814 9.77184 35.657 10.9239 35.2081 11.9713C34.7805 12.9977 34.1926 13.888 33.4443 14.6421C32.6962 15.3752 31.7983 15.9513 30.7507 16.3703C29.7246 16.7891 28.6235 16.9986 27.4477 16.9986C26.4002 16.9986 25.4596 16.8416 24.6258 16.5273C23.792 16.2131 23.0332 15.7732 22.3491 15.2077V23H18.6934V0.377046ZM26.9026 13.668C27.6295 13.668 28.3029 13.5528 28.9228 13.3224C29.5642 13.092 30.12 12.7569 30.5904 12.317C31.0607 11.8561 31.4241 11.3115 31.6807 10.683C31.9586 10.0337 32.0976 9.30053 32.0976 8.48365C32.0976 7.72953 31.9799 7.03829 31.7448 6.40981C31.5096 5.76045 31.1676 5.21582 30.7186 4.77595C30.2911 4.31509 29.778 3.95897 29.1794 3.7077C28.5808 3.45633 27.9181 3.3306 27.1912 3.3306C26.0795 3.3306 25.0961 3.59241 24.241 4.11614C23.4072 4.63977 22.7766 5.26825 22.3491 6.00137V10.9658C22.7766 11.8457 23.3859 12.5159 24.1769 12.9768C24.9679 13.4377 25.8765 13.668 26.9026 13.668Z" fill="#FF4A37"/>
<path d="M37.7773 8.51498C37.7773 7.27912 37.9911 6.148 38.4187 5.12162C38.8463 4.07426 39.4556 3.17349 40.2466 2.4194C41.0376 1.6653 41.9782 1.07878 43.0685 0.659832C44.1588 0.219947 45.3667 0 46.6921 0C47.9962 0 49.1934 0.219947 50.2837 0.659832C51.3953 1.07878 52.3466 1.6653 53.1376 2.4194C53.9286 3.17349 54.538 4.07426 54.9655 5.12162C55.4145 6.148 55.6389 7.27912 55.6389 8.51498C55.6389 9.75095 55.4145 10.8925 54.9655 11.9399C54.538 12.9663 53.9286 13.8565 53.1376 14.6107C52.3466 15.3648 51.3953 15.9513 50.2837 16.3703C49.1934 16.7891 47.9962 16.9986 46.6921 16.9986C45.388 16.9986 44.1908 16.7891 43.1006 16.3703C42.0103 15.9513 41.0696 15.3648 40.2786 14.6107C39.4876 13.8565 38.8676 12.9663 38.4187 11.9399C37.9911 10.8925 37.7773 9.75095 37.7773 8.51498ZM41.5613 8.51498C41.5613 9.2482 41.6789 9.929 41.9141 10.5574C42.1706 11.1858 42.5233 11.7304 42.9723 12.1912C43.4212 12.6521 43.9557 13.0187 44.5757 13.291C45.217 13.5423 45.9225 13.668 46.6921 13.668C47.4617 13.668 48.1565 13.5528 48.7765 13.3224C49.4178 13.071 49.963 12.7254 50.4119 12.2855C50.8609 11.8247 51.2136 11.2801 51.4701 10.6517C51.7267 10.0232 51.8549 9.31097 51.8549 8.51498C51.8549 7.71899 51.716 7.00685 51.4381 6.37838C51.1816 5.72901 50.8181 5.18439 50.3478 4.74452C49.8775 4.28365 49.3323 3.93808 48.7123 3.7077C48.0923 3.45633 47.419 3.3306 46.6921 3.3306C45.9652 3.3306 45.2811 3.45633 44.6398 3.7077C44.0198 3.93808 43.4747 4.28365 43.0044 4.74452C42.5555 5.18439 42.2027 5.72901 41.9461 6.37838C41.6896 7.00685 41.5613 7.71899 41.5613 8.51498Z" fill="#FF4A37"/>
<path d="M56.6152 13.3832H58.5457C59.2965 12.4406 59.8006 11.3618 60.058 10.1469C60.3154 8.93192 60.4441 7.55987 60.4441 6.03076V0.375H73.8934V13.3832H76.2422V20.4529H72.8316V16.7138H60.0258V20.4529H56.6152V13.3832ZM70.2254 13.3832V3.70565H63.919V7.88456C63.919 8.89004 63.7796 9.89552 63.5007 10.9009C63.2219 11.8855 62.8358 12.7129 62.3425 13.3832H70.2254Z" fill="white"/>
<path d="M76.9922 8.51498C76.9922 7.27912 77.2067 6.148 77.6357 5.12162C78.0646 4.07426 78.676 3.17349 79.4696 2.4194C80.2633 1.6653 81.2071 1.07878 82.301 0.659832C83.395 0.219947 84.607 0 85.9369 0C87.2453 0 88.4466 0.219947 89.5405 0.659832C90.656 1.07878 91.6105 1.6653 92.4041 2.4194C93.1978 3.17349 93.8091 4.07426 94.2381 5.12162C94.6886 6.148 94.9138 7.27912 94.9138 8.51498C94.9138 9.75095 94.6886 10.8925 94.2381 11.9399C93.8091 12.9663 93.1978 13.8565 92.4041 14.6107C91.6105 15.3648 90.656 15.9513 89.5405 16.3703C88.4466 16.7891 87.2453 16.9986 85.9369 16.9986C84.6285 16.9986 83.4272 16.7891 82.3333 16.3703C81.2393 15.9513 80.2955 15.3648 79.5018 14.6107C78.7081 13.8565 78.0861 12.9663 77.6357 11.9399C77.2067 10.8925 76.9922 9.75095 76.9922 8.51498ZM80.7888 8.51498C80.7888 9.2482 80.9068 9.929 81.1427 10.5574C81.4001 11.1858 81.7541 11.7304 82.2045 12.1912C82.655 12.6521 83.1912 13.0187 83.8133 13.291C84.4568 13.5423 85.1647 13.668 85.9369 13.668C86.7091 13.668 87.4062 13.5528 88.0283 13.3224C88.6718 13.071 89.2187 12.7254 89.6692 12.2855C90.1197 11.8247 90.4736 11.2801 90.731 10.6517C90.9884 10.0232 91.1171 9.31097 91.1171 8.51498C91.1171 7.71899 90.9777 7.00685 90.6988 6.37838C90.4414 5.72901 90.0768 5.18439 89.6048 4.74452C89.1329 4.28365 88.586 3.93808 87.964 3.7077C87.3418 3.45633 86.6662 3.3306 85.9369 3.3306C85.2076 3.3306 84.5212 3.45633 83.8777 3.7077C83.2556 3.93808 82.7086 4.28365 82.2367 4.74452C81.7863 5.18439 81.4323 5.72901 81.1749 6.37838C80.9175 7.00685 80.7888 7.71899 80.7888 8.51498Z" fill="white"/>
<path d="M97.1836 0.375H100.851V7.00481L108.091 0.375H112.885L104.744 7.75892L113.175 16.7138H108.477L102.075 9.98973L100.851 11.1523V16.7138H97.1836V0.375Z" fill="white"/>
<path d="M114.328 0.375H130.094V3.70565H124.045V16.7138H120.378V3.70565H114.328V0.375Z" fill="white"/>
<path d="M130.896 8.51498C130.896 7.27912 131.111 6.148 131.541 5.12162C131.969 4.07426 132.58 3.17349 133.374 2.4194C134.168 1.6653 135.112 1.07878 136.206 0.659832C137.299 0.219947 138.512 0 139.841 0C141.15 0 142.351 0.219947 143.445 0.659832C144.561 1.07878 145.515 1.6653 146.308 2.4194C147.102 3.17349 147.714 4.07426 148.143 5.12162C148.594 6.148 148.818 7.27912 148.818 8.51498C148.818 9.75095 148.594 10.8925 148.143 11.9399C147.714 12.9663 147.102 13.8565 146.308 14.6107C145.515 15.3648 144.561 15.9513 143.445 16.3703C142.351 16.7891 141.15 16.9986 139.841 16.9986C138.533 16.9986 137.331 16.7891 136.238 16.3703C135.144 15.9513 134.2 15.3648 133.406 14.6107C132.613 13.8565 131.991 12.9663 131.541 11.9399C131.111 10.8925 130.896 9.75095 130.896 8.51498ZM134.694 8.51498C134.694 9.2482 134.812 9.929 135.047 10.5574C135.305 11.1858 135.658 11.7304 136.109 12.1912C136.559 12.6521 137.096 13.0187 137.718 13.291C138.361 13.5423 139.069 13.668 139.841 13.668C140.613 13.668 141.311 13.5528 141.933 13.3224C142.576 13.071 143.123 12.7254 143.574 12.2855C144.024 11.8247 144.379 11.2801 144.635 10.6517C144.893 10.0232 145.022 9.31097 145.022 8.51498C145.022 7.71899 144.882 7.00685 144.603 6.37838C144.346 5.72901 143.981 5.18439 143.51 4.74452C143.037 4.28365 142.491 3.93808 141.869 3.7077C141.247 3.45633 140.57 3.3306 139.841 3.3306C139.112 3.3306 138.426 3.45633 137.782 3.7077C137.161 3.93808 136.613 4.28365 136.142 4.74452C135.691 5.18439 135.337 5.72901 135.079 6.37838C134.823 7.00685 134.694 7.71899 134.694 8.51498Z" fill="white"/>
<path d="M151.062 0.377046H154.73V2.16803C155.481 1.47677 156.285 0.942626 157.143 0.56557C158.001 0.188523 158.967 0 160.039 0C161.24 0 162.345 0.219947 163.354 0.659832C164.382 1.07878 165.262 1.67577 165.991 2.45082C166.72 3.20492 167.29 4.10569 167.697 5.15296C168.105 6.17943 168.308 7.3001 168.308 8.51498C168.308 9.77184 168.083 10.9239 167.632 11.9713C167.204 12.9977 166.614 13.888 165.862 14.6421C165.112 15.3752 164.211 15.9513 163.16 16.3703C162.13 16.7891 161.025 16.9986 159.846 16.9986C158.795 16.9986 157.851 16.8416 157.014 16.5273C156.178 16.2131 155.416 15.7732 154.73 15.2077V23H151.062V0.377046ZM159.3 13.668C160.029 13.668 160.704 13.5528 161.326 13.3224C161.969 13.092 162.528 12.7569 162.999 12.317C163.471 11.8561 163.836 11.3115 164.094 10.683C164.372 10.0337 164.511 9.30053 164.511 8.48365C164.511 7.72953 164.393 7.03829 164.158 6.40981C163.922 5.76045 163.578 5.21582 163.128 4.77595C162.699 4.31509 162.184 3.95897 161.584 3.7077C160.982 3.45633 160.318 3.3306 159.588 3.3306C158.474 3.3306 157.487 3.59241 156.629 4.11614C155.792 4.63977 155.16 5.26825 154.73 6.00137V10.9658C155.16 11.8457 155.771 12.5159 156.564 12.9768C157.358 13.4377 158.27 13.668 159.3 13.668Z" fill="white"/>
<path d="M170.129 8.51498C170.129 7.27912 170.344 6.148 170.772 5.12162C171.202 4.07426 171.813 3.17349 172.606 2.4194C173.4 1.6653 174.344 1.07878 175.437 0.659832C176.532 0.219947 177.744 0 179.074 0C180.382 0 181.583 0.219947 182.678 0.659832C183.793 1.07878 184.747 1.6653 185.541 2.4194C186.334 3.17349 186.946 4.07426 187.375 5.12162C187.825 6.148 188.051 7.27912 188.051 8.51498C188.051 9.75095 187.825 10.8925 187.375 11.9399C186.946 12.9663 186.334 13.8565 185.541 14.6107C184.747 15.3648 183.793 15.9513 182.678 16.3703C181.583 16.7891 180.382 16.9986 179.074 16.9986C177.766 16.9986 176.564 16.7891 175.47 16.3703C174.376 15.9513 173.432 15.3648 172.639 14.6107C171.845 13.8565 171.223 12.9663 170.772 11.9399C170.344 10.8925 170.129 9.75095 170.129 8.51498ZM173.925 8.51498C173.925 9.2482 174.043 9.929 174.28 10.5574C174.537 11.1858 174.891 11.7304 175.342 12.1912C175.792 12.6521 176.328 13.0187 176.95 13.291C177.594 13.5423 178.301 13.668 179.074 13.668C179.846 13.668 180.543 13.5528 181.165 13.3224C181.809 13.071 182.356 12.7254 182.806 12.2855C183.257 11.8247 183.61 11.2801 183.868 10.6517C184.125 10.0232 184.254 9.31097 184.254 8.51498C184.254 7.71899 184.115 7.00685 183.835 6.37838C183.578 5.72901 183.214 5.18439 182.741 4.74452C182.27 4.28365 181.723 3.93808 181.1 3.7077C180.478 3.45633 179.803 3.3306 179.074 3.3306C178.344 3.3306 177.658 3.45633 177.015 3.7077C176.392 3.93808 175.845 4.28365 175.374 4.74452C174.923 5.18439 174.57 5.72901 174.312 6.37838C174.054 7.00685 173.925 7.71899 173.925 8.51498Z" fill="white"/>
<path d="M190.328 0.375H197.471C199.809 0.375 201.568 0.699684 202.748 1.34905C203.927 1.99841 204.518 3.11908 204.518 4.71104C204.518 5.46515 204.346 6.10407 204.002 6.6277C203.66 7.15143 203.209 7.62274 202.651 8.04163C203.445 8.33497 204.035 8.82717 204.421 9.51842C204.807 10.1888 205 10.9638 205 11.8436C205 13.4775 204.41 14.7029 203.23 15.5198C202.051 16.3158 200.389 16.7138 198.243 16.7138H190.328V0.375ZM193.997 9.95829V13.4775H197.89C198.983 13.4775 199.809 13.3413 200.367 13.0689C200.925 12.7967 201.204 12.3568 201.204 11.7493C201.204 11.1 200.935 10.6391 200.399 10.3668C199.884 10.0945 199.08 9.95829 197.986 9.95829H193.997ZM193.997 3.61135V6.84764H198.307C199.058 6.84764 199.649 6.71156 200.077 6.4392C200.507 6.16694 200.721 5.74795 200.721 5.18234C200.721 4.51209 200.432 4.08266 199.852 3.89415C199.294 3.70565 198.468 3.61135 197.374 3.61135H193.997Z" fill="white"/>
</svg>
