<svg width="16" height="12" viewBox="0 0 16 12" fill="none" xmlns="http://www.w3.org/2000/svg">
<path fill-rule="evenodd" clip-rule="evenodd" d="M14 12C14.5304 12 15.0391 11.7893 15.4142 11.4142C15.7893 11.0391 16 10.5304 16 10L16 7C16 6.46957 15.7893 5.96086 15.4142 5.58579C15.0391 5.21071 14.5304 5 14 5L11 5C11 4.20435 11.3161 3.44129 11.8787 2.87868C12.4413 2.31607 13.2044 2 14 2L15 2C15.2652 2 15.5196 1.89464 15.7071 1.70711C15.8946 1.51957 16 1.26522 16 1C16 0.734783 15.8946 0.480429 15.7071 0.292892C15.5196 0.105356 15.2652 -1.28474e-07 15 -1.74846e-07L14 -3.49691e-07C12.6739 -5.81551e-07 11.4022 0.526783 10.4645 1.46447C9.52679 2.40215 9 3.67392 9 5L9 10C9 10.5304 9.21071 11.0391 9.58579 11.4142C9.96086 11.7893 10.4696 12 11 12L14 12ZM5 12C5.53043 12 6.03914 11.7893 6.41421 11.4142C6.78929 11.0391 7 10.5304 7 10L7 7C7 6.46957 6.78929 5.96086 6.41421 5.58579C6.03914 5.21071 5.53043 5 5 5L2 5C2 4.20435 2.31607 3.44129 2.87868 2.87868C3.44129 2.31607 4.20435 2 5 2L6 2C6.26522 2 6.51957 1.89464 6.70711 1.70711C6.89464 1.51957 7 1.26522 7 0.999998C7 0.734782 6.89464 0.480427 6.70711 0.292891C6.51957 0.105355 6.26522 -1.70208e-06 6 -1.74846e-06L5 -1.9233e-06C3.67392 -2.15516e-06 2.40215 0.526782 1.46447 1.46446C0.526786 2.40215 1.45578e-06 3.67391 1.22392e-06 5L3.49691e-07 10C2.56947e-07 10.5304 0.210715 11.0391 0.585787 11.4142C0.960859 11.7893 1.46957 12 2 12L5 12Z" fill="#005A9C"/>
</svg>
