<svg width="35" height="27" viewBox="0 0 35 27" fill="none" xmlns="http://www.w3.org/2000/svg">
<path d="M10.775 21.1709L3.54588 13.9417C3.15634 13.5522 2.62801 13.3333 2.07713 13.3333C1.52624 13.3333 0.997913 13.5522 0.608376 13.9417C0.218839 14.3312 0 14.8596 0 15.4105C0 15.6832 0.0537269 15.9533 0.158112 16.2053C0.262498 16.4573 0.415497 16.6863 0.608376 16.8792L9.31671 25.5875C10.1292 26.4 11.4417 26.4 12.2542 25.5875L34.2959 3.54588C34.6854 3.15634 34.9042 2.62801 34.9042 2.07713C34.9042 1.52624 34.6854 0.997913 34.2959 0.608377C33.9063 0.21884 33.378 0 32.8271 0C32.2762 0 31.7479 0.21884 31.3584 0.608377L10.775 21.1709Z" fill="white"/>
</svg>
