<svg width="134" height="125" viewBox="0 0 134 125" fill="none" xmlns="http://www.w3.org/2000/svg">
<g clip-path="url(#clip0_1118_10362)">
<path d="M2.09386 95.8477H20.9362C22.0944 95.8477 23.0301 94.9168 23.0301 93.7645C23.0301 91.4671 24.9086 89.5982 27.2178 89.5982H33.8464L37.7015 123.155C37.7135 123.269 37.7685 123.365 37.7996 123.469C37.8307 123.584 37.8522 123.698 37.9025 123.803C37.9695 123.943 38.0604 124.06 38.1562 124.179C38.2208 124.262 38.2758 124.353 38.3524 124.424C38.4744 124.538 38.618 124.617 38.7616 124.7C38.8429 124.743 38.9099 124.807 38.9961 124.841C39.2402 124.938 39.501 124.998 39.7786 124.998H48.1564C55.0841 124.998 60.7196 119.394 60.7196 112.499V104.192C60.7196 104.192 60.7196 104.185 60.7196 104.183C60.7196 100.738 63.5385 97.9332 67.0012 97.9332C70.4639 97.9332 73.2732 100.731 73.2804 104.168C73.2804 104.176 73.2804 104.178 73.2804 104.183V112.499C73.2804 119.391 78.9159 124.998 85.8436 124.998H94.2238C94.5014 124.998 94.7622 124.938 95.0063 124.841C95.0925 124.803 95.1619 124.743 95.2408 124.7C95.3868 124.617 95.5304 124.538 95.65 124.424C95.7266 124.353 95.7816 124.262 95.8463 124.176C95.9396 124.057 96.0329 123.943 96.0999 123.803C96.1478 123.696 96.1717 123.581 96.2028 123.467C96.2339 123.36 96.2889 123.265 96.3009 123.153L100.156 89.5958H106.782C109.091 89.5958 110.97 91.4647 110.97 93.7621C110.97 94.9144 111.906 95.8453 113.064 95.8453H131.904C133.062 95.8453 133.998 94.9144 133.998 93.7621C133.998 92.6098 133.062 91.6789 131.904 91.6789H114.859C113.923 88.0935 110.671 85.4294 106.78 85.4294H102.425C106.543 80.8726 108.876 74.9826 108.878 68.7569V68.7521C108.878 54.9698 97.6075 43.7588 83.7521 43.7588C77.4873 43.7588 71.6173 46.0134 67.0012 50.1488C62.3851 46.0134 56.5151 43.7588 50.2503 43.7588C36.3949 43.7588 25.124 54.9698 25.124 68.7521C25.124 74.9778 27.4571 80.8726 31.5778 85.4294H27.213C23.322 85.4294 20.07 88.0935 19.1343 91.6789H2.09386C0.935657 91.6789 0 92.6098 0 93.7621C0 94.9144 0.935657 95.8453 2.09386 95.8453V95.8477ZM104.573 66.5547C94.7933 65.5286 86.9994 57.7744 85.968 48.0466C95.7481 49.075 103.542 56.8268 104.573 66.5547ZM50.2527 47.9275C56.0629 47.9275 61.471 50.2583 65.4793 54.4889C66.269 55.327 67.7358 55.327 68.5255 54.4889C72.0743 50.744 76.7215 48.4941 81.7683 48.0251C82.8236 60.0647 92.4793 69.6782 104.581 70.7282C104.059 76.2158 101.396 81.275 97.0691 84.8295C96.9877 84.8961 96.9446 84.9866 96.8776 85.0628C96.7699 85.1818 96.6575 85.2866 96.5785 85.4294C96.4301 85.6961 96.344 85.9865 96.3201 86.2841L92.3501 120.839H85.8436C81.2251 120.839 77.4681 117.101 77.4681 112.506V104.211C77.4681 104.211 77.4729 104.197 77.4729 104.19C77.4729 98.4475 72.7779 93.774 67.0036 93.774C61.2293 93.774 56.5462 98.4356 56.5367 104.168C56.5367 104.178 56.5319 104.183 56.5319 104.19V112.506C56.5319 117.101 52.7749 120.839 48.1564 120.839H41.6475L37.6704 86.2341V86.2294L37.6656 86.1913C37.656 86.1103 37.6106 86.046 37.5938 85.9675C37.5507 85.7842 37.5124 85.6008 37.4191 85.4342C37.3425 85.2937 37.2277 85.1866 37.12 85.0675C37.0506 84.989 37.0051 84.8937 36.919 84.8223C32.0851 80.8464 29.3117 74.9921 29.3117 68.7569C29.3117 57.2697 38.7065 47.9275 50.2503 47.9275H50.2527Z" fill="white"/>
<path d="M53.6771 5.49244C46.3306 12.8014 46.3306 24.6981 53.6771 32.0071C57.2378 35.5497 61.9688 37.4995 67.0012 37.4995C72.0337 37.4995 76.7646 35.5497 80.3254 32.0071C87.6718 24.6981 87.6718 12.8014 80.3254 5.49244C76.7646 1.94985 72.0337 0 67.0012 0C61.9688 0 57.2355 1.94985 53.6771 5.49244ZM77.3652 29.0597C74.5966 31.8142 70.9162 33.3308 67.0036 33.3308C63.0911 33.3308 59.4059 31.8142 56.6396 29.0597C50.9252 23.3744 50.9252 14.1227 56.6396 8.43745C59.4083 5.6829 63.0887 4.16635 67.0036 4.16635C70.9185 4.16635 74.5966 5.6829 77.3652 8.43745C83.0821 14.1227 83.0821 23.3744 77.3652 29.0597Z" fill="white"/>
<path d="M67.0634 22.917H67.0419C65.886 22.917 64.96 23.8479 64.96 25.0002C64.96 26.1525 65.9052 27.0833 67.0634 27.0833C68.2216 27.0833 69.1573 26.1525 69.1573 25.0002C69.1573 23.8479 68.2168 22.917 67.061 22.917H67.0634Z" fill="white"/>
<path d="M64.9073 12.5041V18.7512C64.9073 19.9035 65.843 20.8344 67.0012 20.8344C68.1594 20.8344 69.0951 19.9035 69.0951 18.7512V12.5041C69.0951 11.3518 68.1594 10.4209 67.0012 10.4209C65.843 10.4209 64.9073 11.3518 64.9073 12.5041Z" fill="white"/>
</g>
<defs>
<clipPath id="clip0_1118_10362">
<rect width="134" height="125" fill="white"/>
</clipPath>
</defs>
</svg>
