<svg width="30" height="30" viewBox="0 0 30 30" fill="none" xmlns="http://www.w3.org/2000/svg">
<path d="M12.7695 30C12.3606 30 12.026 29.8689 11.7658 29.6067C11.5056 29.3446 11.3755 29.0075 11.3755 28.5955V18.3146H1.44981C1.04089 18.3146 0.687732 18.1835 0.390335 17.9213C0.130112 17.6592 0 17.3221 0 16.9101V12.809C0 12.397 0.130112 12.0599 0.390335 11.7978C0.687732 11.5356 1.04089 11.4045 1.44981 11.4045H11.3755V1.40449C11.3755 0.992509 11.5056 0.655431 11.7658 0.39326C12.026 0.131087 12.3606 0 12.7695 0H17.342C17.7138 0 18.0297 0.131087 18.29 0.39326C18.5874 0.655431 18.7361 0.992509 18.7361 1.40449V11.4045H28.606C29.0149 11.4045 29.3494 11.5356 29.6097 11.7978C29.8699 12.0599 30 12.397 30 12.809V16.9101C30 17.3221 29.8699 17.6592 29.6097 17.9213C29.3494 18.1835 29.0149 18.3146 28.606 18.3146H18.7361V28.5955C18.7361 29.0075 18.5874 29.3446 18.29 29.6067C18.0297 29.8689 17.7138 30 17.342 30H12.7695Z" fill="#005A9C"/>
</svg>
