<svg width="64" height="24" viewBox="0 0 64 24" fill="none" xmlns="http://www.w3.org/2000/svg">
<path d="M12 0C18.6274 0 24 5.37258 24 12C24 18.6274 18.6274 24 12 24C5.37258 24 0 18.6274 0 12C0 5.37258 5.37258 0 12 0ZM13.3428 7.00098C13.2644 7.0059 13.1882 7.02401 13.1182 7.05273C13.0481 7.08145 12.9857 7.1208 12.9346 7.16895L8.14453 11.6797C8.05155 11.7673 8 11.8788 8 11.9941C8 12.1095 8.05155 12.221 8.14453 12.3086L12.9346 16.8193C12.9847 16.8697 13.0467 16.9117 13.1172 16.9424C13.1879 16.9731 13.2658 16.992 13.3457 16.998C13.4256 17.004 13.5065 16.9972 13.583 16.9775C13.6594 16.9579 13.7301 16.9259 13.791 16.8838C13.8519 16.8416 13.9018 16.7895 13.9375 16.7314C13.9731 16.6735 13.9942 16.6105 13.999 16.5459C14.0038 16.4813 13.9926 16.4165 13.9658 16.3555C13.939 16.2944 13.897 16.2382 13.8428 16.1904L9.38672 11.9941L13.8447 7.79785C13.8957 7.74973 13.9346 7.69398 13.959 7.63379C13.9834 7.57346 13.9924 7.50956 13.9863 7.44629C13.9803 7.38308 13.9594 7.32118 13.9238 7.26465C13.8882 7.20811 13.839 7.15748 13.7793 7.11621C13.7195 7.07492 13.65 7.04313 13.5752 7.02344C13.5004 7.00375 13.4212 6.99607 13.3428 7.00098Z" fill="white"/>
<path d="M52 24C45.3726 24 40 18.6274 40 12C40 5.37258 45.3726 -1.62846e-06 52 -1.04907e-06C58.6274 -4.69686e-07 64 5.37258 64 12C64 18.6274 58.6274 24 52 24ZM50.6572 16.999C50.7356 16.9941 50.8118 16.976 50.8818 16.9473C50.9519 16.9185 51.0143 16.8792 51.0654 16.8311L55.8555 12.3203C55.9484 12.2327 56 12.1212 56 12.0059C56 11.8905 55.9485 11.779 55.8555 11.6914L51.0654 7.18066C51.0153 7.13029 50.9533 7.08826 50.8828 7.05762C50.8121 7.02693 50.7342 7.00796 50.6543 7.00195C50.5744 6.99595 50.4935 7.00281 50.417 7.02246C50.3406 7.0421 50.2699 7.0741 50.209 7.11621C50.1481 7.15839 50.0982 7.21053 50.0625 7.26855C50.0269 7.32649 50.0058 7.38954 50.001 7.4541C49.9962 7.51868 50.0074 7.58354 50.0342 7.64453C50.061 7.70559 50.103 7.76179 50.1572 7.80957L54.6133 12.0059L50.1553 16.2021C50.1043 16.2503 50.0654 16.306 50.041 16.3662C50.0166 16.4265 50.0076 16.4904 50.0137 16.5537C50.0197 16.6169 50.0406 16.6788 50.0762 16.7354C50.1118 16.7919 50.161 16.8425 50.2207 16.8838C50.2805 16.9251 50.35 16.9569 50.4248 16.9766C50.4996 16.9962 50.5788 17.0039 50.6572 16.999Z" fill="white"/>
</svg>
