<svg width="65" height="65" viewBox="0 0 65 65" fill="none" xmlns="http://www.w3.org/2000/svg">
<path d="M0 0L65 65V0H0Z" fill="#DDDDDD" fill-opacity="0.7"/>
<g clip-path="url(#clip0_4453_4557)">
<path d="M45.9801 8.09375C44.0491 8.09375 42.1525 8.60292 40.4803 9.57047C38.8081 10.538 37.4196 11.9294 36.4541 13.6051C35.4886 15.2808 34.9805 17.1818 34.9805 19.1165C34.9805 21.0512 35.4886 22.9521 36.4541 24.6279C37.4196 26.3036 38.8081 27.695 40.4803 28.6625C42.1525 29.6301 44.0495 30.1392 45.9801 30.1392C47.9107 30.1392 49.8077 29.6301 51.4799 28.6625C53.1521 27.695 54.5406 26.3036 55.5061 24.6279C56.4716 22.9521 56.9797 21.0512 56.9797 19.1165C56.9797 17.1818 56.4716 15.2808 55.5061 13.6051C54.5406 11.9294 53.1521 10.538 51.4799 9.57047C49.8077 8.60292 47.9112 8.09375 45.9801 8.09375ZM50.875 13.7891C51.143 13.7962 51.4122 13.8811 51.6474 14.0498C52.2751 14.4986 52.4201 15.3666 51.9722 15.9961L46.3798 23.8564C46.1089 24.2369 45.6851 24.4388 45.2535 24.4413C44.8866 24.4705 44.509 24.3556 44.2123 24.0883L40.1903 20.4654C39.6166 19.9487 39.57 19.0699 40.0856 18.4949C40.6012 17.92 41.4782 17.8729 42.052 18.3896L44.9755 21.0237L49.7051 14.3753C49.9851 13.9819 50.4284 13.7775 50.875 13.7891Z" fill="#04B700"/>
</g>
<defs>
<clipPath id="clip0_4453_4557">
<rect width="22" height="22" fill="white" transform="translate(35 8)"/>
</clipPath>
</defs>
</svg>
