<svg width="82" height="31" viewBox="0 0 82 31" fill="none" xmlns="http://www.w3.org/2000/svg">
<path d="M66.5 31C62.389 31 58.4464 29.3673 55.5399 26.4601C52.6327 23.5536 51 19.611 51 15.5C51 11.389 52.6327 7.44641 55.5399 4.53987C58.4464 1.63275 62.389 3.7308e-06 66.5 3.01203e-06C69.2207 2.53635e-06 71.8935 0.716149 74.25 2.07677C76.6065 3.43739 78.5632 5.39412 79.9232 7.75C81.2838 10.1065 82 12.7793 82 15.5C82 19.611 80.3672 23.5536 77.4601 26.4601C74.5536 29.3673 70.611 31 66.5 31ZM70.9478 14.0706L64.7833 7.90617C64.295 7.41844 63.5835 7.2279 62.9163 7.40737C62.2497 7.58626 61.7288 8.10778 61.5511 8.7744C61.3728 9.4416 61.5639 10.1531 62.0522 10.6408L66.9143 15.4994L62.0522 20.358C61.5639 20.8463 61.3728 21.5572 61.5511 22.2244C61.7294 22.8916 62.2497 23.4126 62.9164 23.5915C63.5835 23.7704 64.295 23.5804 64.7833 23.0927L70.9478 16.9282C71.326 16.5506 71.5305 16.0332 71.5124 15.4988L71.5124 15.4371C71.5124 14.9243 71.3097 14.4331 70.9478 14.07L70.9478 14.0706Z" fill="#005A9C"/>
<path d="M15.5 3.98799e-06C19.611 2.93027e-06 23.5536 1.63275 26.4601 4.53987C29.3673 7.44641 31 11.389 31 15.5C31 19.611 29.3673 23.5536 26.4601 26.4601C23.5536 29.3673 19.611 31 15.5 31C12.7794 31 10.1065 30.2839 7.75001 28.9232C5.39354 27.5626 3.43682 25.6059 2.07678 23.25C0.716158 20.8935 1.05869e-05 18.2207 9.86051e-06 15.5C8.76289e-06 11.389 1.63275 7.44642 4.53987 4.53987C7.44642 1.63275 11.389 5.04571e-06 15.5 3.98799e-06ZM11.0522 16.9294L17.2167 23.0938C17.705 23.5816 18.4165 23.7721 19.0837 23.5926C19.7503 23.4137 20.2712 22.8922 20.4489 22.2256C20.6272 21.5584 20.4361 20.8469 19.9478 20.3592L15.0857 15.5006L19.9478 10.642C20.4361 10.1537 20.6272 9.44276 20.4489 8.77557C20.2706 8.10837 19.7503 7.58743 19.0837 7.40854C18.4165 7.22964 17.705 7.41961 17.2167 7.90733L11.0522 14.0718C10.674 14.4494 10.4695 14.9668 10.4876 15.5012L10.4876 15.5629C10.4876 16.0757 10.6903 16.5669 11.0522 16.93L11.0522 16.9294Z" fill="#005A9C"/>
</svg>
