<svg width="65" height="65" viewBox="0 0 65 65" fill="none" xmlns="http://www.w3.org/2000/svg">
<path d="M65 0L0 65V0H65Z" fill="#DDDDDD" fill-opacity="0.7"/>
<path fill-rule="evenodd" clip-rule="evenodd" d="M19 8C16.0828 8 13.2848 9.15937 11.2219 11.2219C9.15893 13.2848 8 16.0828 8 19C8 21.9172 9.15937 24.7152 11.2219 26.7781C13.2848 28.8411 16.0828 30 19 30C21.9172 30 24.7152 28.8411 26.7781 26.7781C28.8411 24.7152 30 21.9172 30 19C30 16.0828 28.8411 13.2848 26.7781 11.2219C24.7152 9.15893 21.9172 8 19 8ZM19 10.5937C20.1162 10.5937 21.0149 11.4925 21.0149 12.6087V20.667C21.0149 21.7832 20.1162 22.6819 19 22.6819C17.8838 22.6819 16.9851 21.7832 16.9851 20.667V12.6087C16.9851 11.4925 17.8838 10.5937 19 10.5937ZM19 23.6549C19.4972 23.6549 19.9743 23.8527 20.3261 24.2045C20.6779 24.5563 20.8757 25.0334 20.8757 25.5306C20.8757 26.0278 20.6779 26.5053 20.3261 26.8571C19.9743 27.2085 19.4972 27.4063 19 27.4067C18.5028 27.4067 18.0257 27.209 17.6739 26.8571C17.3221 26.5053 17.1243 26.0282 17.1243 25.5306C17.1243 25.033 17.3221 24.5563 17.6739 24.2045C18.0257 23.8527 18.5028 23.6549 19 23.6549Z" fill="#F14901"/>
</svg>
