<svg width="22" height="27" viewBox="0 0 22 27" fill="none" xmlns="http://www.w3.org/2000/svg">
<g clip-path="url(#clip0_2539_541)">
<path d="M13.2612 9.10921C13.5588 9.10921 13.6332 9.43548 13.3956 9.57422C12.7084 9.978 12.271 11.0273 12.271 12.1383C12.271 12.8938 11.4143 13.0797 11.2873 12.3383C10.9796 10.5389 12.0037 9.10866 13.2612 9.10866V9.10921ZM12.9306 7.99219C11.8692 7.99219 11.0003 8.77535 10.54 9.92922C10.0798 11.0815 10.0553 12.5784 10.7 13.8949C11.2644 15.0471 11.5817 15.4878 11.7725 16.6508C12.034 18.2584 11.9017 19.1158 12.7802 20.8756C13.1655 21.6484 13.6502 21.8696 13.9925 21.8311C14.3374 21.7926 14.6095 21.5129 14.6095 20.9899V19.312C14.6095 18.7955 14.694 18.3673 14.9177 18.0421C15.1442 17.7185 15.5162 17.5419 15.9578 17.5419C16.3995 17.5419 16.7763 17.7191 16.9995 18.0421C17.2259 18.3673 17.3083 18.796 17.3083 19.312V20.9899C17.3083 21.5135 17.582 21.7921 17.9243 21.8311C18.2671 21.8696 18.7507 21.6484 19.1371 20.8756C20.0156 19.1158 19.8822 18.2584 20.1458 16.6508C20.3356 15.4883 20.6539 15.0477 21.2173 13.8949C21.8609 12.5779 21.8391 11.0815 21.3772 9.92922C20.917 8.77535 20.0491 7.99219 18.9867 7.99219C18.2336 7.99219 17.7186 8.19435 17.2004 8.40463C16.7221 8.59975 17.1063 9.17099 17.7829 9.31136C18.1273 9.38345 18.0104 9.88586 17.6655 9.81161C16.9682 9.69942 16.1051 9.20405 15.3318 8.83225C14.694 8.52441 13.8208 7.99219 12.929 7.99219H12.9306Z" fill="white"/>
<path fill-rule="evenodd" clip-rule="evenodd" d="M9.64831 2.12022C10.2202 2.12022 10.682 2.60692 10.682 3.20581C10.682 3.80469 10.2202 4.29139 9.64831 4.29139C9.07645 4.29139 8.6146 3.80469 8.6146 3.20581C8.6146 2.60692 9.07805 2.12022 9.64831 2.12022ZM9.64831 0C8.42062 0.00162594 7.38 0.81351 6.89423 1.96522H2.1482C1.00076 1.96522 0 2.84864 0 4.00414V24.4248C0 25.5792 1.00129 26.4643 2.1482 26.4643H17.1516C18.2969 26.4643 19.2993 25.5792 19.2993 24.4248V22.2873C18.9788 22.6742 18.5345 22.8688 18.0487 23.0021V24.4248C18.0487 24.8199 17.6921 25.1896 17.1516 25.1896H2.1482C1.60557 25.1896 1.24896 24.8205 1.24896 24.4248V4.00468C1.24896 3.60795 1.60557 3.23941 2.1482 3.23941H4.06309V5.09406C4.06309 5.74877 4.59828 6.28316 5.24296 6.28316H14.0579C14.7015 6.28316 15.2341 5.74877 15.2341 5.09406V3.23941H17.1511C17.6916 3.23941 18.0482 3.6085 18.0482 4.00468V7.19477C18.4457 7.08963 18.8635 7.04518 19.2988 7.05765V4.00522C19.2988 2.84973 18.2964 1.9663 17.1511 1.9663H12.4008C11.9156 0.81351 10.8787 0.00162594 9.64885 0H9.64831Z" fill="white"/>
<path d="M4.04988 9.88682C3.78787 9.88194 3.57422 10.0976 3.57422 10.3648C3.57422 10.632 3.78734 10.8456 4.04988 10.8418H8.57217C8.83418 10.8456 9.04783 10.6315 9.04783 10.3648C9.04783 10.0982 8.83471 9.8814 8.57217 9.88682H4.04988Z" fill="white"/>
<path d="M4.04988 12.668C3.78787 12.6642 3.57422 12.8788 3.57422 13.1455C3.57422 13.4122 3.78734 13.6273 4.04988 13.6235H8.3245C8.58492 13.6273 8.80017 13.4127 8.80017 13.1455C8.80017 12.8783 8.58545 12.6642 8.3245 12.668H4.04988Z" fill="white"/>
<path d="M4.00307 15.4485C3.37753 15.4805 3.4243 16.4354 4.04984 16.404H9.3369C9.59892 16.4067 9.81257 16.1932 9.81257 15.926C9.81257 15.6588 9.59945 15.4452 9.3369 15.4485H4.04984C4.03442 15.4469 4.01848 15.4469 4.00307 15.4485Z" fill="white"/>
<path d="M4.04988 18.2266C3.78787 18.2218 3.57422 18.4375 3.57422 18.7047C3.57422 18.9719 3.78734 19.1859 4.04988 19.1822H9.80093C10.0624 19.1859 10.2766 18.9713 10.2766 18.7047C10.2766 18.438 10.0629 18.2218 9.80093 18.2266H4.04988Z" fill="white"/>
<path d="M4.04988 21.0079C3.78787 21.0041 3.57422 21.2187 3.57422 21.4853C3.57422 21.752 3.78734 21.9672 4.04988 21.9634H10.7671C11.0286 21.9666 11.2428 21.7525 11.2428 21.4853C11.2428 21.2182 11.0292 21.0046 10.7671 21.0079H4.04988Z" fill="white"/>
</g>
<defs>
<clipPath id="clip0_2539_541">
<rect width="21.7143" height="26.4643" fill="white"/>
</clipPath>
</defs>
</svg>
