<svg width="27" height="31" viewBox="0 0 27 31" fill="none" xmlns="http://www.w3.org/2000/svg">
<path d="M12.662 13.7795C12.8824 14.6804 13.3233 15.7566 14.254 15.7566C15.1847 15.7566 15.1113 13.2539 15.3072 12.1528C15.4052 11.6523 15.5766 11.427 15.7236 11.2268C15.8705 11.0516 16.1399 11.0516 16.2869 11.2268C16.4584 11.427 16.6053 11.6523 16.7033 12.1528C16.9237 13.2289 16.8502 15.7566 17.7565 15.7566C18.6627 15.7566 19.128 14.7055 19.3485 13.7795C19.7403 12.1278 19.8138 11.6272 20.1322 10.7513C20.6711 9.32483 21.3079 8.524 21.3079 7.32274C21.3569 5.19551 19.8138 3.44368 17.8054 3.56881C17.4136 3.59384 17.0462 3.69394 16.7033 3.8441C16.2624 4.04431 15.7726 4.04431 15.3562 3.8441C15.0133 3.69394 14.6214 3.59384 14.254 3.56881C12.2456 3.44368 10.7026 5.19551 10.7026 7.34777C10.7026 8.524 11.3394 9.32483 11.8783 10.7764C12.1967 11.6272 12.2946 12.1528 12.662 13.7795Z" fill="white"/>
<path d="M22.2141 19.886C21.5773 20.1363 20.5486 20.4116 19.3975 20.6619C19.0056 21.3376 18.2463 21.9132 17.0952 22.1134C16.8258 22.1634 16.5074 22.1884 16.189 22.2135C15.3807 22.2385 14.4255 22.1634 13.3723 22.0633C13.2989 22.0633 13.2254 22.0633 13.1519 22.0383C12.907 22.0133 12.662 21.8131 12.662 21.5628C12.6376 21.2375 12.907 20.9622 13.2254 20.9872C13.2989 20.9872 13.3968 21.0122 13.4703 21.0122C14.8174 21.1373 16.1155 21.2375 16.9237 21.0873C18.4178 20.812 18.8342 19.861 18.7362 19.0852C18.6627 18.4595 18.1974 17.8339 17.4626 17.8839C16.4094 17.959 15.1603 17.8839 13.9846 17.7838C12.6131 17.6837 11.1925 17.6337 10.1883 17.7588C9.06165 17.8839 6.80834 18.7348 4.79995 20.1113C3.82025 20.787 2.74258 21.5878 2.08128 22.0883C1.73839 22.3386 1.6894 22.8141 1.93433 23.1645L4.84894 27.0185C5.09386 27.3438 5.55922 27.4189 5.87762 27.1436L6.95529 26.2927C7.20022 26.0925 7.54311 26.0425 7.83702 26.1176C9.79642 26.7432 11.8783 27.1687 13.2499 27.2437C16.1885 27.469 21.9443 23.8652 23.5608 22.689C25.2018 21.5378 24.0266 19.1853 22.2141 19.886Z" fill="white"/>
</svg>
