<svg width="25" height="25" viewBox="0 0 25 25" fill="none" xmlns="http://www.w3.org/2000/svg">
<g clip-path="url(#clip0_2539_862)">
<path d="M15.5955 7.07668L16.2627 6.43335C16.888 6.91585 17.722 7.23752 18.598 7.23752C20.683 7.23752 22.351 5.62918 22.351 3.61876C22.351 1.60834 20.683 0 18.598 0C16.513 0 14.8449 1.60834 14.8449 3.61876C14.8449 4.46337 15.1366 5.26753 15.6789 5.87043L15.0117 6.51377C14.0109 6.03127 13.3018 7.03671 13.3018 7.03671L15.0947 8.76544C15.0527 8.725 16.0955 8.00171 15.5951 7.07668H15.5955ZM20.2241 4.18168C20.2241 4.42293 20.0153 4.58376 19.8071 4.58376H18.6394C18.4307 4.58376 18.2224 4.42293 18.2224 4.18168C18.2224 3.98041 18.4312 3.77959 18.6394 3.77959H19.8071C20.0158 3.77959 20.2241 3.94043 20.2241 4.18168ZM17.4304 2.65376H18.598C18.8482 2.65376 19.015 2.81459 19.015 3.05584C19.015 3.25711 18.8482 3.45793 18.598 3.45793H17.4304C17.2216 3.45793 17.0134 3.25665 17.0134 3.05584C17.0134 2.81459 17.1802 2.65376 17.4304 2.65376Z" fill="white"/>
<path d="M12.7187 7.59961L0.375306 19.4609C-0.125102 19.9434 -0.125102 20.7071 0.375306 21.1896C1.12592 21.8734 1.91847 21.4308 2.1682 21.1896L14.5116 9.2879L12.7187 7.59961Z" fill="white"/>
<path d="M3.91988 22.8783C3.66967 23.1195 3.16926 23.9237 3.91988 24.607C4.62903 25.2099 5.46304 24.8482 5.71277 24.607L18.0567 12.7053L16.2638 10.9766L3.91988 22.8783Z" fill="white"/>
<path d="M24.5206 4.34226C24.3118 4.34226 24.1036 4.54353 24.1036 4.74434V6.63391H21.9771L18.5576 9.931C17.4734 9.48894 16.8477 10.4539 16.8477 10.4539L18.6405 12.1827C18.6405 12.1827 19.6833 11.4189 19.1829 10.5339L22.3521 7.47806H24.5206C24.7293 7.47806 24.9376 7.27678 24.9376 7.07597V4.78386C24.9376 4.50263 24.7289 4.3418 24.5206 4.3418V4.34226Z" fill="white"/>
</g>
<defs>
<clipPath id="clip0_2539_862">
<rect width="24.9375" height="24.9375" fill="white"/>
</clipPath>
</defs>
</svg>
