<svg width="24" height="24" viewBox="0 0 24 24" fill="none" xmlns="http://www.w3.org/2000/svg">
<path d="M13 22C15.1733 20.496 16.3317 18.9757 16.475 17.439C16.618 15.9023 16.154 14.756 15.083 14" stroke="#3D3D3D" stroke-width="2" stroke-linecap="round"/>
<path d="M13.8271 14.1113C14.4239 14.1113 14.9962 13.8743 15.4181 13.4523C15.8401 13.0304 16.0771 12.4581 16.0771 11.8613C16.0771 11.2646 15.8401 10.6923 15.4181 10.2703C14.9962 9.84838 14.4239 9.61133 13.8271 9.61133C13.2304 9.61133 12.6581 9.84838 12.2362 10.2703C11.8142 10.6923 11.5771 11.2646 11.5771 11.8613C11.5771 12.4581 11.8142 13.0304 12.2362 13.4523C12.6581 13.8743 13.2304 14.1113 13.8271 14.1113Z" stroke="#3D3D3D" stroke-width="2"/>
<path d="M12.144 13.5L9.38897 16.2885L4.79297 11.6925L13.985 2.5L18.581 7.096L15.4875 10.1895" stroke="#3D3D3D" stroke-width="2" stroke-linecap="round" stroke-linejoin="round"/>
<path d="M3.279 14.0679L7.2095 17.9069M3 21.9999H21" stroke="#3D3D3D" stroke-width="2" stroke-linecap="round"/>
</svg>
