<svg width="24" height="24" viewBox="0 0 24 24" fill="none" xmlns="http://www.w3.org/2000/svg">
<path d="M2.28418 14.085H8.78418C9.78418 14.085 10.7842 15.585 11.7842 15.585C12.6485 15.585 14.2599 14.8379 15.0041 16.2494C15.2393 16.6955 14.9251 17.2053 14.4593 17.3984C13.3802 17.8458 12.1783 18.4536 11.7842 18.585L8.78418 17.585M15.2842 16.585L19.8602 14.7546C20.138 14.6434 20.4401 14.6072 20.7363 14.6495C21.783 14.7991 22.0788 16.1702 21.1867 16.7379L13.5428 21.6022C13.0603 21.9092 12.4695 21.995 11.9196 21.8379L2.28418 19.085M11.7842 12.085C9.85918 11.4073 6.28418 8.49406 6.28418 5.28951C6.28418 3.5197 7.63852 2.08496 9.30918 2.08496C10.3323 2.08496 11.2367 2.623 11.7842 3.44655C12.3316 2.623 13.2361 2.08496 14.2592 2.08496C15.9298 2.08496 17.2842 3.5197 17.2842 5.28951C17.2842 8.49406 13.7092 11.4073 11.7842 12.085Z" stroke="#3D3D3D" stroke-width="1.5" stroke-linecap="round" stroke-linejoin="round"/>
</svg>
