<svg width="48" height="48" viewBox="0 0 48 48" fill="none" xmlns="http://www.w3.org/2000/svg">
<path d="M26 44C30.3467 40.992 32.6633 37.9513 32.95 34.878C33.236 31.8047 32.308 29.512 30.166 28" stroke="#FF791C" stroke-width="4" stroke-linecap="round"/>
<path d="M27.6553 28.2231C28.8487 28.2231 29.9933 27.749 30.8373 26.9051C31.6812 26.0612 32.1553 24.9166 32.1553 23.7231C32.1553 22.5297 31.6812 21.3851 30.8373 20.5412C29.9933 19.6973 28.8487 19.2231 27.6553 19.2231C26.4618 19.2231 25.3172 19.6973 24.4733 20.5412C23.6294 21.3851 23.1553 22.5297 23.1553 23.7231C23.1553 24.9166 23.6294 26.0612 24.4733 26.9051C25.3172 27.749 26.4618 28.2231 27.6553 28.2231Z" stroke="#FF791C" stroke-width="4"/>
<path d="M24.2879 27L18.7779 32.577L9.58594 23.385L27.9699 5L37.1619 14.192L30.9749 20.379" stroke="#FF791C" stroke-width="4" stroke-linecap="round" stroke-linejoin="round"/>
<path d="M6.558 28.1362L14.419 35.8142M6 44.0002H42" stroke="#FF791C" stroke-width="4" stroke-linecap="round"/>
</svg>
