<svg width="48" height="48" viewBox="0 0 48 48" fill="none" xmlns="http://www.w3.org/2000/svg">
<path d="M38.9996 25.1439L23.9996 39.9999L8.99962 25.1439C8.01024 24.1811 7.23091 23.0239 6.71072 21.7451C6.19053 20.4664 5.94075 19.0938 5.9771 17.7137C6.01345 16.3337 6.33515 14.9761 6.92194 13.7265C7.50873 12.4769 8.3479 11.3624 9.3866 10.453C10.4253 9.54368 11.641 8.85924 12.9572 8.44283C14.2735 8.02641 15.6616 7.88703 17.0344 8.03347C18.4071 8.1799 19.7346 8.60898 20.9334 9.29368C22.1321 9.97838 23.1761 10.9039 23.9996 12.0119C24.8267 10.9119 25.8719 9.99451 27.0698 9.31707C28.2678 8.63964 29.5926 8.21676 30.9615 8.07491C32.3304 7.93305 33.7138 8.07526 35.0252 8.49265C36.3366 8.91004 37.5477 9.59361 38.5827 10.5006C39.6178 11.4076 40.4545 12.5184 41.0405 13.7636C41.6265 15.0089 41.9491 16.3616 41.9882 17.7373C42.0274 19.1129 41.7821 20.4819 41.2679 21.7584C40.7536 23.0349 39.9814 24.1915 38.9996 25.1559" stroke="#FF791C" stroke-width="4" stroke-linecap="round" stroke-linejoin="round"/>
<path d="M23.9997 12L17.4137 18.586C17.0388 18.9611 16.8281 19.4697 16.8281 20C16.8281 20.5303 17.0388 21.0389 17.4137 21.414L18.4997 22.5C19.8797 23.88 22.1197 23.88 23.4997 22.5L25.4997 20.5C26.0904 19.9086 26.7919 19.4394 27.564 19.1193C28.3361 18.7992 29.1638 18.6344 29.9997 18.6344C30.8356 18.6344 31.6632 18.7992 32.4354 19.1193C33.2075 19.4394 33.909 19.9086 34.4997 20.5L38.9997 25M24.9997 31L28.9997 35M29.9997 26L33.9997 30" stroke="#FF791C" stroke-width="4" stroke-linecap="round" stroke-linejoin="round"/>
</svg>
