<svg width="48" height="48" viewBox="0 0 48 48" fill="none" xmlns="http://www.w3.org/2000/svg">
<path d="M23.9997 16.7C22.857 16.1141 21.5593 15.9012 20.2893 16.0914C19.0192 16.2815 17.8408 16.8651 16.9197 17.76C15.7961 18.885 15.165 20.41 15.165 22C15.165 23.59 15.7961 25.115 16.9197 26.24L22.5797 32C22.7657 32.1875 22.9869 32.3362 23.2306 32.4378C23.4743 32.5393 23.7357 32.5916 23.9997 32.5916C24.2638 32.5916 24.5252 32.5393 24.7689 32.4378C25.0126 32.3362 25.2338 32.1875 25.4197 32L31.0797 26.34C32.2033 25.215 32.8345 23.69 32.8345 22.1C32.8345 20.51 32.2033 18.985 31.0797 17.86C30.1702 16.9488 28.9973 16.3465 27.7268 16.1384C26.4563 15.9302 25.1525 16.1267 23.9997 16.7ZM28.2397 23.42L23.9997 27.66L19.7597 23.42C19.5723 23.2341 19.4235 23.0129 19.3219 22.7692C19.2204 22.5254 19.1681 22.264 19.1681 22C19.1681 21.736 19.2204 21.4746 19.3219 21.2308C19.4235 20.9871 19.5723 20.7659 19.7597 20.58C20.1345 20.2075 20.6414 19.9984 21.1697 19.9984C21.6981 19.9984 22.205 20.2075 22.5797 20.58C22.7657 20.7675 22.9869 20.9162 23.2306 21.0178C23.4743 21.1193 23.7357 21.1716 23.9997 21.1716C24.2638 21.1716 24.5252 21.1193 24.7689 21.0178C25.0126 20.9162 25.2338 20.7675 25.4197 20.58C25.7945 20.2075 26.3014 19.9984 26.8297 19.9984C27.3581 19.9984 27.865 20.2075 28.2397 20.58C28.4272 20.7659 28.576 20.9871 28.6775 21.2308C28.7791 21.4746 28.8313 21.736 28.8313 22C28.8313 22.264 28.7791 22.5254 28.6775 22.7692C28.576 23.0129 28.4272 23.2341 28.2397 23.42ZM23.9997 4C21.3733 4 18.7726 4.51732 16.3461 5.52241C13.9196 6.5275 11.7148 8.00069 9.8576 9.85786C6.10687 13.6086 3.99973 18.6957 3.99973 24C3.98393 28.618 5.5828 33.0962 8.51973 36.66L4.51973 40.66C4.24222 40.9412 4.05422 41.2984 3.97948 41.6864C3.90473 42.0743 3.94657 42.4758 4.09973 42.84C4.26585 43.1999 4.53514 43.5022 4.87343 43.7088C5.21171 43.9153 5.60373 44.0167 5.99973 44H23.9997C29.3041 44 34.3911 41.8929 38.1419 38.1421C41.8926 34.3914 43.9997 29.3043 43.9997 24C43.9997 18.6957 41.8926 13.6086 38.1419 9.85786C34.3911 6.10714 29.3041 4 23.9997 4ZM23.9997 40H10.8197L12.6797 38.14C13.0522 37.7653 13.2613 37.2584 13.2613 36.73C13.2613 36.2016 13.0522 35.6947 12.6797 35.32C10.0609 32.7041 8.43008 29.2611 8.06511 25.5776C7.70015 21.8941 8.62362 18.198 10.6782 15.119C12.7328 12.0401 15.7913 9.76872 19.3328 8.69195C22.8742 7.61517 26.6795 7.79961 30.1002 9.21383C33.5209 10.628 36.3454 13.1845 38.0926 16.4478C39.8398 19.711 40.4015 23.4791 39.682 27.11C38.9625 30.7409 37.0063 34.0101 34.1468 36.3605C31.2873 38.7109 27.7013 39.9971 23.9997 40Z" fill="#FF791C"/>
</svg>
