<svg width="50" height="50" viewBox="0 0 50 50" fill="none" xmlns="http://www.w3.org/2000/svg">
<path d="M31.0007 38.666H9.33398V8.66602H36.0007V15.3327M36.0007 15.3327C38.2108 15.3327 40.3304 16.2107 41.8932 17.7735C43.456 19.3363 44.334 21.4559 44.334 23.666C44.334 25.8762 43.456 27.9958 41.8932 29.5586C40.3304 31.1214 38.2108 31.9993 36.0007 31.9993C33.7905 31.9993 31.6709 31.1214 30.1081 29.5586C28.5453 27.9958 27.6673 25.8762 27.6673 23.666C27.6673 21.4559 28.5453 19.3363 30.1081 17.7735C31.6709 16.2107 33.7905 15.3327 36.0007 15.3327ZM31.0007 30.3327V43.666L36.0007 40.3327L41.0007 43.666V30.3327M14.334 20.3327H24.334M14.334 25.3327H22.6673M14.334 30.3327H17.6673M14.334 15.3327H17.6673" stroke="white" stroke-width="2.5"/>
</svg>
