<svg width="42" height="34" viewBox="0 0 42 34" fill="none" xmlns="http://www.w3.org/2000/svg">
<path d="M34.3665 21.8788C30.5436 21.8392 28.4113 22.2246 24.354 23.8819L23.5665 21.9527C27.8655 20.1975 30.2728 19.7527 34.3874 19.7954L34.3665 21.8788ZM24.354 19.7152C28.4113 18.059 30.5447 17.6725 34.3665 17.7121L34.3874 15.6288C30.2728 15.5861 27.8665 16.0309 23.5665 17.7861L24.354 19.7152ZM34.3665 13.5454C30.5436 13.5059 28.4113 13.8913 24.354 15.5486L23.5665 13.6194C27.8655 11.8642 30.2728 11.4194 34.3874 11.4621L34.3665 13.5454ZM31.7728 8.33398V5.20898H33.8561V8.33398H31.7728ZM28.127 6.25065V9.37565H30.2103V6.25065H28.127ZM24.4811 10.4173V7.29232H26.5645V10.4173H24.4811ZM7.30404 21.8788C11.127 21.8392 13.2592 22.2246 17.3165 23.8819L18.104 21.9527C13.8051 20.1975 11.3978 19.7527 7.2832 19.7954L7.30404 21.8788ZM17.3165 19.7152C13.2592 18.059 11.127 17.6725 7.30404 17.7121L7.2832 15.6288C11.3978 15.5861 13.804 16.0309 18.104 17.7861L17.3165 19.7152ZM7.30404 13.5454C11.127 13.5059 13.2592 13.8913 17.3165 15.5486L18.104 13.6194C13.8051 11.8642 11.3978 11.4194 7.2832 11.4621L7.30404 13.5454ZM9.89779 8.33398V5.20898H7.81445V8.33398H9.89779ZM13.5436 6.25065V9.37565H11.4603V6.25065H13.5436ZM17.1895 10.4173V7.29232H15.1061V10.4173H17.1895Z" fill="white"/>
<path fill-rule="evenodd" clip-rule="evenodd" d="M39.5833 3.10822C40.0063 3.20128 40.4379 3.30093 40.8781 3.40718C41.1034 3.46173 41.3037 3.59059 41.4468 3.77297C41.5899 3.95534 41.6673 4.1806 41.6667 4.41239V31.0155C41.6667 31.6749 41.0594 32.1666 40.4125 32.0436C33.9406 30.8093 29.5792 30.7228 23.6188 31.627C23.3573 32.141 22.9587 32.5727 22.4671 32.8742C21.9755 33.1757 21.41 33.3353 20.8333 33.3353C20.2566 33.3353 19.6912 33.1757 19.1996 32.8742C18.708 32.5727 18.3094 32.141 18.0479 31.627C12.0885 30.7228 7.72501 30.8093 1.25417 32.0436C1.10213 32.0734 0.945398 32.0692 0.795163 32.0314C0.644928 31.9935 0.504903 31.923 0.38509 31.8248C0.265278 31.7266 0.168636 31.6031 0.102068 31.4632C0.0355005 31.3233 0.000650575 31.1704 7.63249e-06 31.0155V4.41343C-0.000884524 4.18146 0.0764597 3.95596 0.219543 3.77337C0.362627 3.59079 0.563093 3.46177 0.788549 3.40718C1.22883 3.30093 1.66042 3.20128 2.08334 3.10822V2.62905C2.08334 1.70718 2.69688 0.864471 3.62917 0.629054C10.0354 -0.981362 14.7 0.724888 20.0427 3.20926C20.3031 3.26274 20.5667 3.31829 20.8333 3.37593C21.1 3.31829 21.3639 3.26274 21.625 3.20926C26.9667 0.724888 31.6313 -0.981363 38.0375 0.630095C38.4813 0.743055 38.8745 1.00119 39.1546 1.36342C39.4347 1.72564 39.5856 2.17116 39.5833 2.62905V3.10822ZM37.5 27.0499V2.6426C31.6063 1.16864 27.4135 2.78322 21.875 5.3926V29.603L21.8781 29.6051L21.8802 29.6061L21.8896 29.6093H21.8927L21.899 29.6072C27.0125 27.2926 31.4729 25.9791 37.4438 27.0686C37.4523 27.0702 37.461 27.07 37.4694 27.0681C37.4779 27.0661 37.4858 27.0624 37.4927 27.0572L37.5 27.0499ZM19.7885 29.6051L19.7917 29.603V5.3926C14.2531 2.78426 10.0604 1.16864 4.16667 2.6426V27.0499L4.17397 27.0572C4.18093 27.0627 4.18899 27.0667 4.19762 27.0688C4.20624 27.071 4.21522 27.0713 4.22397 27.0697C10.1927 25.9791 14.6542 27.2926 19.7677 29.6061L19.776 29.6093L19.7885 29.6051Z" fill="white"/>
</svg>
