<svg width="42" height="42" viewBox="0 0 42 42" fill="none" xmlns="http://www.w3.org/2000/svg">
<g clip-path="url(#clip0_2546_917)">
<path d="M33.4434 18.2783C34.0039 19.2627 34.4209 20.2881 34.6943 21.3545C34.9678 22.4209 35.1113 23.5215 35.125 24.6562V26.7686L22 33.3516L8.875 26.7686C8.875 25.9482 8.88184 25.1826 8.89551 24.4717C8.90918 23.7607 8.9707 23.0703 9.08008 22.4004C9.18945 21.7305 9.35352 21.0605 9.57227 20.3906C9.79102 19.7207 10.1191 19.0166 10.5566 18.2783L6.25 16.125V28.1631C6.64648 28.2998 7.00195 28.4912 7.31641 28.7373C7.63086 28.9834 7.91113 29.2705 8.15723 29.5986C8.40332 29.9268 8.58105 30.2822 8.69043 30.665C8.7998 31.0479 8.86133 31.4512 8.875 31.875V38.4375H1V31.875C1 31.4648 1.06152 31.0684 1.18457 30.6855C1.30762 30.3027 1.48535 29.9404 1.71777 29.5986C1.9502 29.2568 2.22363 28.9697 2.53809 28.7373C2.85254 28.5049 3.21484 28.3135 3.625 28.1631V14.8125L1 13.5L22 3L43 13.5L33.4434 18.2783ZM6.25 31.875C6.25 31.5195 6.12012 31.2119 5.86035 30.9521C5.60059 30.6924 5.29297 30.5625 4.9375 30.5625C4.58203 30.5625 4.27441 30.6924 4.01465 30.9521C3.75488 31.2119 3.625 31.5195 3.625 31.875V35.8125H6.25V31.875ZM6.86523 13.5L22 21.0674L37.1348 13.5L22 5.93262L6.86523 13.5ZM32.5 25.1484C32.5 24.0957 32.3975 23.1182 32.1924 22.2158C31.9873 21.3135 31.625 20.3906 31.1055 19.4473L22 24L12.8945 19.4473C12.4434 20.2402 12.1016 21.0742 11.8691 21.9492C11.6367 22.8242 11.5137 23.7266 11.5 24.6562V25.1484L22 30.3984L32.5 25.1484Z" fill="white"/>
</g>
<defs>
<clipPath id="clip0_2546_917">
<rect width="42" height="42" fill="white"/>
</clipPath>
</defs>
</svg>
