<svg width="16" height="16" viewBox="0 0 16 16" fill="none" xmlns="http://www.w3.org/2000/svg">
<path d="M7.43942 15.4394C7.63468 15.6347 7.95126 15.6347 8.14652 15.4394L8.84973 14.7362C9.04487 14.5411 9.04501 14.2247 8.85005 14.0294L3.62297 8.79297L15.293 8.79297C15.5691 8.79297 15.793 8.56911 15.793 8.29297L15.793 7.29297C15.793 7.01683 15.5691 6.79297 15.293 6.79297L3.62297 6.79297L8.85878 1.56652C9.05434 1.37131 9.05448 1.05448 8.8591 0.859099L8.14652 0.146523C7.95126 -0.0487393 7.63468 -0.0487403 7.43942 0.146523L0.146522 7.43942C-0.0487405 7.63468 -0.0487399 7.95126 0.146522 8.14652L7.43942 15.4394Z" fill="#1D5191"/>
</svg>
