<svg width="36" height="46" viewBox="0 0 36 46" fill="none" xmlns="http://www.w3.org/2000/svg">
<path d="M31.0173 22.8619C31.3836 22.5334 31.7237 22.1917 32.09 21.9026C32.7048 21.4164 33.3851 21.3507 34.0915 21.6923C34.2747 21.7843 34.4578 21.8763 34.6279 21.9946C36.1977 23.0196 36.4332 24.2943 35.2689 25.766C34.7325 26.4362 34.1831 27.1984 33.4767 27.6058C32.3386 28.2628 31.5275 29.3141 30.4286 29.9974C29.5521 30.5362 29.3035 30.6545 28.4271 30.5493C27.9954 31.1801 27.5767 31.7715 27.1581 32.3759C27.1189 32.3497 27.0927 32.3234 27.0535 32.2971C27.0535 32.7176 27.0273 33.1513 27.0665 33.5718C27.1058 33.9791 27.1974 34.3865 27.2758 34.7807C27.2889 34.8859 27.3674 34.991 27.3413 35.0698C27.1189 35.6612 27.5898 35.8977 27.9038 36.2262C28.9765 37.3826 30.0361 38.5391 31.0696 39.7349C31.6583 40.4051 31.6583 41.1278 31.1873 41.6797C30.7556 42.1791 30.2978 42.3105 29.7614 41.9163C29.3035 41.5746 28.9373 41.1278 28.5579 40.6942C27.9954 40.0634 27.459 39.4064 26.8965 38.7756C26.7918 38.6573 26.6479 38.5522 26.4124 38.3551C26.4124 38.6573 26.4124 38.8413 26.4124 39.0121C26.4124 39.7217 26.4255 40.4314 26.4124 41.1541C26.4124 41.3644 26.3732 41.6272 26.2555 41.7849C25.7714 42.4813 25.8499 43.2698 25.8761 44.0451C25.8892 44.5051 25.7714 44.7153 25.2743 44.8336C24.0708 45.1358 22.8672 45.1358 21.6506 44.9913C20.6956 44.873 20.4863 44.6233 20.434 43.664C20.4209 43.4143 20.434 43.1515 20.4209 42.9019C20.4209 42.7967 20.4602 42.6522 20.4209 42.5996C19.8322 41.9951 20.107 41.2198 20.0023 40.5365C20.0023 40.5102 19.9761 40.4708 19.9238 40.3656C19.4136 40.4314 18.8642 40.5628 18.3147 40.5628C17.7784 40.5628 17.2551 40.4576 16.6272 40.3788C16.8496 40.8781 17.0589 41.3775 17.2813 41.8769C17.5298 42.4551 17.8045 43.007 18.04 43.5852C18.1839 43.9268 18.0923 44.1897 17.7391 44.3868C17.4775 44.5313 17.2813 44.781 17.0327 44.965C16.5356 45.3461 16.0646 45.3066 15.7507 44.7679C15.1097 43.6509 14.5471 42.4945 13.9323 41.3644C13.5529 40.6679 13.2128 39.9451 12.7811 39.2749C12.297 38.4996 11.9307 37.7243 12.1531 36.765C11.8261 36.6205 11.5121 36.5022 11.2243 36.3314C10.4132 35.8057 9.54984 35.3589 8.8565 34.715C7.44365 33.4141 7.06427 31.7452 7.80994 29.9843C8.22856 28.9724 8.92191 28.0526 9.48443 27.1064C9.58908 26.9356 9.68066 26.7779 9.77223 26.6202C9.69374 26.5545 9.66758 26.5151 9.65449 26.5151C8.59486 26.5282 8.58178 26.5282 8.54253 25.4507C8.50328 24.2942 8.58178 23.1247 8.41171 21.9946C8.26781 21.0879 8.17624 20.2074 8.18932 19.3007C8.2024 18.5122 8.18932 17.7106 8.18932 16.8959C7.60063 16.8302 7.48289 16.4885 7.48289 16.0549C7.48289 15.5424 7.46981 15.043 7.46981 14.5305C7.48289 14.0706 7.61371 13.7026 8.07158 13.4398C8.25473 13.3347 8.29397 12.9536 8.41171 12.6908C7.24742 11.4424 6.09621 10.1809 4.93192 8.93246C3.55832 7.43439 2.17163 5.97575 0.784947 4.5171C-0.261607 3.40012 -0.248525 3.34755 0.745701 2.20429C1.56986 1.245 2.57717 0.56167 3.74146 0.0885956C4.09467 -0.055955 4.31707 -0.042814 4.60487 0.272569C7.28666 3.24243 9.98154 6.186 12.6764 9.14272C13.0558 9.55009 13.3698 10.0232 13.7361 10.4437C13.9323 10.6802 13.9323 10.8642 13.7099 11.0482C13.3567 11.3504 13.1735 11.7183 13.1997 12.2046C13.2128 12.3885 13.1212 12.5988 13.0296 12.7828C12.8465 13.1507 12.8988 13.3215 13.3436 13.3873C15.332 13.6501 16.9542 14.5962 18.2232 16.1337C20.0939 18.394 20.0023 21.193 17.9877 23.3218C17.5952 23.7423 17.1504 24.1103 16.6926 24.4651C16.2478 24.8067 15.7638 25.0827 15.2666 25.3981C15.7114 25.8712 16.1562 26.3574 16.6141 26.8305C16.6926 26.9093 16.8103 26.9487 16.928 26.9881C17.7522 27.3035 18.5894 27.6321 19.4005 27.9343C19.8453 27.6058 20.3686 27.2378 20.8657 26.8567C20.9442 26.8042 20.9704 26.6728 21.0096 26.5808C21.1797 26.1865 21.2451 25.6872 21.5329 25.4112C22.2786 24.7016 23.1027 24.084 23.9269 23.4532C24.4763 23.0327 25.0912 23.0327 25.6799 23.4138C25.9415 23.5846 26.1116 23.5452 26.3209 23.3218C26.6479 22.9802 26.975 22.6385 27.3413 22.3362C28.5186 21.3507 29.7614 21.4558 30.7818 22.5991C30.8603 22.6911 30.9388 22.7699 31.0173 22.8619ZM0.627964 3.32127C1.29514 4.01774 1.87075 4.60909 2.43327 5.21357C4.61795 7.52638 6.78955 9.85233 8.97423 12.1651C9.09197 12.2966 9.24895 12.4017 9.40594 12.4937C9.60217 12.6119 9.83764 12.6908 10.0339 12.809C10.2301 12.9405 10.3871 13.1376 10.5833 13.2427C11.0935 13.5449 11.7738 13.3084 12.2578 12.7039C12.6372 12.2308 12.6241 11.6921 12.2447 11.2321C12.0485 10.9956 11.8523 10.7722 11.6429 10.5488C8.93499 7.57895 6.22703 4.59595 3.50599 1.62609C3.36209 1.4684 3.19202 1.32385 2.93038 1.07417C2.15855 1.8232 1.42596 2.54596 0.627964 3.32127ZM14.8349 23.9C15.6983 23.1378 16.5225 22.5465 17.1897 21.7975C18.4325 20.4045 18.4325 18.8407 17.3074 17.3427C16.2347 15.9235 14.6518 15.3847 13.0427 14.7802C13.0296 14.9642 13.0035 15.0824 13.0165 15.1876C13.082 15.7263 13.0035 16.1863 12.454 16.4754C12.3625 16.5279 12.284 16.6856 12.2709 16.8039C12.2447 17.2638 12.2578 17.7369 12.2578 18.2494C12.6503 17.9472 13.7361 17.8683 14.05 18.1049C14.1547 18.1837 14.2201 18.3677 14.2201 18.4991C14.2201 19.1824 14.207 19.8526 14.1678 20.5359C14.1416 20.9564 13.9977 21.2981 13.4875 21.3113C12.611 21.3375 12.454 21.2455 12.3363 20.6936C12.2186 21.1798 12.0746 21.7449 11.9177 22.3888C13.2913 22.1391 14.2855 22.4151 14.8349 23.9ZM18.6025 32.757C17.6868 31.8372 16.6664 31.3772 15.476 31.6926C14.6256 31.916 13.9584 31.9029 13.3436 31.167C12.768 30.4836 11.9962 29.958 11.499 29.2353C11.1851 28.7753 10.7926 28.5519 10.2432 28.2365C9.81148 29.209 9.31436 30.1288 9.0004 31.1144C8.6341 32.2577 9.03964 33.217 9.99462 33.9266C10.9888 34.6625 12.2055 34.8596 13.3698 35.2932C13.4613 34.2682 14.0893 33.8609 14.9134 33.6506C15.0966 33.598 15.3451 33.5718 15.4498 33.4404C15.803 32.9936 16.287 32.8884 16.7972 32.8622C17.3728 32.8227 17.9354 32.7965 18.6025 32.757ZM11.1982 14.1626C11.8261 15.4767 11.4206 16.2651 9.99462 16.4885C9.61525 16.5411 9.23587 16.5542 8.8565 16.5805C8.8565 17.9077 8.8565 19.2087 8.8565 20.4965C9.78531 20.4571 10.6749 20.4177 11.5645 20.3782C11.5645 19.2218 11.5775 18.0654 11.5514 16.909C11.5383 16.4885 11.6168 16.16 12.0092 15.9235C12.1401 15.8446 12.297 15.6475 12.297 15.4898C12.3363 14.9116 12.3101 14.3203 12.3101 13.6895C11.9046 13.8735 11.5645 14.018 11.1982 14.1626ZM13.3828 25.766C15.2012 25.0433 16.8757 24.1366 18.1054 22.5991C19.2566 21.1798 19.4921 19.6292 18.7333 17.934C18.0008 16.3045 16.8496 15.0824 15.2143 14.3597C14.5341 14.0574 13.7884 13.9129 13.0558 13.6895C12.8988 14.1888 13.0689 14.3334 13.3959 14.4911C14.5079 15.0036 15.6853 15.4635 16.6926 16.1469C18.7595 17.5529 19.1258 19.8657 17.5821 21.85C16.9411 22.6779 16.0646 23.3481 15.2143 23.9657C14.5341 24.4651 13.7099 24.7936 12.9511 25.201C12.9511 25.2141 12.9642 25.2535 12.9773 25.2798C13.1212 25.4244 13.2389 25.5689 13.3828 25.766ZM26.2947 28.9067C24.3455 28.2628 23.626 26.6859 23.2205 24.8199C22.8411 25.1221 22.5009 25.3718 22.187 25.6478C21.8992 25.8974 21.7422 26.1865 21.8992 26.5939C22.1477 27.1984 22.3309 27.8423 22.6318 28.4205C23.0242 29.1827 23.5998 29.8135 24.4109 30.1683C24.5548 30.234 24.8295 30.234 24.9473 30.142C25.4051 29.7609 25.8238 29.3404 26.2947 28.9067ZM3.41441 1.06103C6.51483 4.4514 9.58908 7.81548 12.6633 11.1796C13.0427 10.9036 13.082 10.6539 12.7811 10.3517C12.611 10.1809 12.4933 9.9706 12.3363 9.79977C9.7199 6.90876 7.10352 4.03088 4.50021 1.12673C4.16008 0.745644 3.8592 0.679939 3.41441 1.06103ZM19.8192 32.8227C19.8846 32.7833 19.9369 32.7439 20.0023 32.7045C19.2043 32.008 19.1127 31.1276 19.2043 30.1945C19.2174 30.1026 19.1127 29.9711 19.0342 29.9054C18.3671 29.2747 17.5821 28.8542 16.6402 28.8936C16.3786 28.9067 16.0646 29.0119 15.8553 29.1827C15.2274 29.6689 14.9134 30.3654 14.6125 31.1538C14.8349 31.1144 14.9788 31.0881 15.1227 31.0487C16.2347 30.7465 17.2551 30.9304 18.1839 31.6138C18.5894 31.916 18.9688 32.2577 19.3613 32.5599C19.5052 32.6519 19.6622 32.7307 19.8192 32.8227ZM20.4863 38.9201C20.5517 39.0647 20.5779 39.2355 20.6826 39.3012C21.2582 39.7086 22.7887 39.3538 22.9981 38.6573C23.1943 38.0003 23.5606 37.974 24.0839 38.0397C24.2539 38.0528 24.424 38.0528 24.5941 38.0528C26.19 38.0528 26.2816 37.9477 26.19 36.3182C26.19 36.2525 26.1639 36.1868 26.1639 36.2C24.9473 36.2657 23.7568 36.3314 22.5794 36.3839C22.6056 38.0528 21.873 38.8544 20.4863 38.9201ZM26.2685 32.7176C26.0723 32.7307 25.8761 32.757 25.6668 32.7702C24.1231 32.8753 22.5664 33.0067 21.0227 33.0987C20.3293 33.1381 20.3555 33.1118 20.3032 33.782C20.2639 34.3077 20.6956 34.3471 20.9704 34.3471C22.3832 34.3734 23.8091 34.4391 25.2089 34.3208C26.4648 34.2157 26.4778 34.0974 26.347 32.8096C26.3339 32.8096 26.3078 32.7965 26.2685 32.7176ZM12.0616 24.7279C11.3682 24.4519 11.3682 23.9 11.3682 23.3218C11.3682 22.8619 11.3159 22.3888 11.2767 21.9814C10.531 21.9814 9.8638 21.9814 9.22279 21.9814C9.22279 23.2955 9.22279 24.5571 9.22279 25.9106C9.58908 25.7923 9.92921 25.7923 10.0993 25.6083C10.6226 25.017 11.2505 24.741 12.0616 24.7279ZM25.6668 38.5259C25.0388 38.5259 24.4894 38.5128 23.9269 38.5391C23.783 38.5522 23.5998 38.6705 23.5344 38.8019C23.1943 39.4983 22.6187 39.8269 21.8861 39.9057C21.4806 39.9451 21.0619 39.9188 20.6171 39.9188C20.6433 40.1948 20.6695 40.4445 20.7087 40.8387C22.3309 40.7599 23.9269 40.681 25.5229 40.589C25.6144 40.589 25.7583 40.3525 25.7583 40.2342C25.7453 39.6823 25.706 39.1435 25.6668 38.5259ZM13.0035 35.648C12.0746 35.3064 11.172 35.0304 10.3217 34.6362C8.8565 33.9529 8.2024 32.6388 8.6341 31.075C8.89574 30.142 9.36669 29.2615 9.7984 28.3942C9.96846 28.0394 10.0862 27.7766 9.75915 27.4218C9.03964 28.3548 8.38555 29.301 8.01925 30.4311C7.70529 31.4035 7.79686 32.3234 8.29397 33.2301C8.97423 34.4654 10.0208 35.2932 11.2505 35.9109C12.1793 36.3577 12.1793 36.3577 13.0035 35.648ZM13.8276 36.0817C14.0369 36.5548 14.3902 36.9621 14.3378 37.3169C14.2462 37.9214 14.4948 38.3682 14.7172 38.8413C15.3844 40.2868 16.0516 41.7323 16.7318 43.1647C16.8496 43.4143 17.0196 43.6246 17.1766 43.8611C17.242 43.8349 17.2943 43.8086 17.3597 43.7823C17.2158 43.4144 17.0589 43.0464 16.915 42.6785C16.4702 41.5615 16.0254 40.4576 15.6068 39.3275C15.4105 38.815 15.3582 38.3157 15.8946 37.9214C16.0123 37.8426 16.0646 37.6717 16.13 37.5403C16.4963 36.7256 16.1039 36.0554 15.2143 36.016C14.7434 36.0028 14.2593 36.0554 13.8276 36.0817ZM13.7361 26.699C13.723 27.8949 13.1212 28.5519 11.8915 28.8542C12.7157 29.6558 13.4483 30.3522 14.1547 31.0356C14.6387 30.2208 15.0573 29.5112 15.5414 28.7096C14.9919 28.092 14.364 27.3955 13.7361 26.699ZM27.9561 23.0064C27.5506 23.3481 27.145 23.6898 26.7526 24.0314C26.6741 24.1103 26.6087 24.268 26.6087 24.3731C26.6741 25.3718 27.5244 26.4099 28.4925 26.6728C28.6233 26.7122 28.8064 26.7516 28.8718 26.699C29.382 26.2654 29.8792 25.7923 30.3763 25.3455C28.7672 25.3061 28.3878 24.1628 27.9561 23.0064ZM20.0415 32.1394C20.5517 31.3509 20.9573 30.4836 21.559 29.8135C22.2131 29.0907 22.2655 28.4862 21.7553 27.7109C21.5983 27.4612 21.4544 27.4087 21.2451 27.4875C20.6302 27.724 20.107 28.0657 19.9761 28.7885C19.8846 29.2878 19.8061 29.7872 19.6752 30.2865C19.4921 30.9699 19.636 31.5743 20.0415 32.1394ZM32.3255 22.6911C31.3443 23.151 31.1481 24.0183 31.1089 24.9776C31.1089 25.0433 31.135 25.109 31.1743 25.1616C31.6714 25.8055 32.2731 26.3048 33.1104 26.4362C33.843 26.5545 34.0654 25.9237 34.4578 25.5426C34.484 25.5164 34.484 25.4901 34.5102 25.4375C33.2804 24.925 32.4694 24.0971 32.3255 22.6911ZM19.2435 29.5506C19.4921 29.1433 19.3874 28.8804 19.0342 28.6833C18.6418 28.4599 18.2624 28.1314 17.8438 28.0394C16.6664 27.7766 15.803 27.1196 15.0573 26.1997C14.5864 25.6215 14.3509 25.6741 13.7622 26.1603C14.4425 26.9487 15.1227 27.7503 15.803 28.5388C15.8684 28.6045 15.9992 28.6439 16.1039 28.6308C17.2682 28.4862 18.3278 28.7622 19.2435 29.5506ZM22.3963 29.1695C21.8861 29.9186 21.3105 30.6939 20.8134 31.5218C20.6302 31.824 20.6302 32.2314 20.5517 32.5862C20.9442 32.5336 21.3236 32.4811 21.716 32.4154C21.7945 32.4022 21.873 32.3497 21.9253 32.284C22.514 31.64 23.0896 30.9961 23.6522 30.3654C23.1812 29.9317 22.8149 29.5769 22.3963 29.1695ZM14.0893 35.3195C14.3771 35.3195 14.6256 35.3064 14.8742 35.3195C15.1227 35.3327 15.3844 35.3458 15.6329 35.3984C16.3524 35.5298 16.7187 35.9109 16.8757 36.6336C17.0196 37.2907 16.9019 37.9083 16.4571 38.3945C16.1039 38.7756 16.2347 39.1041 16.3917 39.4852C17.3467 38.8807 17.6999 37.8951 17.4775 36.6205C17.2682 35.4772 16.4571 34.5311 15.5021 34.3208C14.8742 34.1631 14.1939 34.6362 14.0893 35.3195ZM20.7218 41.1672C20.6956 42.0214 20.8003 42.1791 21.5198 42.2054C22.5271 42.2448 23.5475 42.2448 24.5548 42.2317C25.3136 42.2317 25.6014 41.9163 25.6406 41.1672C24.0184 41.1672 22.3832 41.1672 20.7218 41.1672ZM26.1508 24.5834C25.7714 24.9119 25.4313 25.1747 25.1304 25.4769C25.0388 25.5689 24.9996 25.7792 25.0519 25.8974C25.4313 26.8567 26.1116 27.5269 27.0665 27.9212C27.1843 27.9737 27.3674 27.9474 27.4721 27.8817C27.7599 27.6846 28.0084 27.4481 28.3486 27.159C27.0404 26.7516 26.4909 25.7792 26.1508 24.5834ZM8.21548 16.252C9.03964 16.16 9.81148 16.1337 10.5702 15.9892C11.015 15.9103 11.2243 15.5292 11.1589 15.0562C11.0804 14.4911 10.8188 14.1363 10.3348 14.11C9.65449 14.0706 8.96115 14.0969 8.21548 14.0969C8.21548 14.8196 8.21548 15.4504 8.21548 16.252ZM16.8234 44.2028C15.8553 42.1265 14.9134 40.116 13.9584 38.0791C13.7361 38.25 13.5398 38.4076 13.3436 38.5522C14.3378 40.5628 15.3059 42.547 16.3132 44.597C16.5879 44.3736 16.7449 44.2554 16.8234 44.2028ZM33.2674 26.9487C32.1816 26.7779 31.449 26.2785 30.9388 25.6872C30.4809 26.1471 30.0492 26.5808 29.6044 27.0276C29.9184 27.4875 30.4155 27.8554 31.0304 28.1051C31.3836 28.2497 31.6452 28.1971 31.8676 27.8949C32.1031 27.5664 32.3778 27.3167 32.7964 27.2641C32.9011 27.2378 33.0057 27.1196 33.2674 26.9487ZM22.9065 32.5862C23.8091 32.4942 24.6856 32.4154 25.549 32.3234C25.549 31.6532 25.549 31.0487 25.549 30.4311C25.5229 30.3917 25.4836 30.3522 25.4575 30.326C24.9865 31.0618 24.4502 30.7333 23.8745 30.4705C23.5737 31.1801 22.6972 31.5612 22.9065 32.5862ZM16.1039 33.9397C16.9542 34.4391 17.556 35.1355 17.8307 36.0817C18.1054 37.0147 18.0923 37.9346 17.6475 38.9201C18.7857 37.9608 19.1651 36.7387 18.7857 35.6875C18.4325 34.6756 17.0981 33.8214 16.1039 33.9397ZM27.9299 28.1971C28.3355 28.8542 28.8718 29.2484 29.5521 29.4324C29.6829 29.4718 29.8661 29.4718 29.9707 29.4061C30.3239 29.1827 30.6379 28.9067 30.9126 28.7096C30.2847 28.2234 29.6698 27.7635 29.0288 27.2772C28.7018 27.5401 28.3224 27.8555 27.9299 28.1971ZM12.1924 26.8567C12.1924 26.2128 11.7607 25.5426 11.3682 25.5558C10.858 25.5689 10.3871 26.2785 10.4394 26.9356C10.4917 27.4744 10.9758 28.0526 11.3813 28.0526C11.8261 28.0263 12.1924 27.4744 12.1924 26.8567ZM25.9938 31.7058C26.7787 31.7583 27.1974 31.4167 27.5375 30.5099C27.7599 29.9054 27.6683 29.7346 26.8572 29.1433C25.7322 29.7083 26.0592 30.7465 25.9938 31.7058ZM25.1173 43.5852C23.7568 43.5852 22.4486 43.5852 21.1404 43.5852C21.0619 44.032 21.2451 44.2685 21.6375 44.2685C22.6448 44.2817 23.6522 44.2817 24.6595 44.2554C25.0519 44.2554 25.2874 44.032 25.1173 43.5852ZM27.0796 36.292C26.988 36.3445 26.8965 36.4102 26.7918 36.4628C26.9226 36.7125 27.0142 37.0016 27.1974 37.225C27.6683 37.7769 28.1916 38.2894 28.6756 38.8282C29.3297 39.564 29.9707 40.3262 30.6641 41.141C30.821 40.5365 30.5202 40.1554 30.2062 39.8137C29.4082 38.9201 28.584 38.0397 27.786 37.1461C27.5375 36.8702 27.3151 36.5811 27.0796 36.292ZM17.6214 33.6243C18.4063 34.1631 19.0604 34.7282 19.322 35.6349C19.5706 35.4378 19.793 35.2932 19.9892 35.1093C20.0677 35.0304 20.12 34.8727 20.0939 34.7807C19.9761 34.3997 19.8192 34.0448 19.6622 33.6243C19.0473 33.6243 18.3278 33.6243 17.6214 33.6243ZM12.1401 23.059C11.7214 23.9789 12.7026 24.1234 12.9642 24.7016C13.3698 24.5045 13.7622 24.3205 14.1416 24.1366C13.7753 23.0853 13.2913 22.8356 12.1401 23.059ZM21.075 37.0278C21.0096 36.8176 21.0096 36.6073 20.905 36.5022C20.7087 36.3051 20.434 36.0291 20.2116 36.0554C20.0154 36.0817 19.8061 36.4365 19.7014 36.6862C19.6229 36.8833 19.636 37.1724 19.7014 37.3826C19.7668 37.5929 19.9369 37.9083 20.0939 37.9346C20.3032 37.9608 20.591 37.79 20.7741 37.6323C20.9573 37.4746 20.9965 37.2118 21.075 37.0278ZM25.7714 24.2942C24.9211 23.808 24.4371 23.808 23.953 24.2548C23.6783 24.5176 23.6914 25.1353 24.0184 25.7529C24.5941 25.2667 25.1697 24.7936 25.7714 24.2942ZM20.6433 34.7676C22.5794 35.3458 24.5417 35.1224 26.5694 35.0041C26.4648 34.8727 26.4124 34.8202 26.3732 34.7545C26.3209 34.6756 26.2685 34.5836 26.2162 34.4916C24.3717 34.9384 22.514 34.9647 20.6433 34.7676ZM13.6314 20.6673C13.6576 20.1943 13.7099 19.6949 13.723 19.1824C13.7361 18.4465 13.6968 18.4202 12.9119 18.5385C12.9119 19.0904 12.925 19.6423 12.9119 20.1943C12.8988 20.6936 13.1081 20.8382 13.6314 20.6673ZM21.0358 42.915C21.075 42.9544 21.1012 42.9938 21.1404 43.0464C22.3963 43.0464 23.6652 43.0464 24.9211 43.0333C25.0127 43.0333 25.0912 42.8887 25.1827 42.8099C25.1566 42.7573 25.1435 42.7047 25.1173 42.6653C23.8615 42.6653 22.5925 42.6653 21.3367 42.6785C21.232 42.6785 21.1273 42.8361 21.0358 42.915ZM26.975 37.4221C26.9096 37.4615 26.8311 37.5141 26.7657 37.5535C26.8441 37.6849 26.9226 37.8426 27.0273 37.9608C27.6421 38.6705 28.2701 39.3801 28.898 40.0897C29.1727 40.4051 29.4082 40.7599 29.7091 41.0621C29.8661 41.2198 30.0885 41.3118 30.2847 41.4301C30.3239 41.3775 30.3632 41.3381 30.3893 41.2855C29.2381 40.0108 28.1 38.7099 26.975 37.4221ZM32.8488 22.4677C32.8749 22.5202 32.888 22.5728 32.9142 22.6385C34.0392 22.8619 34.1962 22.9933 35.2297 24.5571C35.2558 24.2154 35.2951 23.8475 35.1642 23.5715C34.811 22.8487 34.1831 22.4151 33.4113 22.2443C33.2412 22.2048 33.0319 22.3888 32.8488 22.4677ZM26.8049 28.4074C25.7453 27.8686 24.9996 27.0539 24.5156 25.9369C24.3717 26.0551 24.2539 26.1471 24.1493 26.2391C24.7118 27.4218 25.4444 28.3154 26.8049 28.4074ZM28.5579 23.1904C28.8457 24.3337 29.6044 24.9513 30.2324 24.6096C29.9576 23.6898 29.3559 23.1641 28.5579 23.1904ZM34.5886 24.8987C34.5102 23.9 33.7122 23.1378 32.9011 23.2298C33.202 24.0577 33.7383 24.5965 34.5886 24.8987ZM26.177 35.6218C24.7903 35.6218 23.5344 35.6218 22.2393 35.6218C22.6318 36.1474 25.1958 36.1343 26.177 35.6218ZM19.152 37.9083C18.6025 38.5653 18.0662 39.2092 17.5036 39.8794C18.2101 39.9714 18.5894 39.5246 18.9296 39.0778C19.1912 38.723 19.5183 38.3551 19.152 37.9083ZM8.8565 20.9696C8.94807 21.0879 9.0004 21.2324 9.05272 21.2324C9.83764 21.2324 10.6356 21.2061 11.4206 21.1667C11.486 21.1667 11.5775 21.0353 11.5775 20.9564C11.5775 20.8907 11.4598 20.7988 11.3944 20.7856C10.5571 20.6805 9.73298 20.7199 8.8565 20.9696ZM13.0165 38.2237C13.723 37.8951 13.9977 37.4615 13.8015 37.0147C13.723 36.8176 13.4613 36.6862 13.2913 36.5285C13.1604 36.6862 12.9381 36.8307 12.925 37.0016C12.8988 37.3826 12.9773 37.7637 13.0165 38.2237ZM20.7349 35.6349C20.9442 35.9897 21.3367 36.3708 21.3759 36.7913C21.4282 37.225 21.1404 37.698 21.0227 38.1054C21.6114 37.9608 21.9907 37.2907 21.8468 36.4891C21.716 35.8714 21.2582 35.5561 20.7349 35.6349ZM28.4401 22.6253C29.5652 22.6779 30.1408 23.2955 30.6771 24.1497C30.6902 23.3218 30.2193 22.9407 29.7091 22.5991C29.3559 22.3757 28.9634 22.3888 28.4401 22.6253ZM12.2055 25.5164C12.611 26.5019 12.611 26.5019 12.4279 27.8423C13.1997 27.4218 13.1212 26.1077 12.2055 25.5164ZM27.4198 28.5519C27.4067 28.6965 27.3543 28.8279 27.3936 28.9199C27.6945 29.4718 28.5448 29.9317 28.9503 29.8266C28.4925 29.4455 28.0084 29.0381 27.4198 28.5519ZM8.96115 13.1507C8.96115 13.4135 8.96115 13.5712 8.96115 13.7815C9.2882 13.7683 9.58908 13.7552 9.88997 13.7421C9.90305 13.6895 9.91613 13.6369 9.92921 13.5844C9.61525 13.4398 9.31436 13.3084 8.96115 13.1507Z" fill="white"/>
<path d="M10.7793 12.2577C10.9886 12.1 11.1848 11.8372 11.4203 11.7977C11.7343 11.7452 11.9436 12.008 11.9567 12.3365C11.9567 12.665 11.7866 12.9804 11.4334 12.941C11.1979 12.9147 11.0017 12.6519 10.7793 12.4942C10.7793 12.4154 10.7793 12.3365 10.7793 12.2577Z" fill="white"/>
<path d="M9.17043 15.6211C8.92187 15.2795 8.69948 15.0955 8.66024 14.8852C8.60791 14.5304 8.88263 14.2807 9.20968 14.3465C9.40591 14.3859 9.68063 14.675 9.68063 14.8458C9.66754 15.0561 9.41899 15.2663 9.17043 15.6211Z" fill="white"/>
</svg>
