<svg width="45" height="31" viewBox="0 0 45 31" fill="none" xmlns="http://www.w3.org/2000/svg">
<path d="M20.4043 30.981C20.1378 30.981 19.8903 30.9048 19.6619 30.7715L2.31805 19.4201C1.68979 19.0202 1.51844 18.1822 1.93728 17.5727C2.33709 16.9442 3.17477 16.7728 3.78399 17.1918L20.5567 28.1813L30.4946 24.4673C30.7611 24.3721 31.0657 24.353 31.3513 24.4483L43.4977 28.067C44.2021 28.2765 44.6019 29.0193 44.3925 29.743C44.1831 30.4477 43.4406 30.8477 42.7171 30.6382L31.0086 27.1337L20.8613 30.9239C20.728 30.962 20.5567 30.981 20.4043 30.981Z" fill="white"/>
<path d="M20.6709 24.8868C20.4043 24.8868 20.1188 24.8107 19.8903 24.6392L10.6948 18.0684C10.0856 17.6303 9.95235 16.7923 10.3902 16.2019C10.8281 15.5924 11.6658 15.4591 12.256 15.8972L20.8803 22.068L29.9996 18.735C30.2661 18.6398 30.5707 18.6207 30.8373 18.716L41.8794 21.9728C42.5838 22.1823 43.0027 22.9251 42.7933 23.6298C42.5838 24.3345 41.8414 24.7535 41.1369 24.544L30.5327 21.4014L21.1659 24.8297C20.9755 24.8678 20.8232 24.8868 20.6709 24.8868Z" fill="white"/>
<path d="M9.64936 15.5371C10.4421 14.4753 10.0263 12.8235 8.72053 11.8479C7.41478 10.8723 5.71358 10.9422 4.9208 12.004C4.12802 13.0659 4.54388 14.7177 5.84963 15.6933C7.15539 16.6689 8.85658 16.599 9.64936 15.5371Z" fill="white"/>
<path d="M27.753 17.6683C27.239 17.6683 26.8011 17.2493 26.8011 16.716V2.79343L19.4904 8.10724L19.5856 11.4212C19.6046 11.8402 19.3381 12.2212 18.9383 12.3545C18.5385 12.4878 18.1006 12.3354 17.8722 11.9926L14.1597 6.46929C13.9122 6.10742 13.9503 5.65031 14.2359 5.32653C14.5214 5.00275 14.9784 4.90752 15.3591 5.09798L18.4243 6.58356L27.2009 0.184134C27.4865 -0.0253708 27.8672 -0.0634626 28.1909 0.107951C28.5145 0.260318 28.7049 0.603145 28.7049 0.945971V16.716C28.7049 17.2302 28.2861 17.6683 27.753 17.6683Z" fill="white"/>
<path d="M19.6045 26.2769L9.01926 19.2489C8.21965 18.7157 7.19159 18.8299 6.75371 19.4965L6.29679 20.1632C5.85892 20.8298 6.14449 21.8202 6.94409 22.3534L17.5293 29.3814C18.3289 29.9147 19.357 29.8004 19.7949 29.1338L20.2518 28.4672C20.7087 27.7815 20.4041 26.8102 19.6045 26.2769Z" fill="white"/>
<path d="M43.8781 26.8486L33.35 23.5155C32.5504 23.2679 31.6937 23.6869 31.4652 24.4488L31.2177 25.2297C30.9702 25.9915 31.4271 26.8295 32.2267 27.0771L42.7549 30.4102C43.5545 30.6578 44.4112 30.2387 44.6397 29.4769L44.8872 28.696C45.1346 27.9342 44.6777 27.0962 43.8781 26.8486Z" fill="white"/>
<path d="M28.3811 24.22L21.5274 26.8483C21.0133 27.0388 20.8039 27.8006 21.0895 28.5243L21.3751 29.2481C21.6606 29.9718 22.3079 30.3908 22.822 30.2004L29.6757 27.572C30.1898 27.3816 30.3992 26.6197 30.1136 25.896L29.828 25.1723C29.5615 24.4485 28.8952 24.0105 28.3811 24.22Z" fill="white"/>
<path d="M6.41114 17.5922L2.26081 14.8305C1.93716 14.621 1.32793 15.0019 0.871018 15.6686L0.414101 16.3352C-0.0237779 17.0018 -0.138007 17.7255 0.185642 17.935L4.35501 20.6967C4.67866 20.9062 5.28788 20.5253 5.7448 19.8587L6.20172 19.1921C6.62056 18.5254 6.73479 17.8017 6.41114 17.5922Z" fill="white"/>
</svg>
