<svg width="41" height="38" viewBox="0 0 41 38" fill="none" xmlns="http://www.w3.org/2000/svg">
<path fill-rule="evenodd" clip-rule="evenodd" d="M6.03822 36.4902H4.8398C3.01911 36.4902 3.01911 33.7029 4.8398 33.7029C5.80776 33.7029 6.59134 33.4939 6.59134 34.3533C6.93704 34.2139 7.2597 34.0049 7.5593 33.7726C5.76166 31.6125 4.90894 27.5941 7.81282 26.2237V21.6711C4.07926 22.0892 1.08319 25.3411 1.08319 29.2665V36.9083H31.2282V29.2665C31.2282 25.4804 28.4857 22.2983 24.8443 21.7176V27.5709C26.1349 27.8264 27.1259 28.9878 27.1259 30.3582C27.1259 31.9144 25.8583 33.1919 24.3142 33.1919C22.7701 33.1919 21.5025 31.9144 21.5025 30.3582C21.5025 28.9878 22.4705 27.8264 23.7841 27.5709V21.6247H22.0556C21.5717 29.8936 10.8319 29.9633 10.3249 21.6247H8.91906V26.2237C11.869 27.6174 10.9472 31.6125 9.14952 33.7726C9.44913 34.0281 9.79483 34.2372 10.1405 34.3765C10.1405 33.5171 10.9241 33.7262 11.8921 33.7262C13.7128 33.7262 13.7128 36.5134 11.8921 36.5134C10.371 36.5134 10.1405 36.6993 10.1405 35.5611C9.49522 35.3753 8.89601 35.0269 8.36594 34.5856C7.83586 35.0269 7.2597 35.3753 6.61439 35.5611C6.59134 35.956 6.61439 36.4902 6.03822 36.4902ZM37.1973 20.5562C35.077 20.5562 35.9067 14.912 34.6391 14.912C34.1091 14.912 33.8555 15.8643 33.7634 16.7469C33.5098 19.3949 32.9567 20.5562 32.0118 20.5562C30.3755 20.5562 29.7532 16.8863 29.5458 15.3068C29.4075 14.3545 29.3845 14.2152 28.8544 12.7054C27.0107 7.50245 29.3614 2.50856 34.6161 5.78362C39.8477 2.50856 42.2215 7.50245 40.3777 12.7054C39.6863 14.6333 39.7785 14.7726 39.525 16.3753C39.2715 17.9315 38.511 20.5562 37.1973 20.5562ZM34.6391 13.7971C37.036 13.7971 36.2985 18.3496 37.2203 19.4181C37.52 19.209 38.1422 18.0244 38.4418 16.1895C38.7184 14.5171 38.6492 14.2848 39.3406 12.3105C40.493 9.08191 40.032 4.29707 35.9297 6.27139C37.7965 7.22372 38.1883 9.54645 37.1512 9.54645C36.8516 9.54645 36.5981 9.29095 36.5981 8.989C36.5981 7.17726 34.6161 7.08435 34.2934 6.87531C29.5919 3.71638 28.4396 8.3154 29.8685 12.3105C30.5829 14.2848 30.5138 14.5171 30.7673 16.1895C31.0669 18.0244 31.6892 19.209 31.9888 19.4181C32.9798 18.3032 32.104 13.89 34.6391 13.7971ZM16.1557 18.6051C17.1928 18.6051 18.1838 18.3729 19.0596 17.9315L20.9494 21.2298C20.9033 23.9939 19.4053 26.7347 16.1557 26.7347C14.7038 26.7347 13.5053 26.1773 12.6526 25.1088C11.846 24.1333 11.4081 22.7396 11.385 21.2298L13.2749 17.9315C14.1276 18.3496 15.1186 18.6051 16.1557 18.6051ZM12.3069 17.3741C10.6015 16.143 9.47218 14.1222 9.47218 11.846V9.05868C8.87296 9.31418 8.2507 9.52323 7.53626 9.73227C7.49016 13.3557 7.53626 16.9792 7.53626 20.5795C8.52726 20.4401 9.51827 20.5098 10.5093 20.5098L12.3069 17.3741ZM9.72569 7.73472C9.74874 7.71149 9.79483 7.71149 9.81787 7.68826C14.0815 5.62103 15.2338 2.43888 15.5104 1.11491C11.4542 1.41687 8.18156 4.55257 7.6054 8.54768C8.38898 8.3154 9.10343 8.03667 9.72569 7.73472ZM10.5554 8.5709V11.846C10.5554 16.3056 15.326 18.8374 18.9904 16.7237C20.6498 15.7714 21.756 13.9132 21.756 11.846V8.5709C18.3451 6.85208 16.8241 4.48288 16.1557 2.76406C15.4874 4.48288 13.9663 6.85208 10.5554 8.5709ZM22.3553 7.64181C18.1608 5.55134 17.0545 2.43888 16.778 1.13814C20.8342 1.4401 24.1068 4.57579 24.683 8.59413C23.9455 8.36186 23.3002 8.10636 22.6779 7.82763C22.6088 7.71149 22.4935 7.64181 22.3553 7.64181ZM22.8623 9.05868V11.846C22.8623 14.1222 21.733 16.143 20.0045 17.3741L21.8021 20.533C22.24 20.533 24.0838 20.4633 24.5216 20.5795C24.6138 20.5795 24.706 20.6027 24.7982 20.6027C24.7982 16.9792 24.8443 13.3557 24.7982 9.7555C24.0838 9.54645 23.4615 9.31418 22.8623 9.05868ZM6.45306 20.8117V9.80196L6.47611 9.26773C6.72962 4.13447 10.9472 0.0232274 16.1096 0C16.1327 0 16.1557 0 16.1788 0C21.3643 0.0232274 25.5818 4.11125 25.8583 9.26773L25.8814 9.77873V20.8117C29.615 21.8105 32.3345 25.2482 32.3345 29.2665V37.4425C32.3345 37.7445 32.0809 38 31.7813 38H0.55312C0.253513 38 0 37.7445 0 37.4425V29.2665C0 25.2249 2.74255 21.8105 6.45306 20.8117ZM24.3142 28.6161C25.2591 28.6161 26.0427 29.4059 26.0427 30.3582C26.0427 31.3105 25.2591 32.1002 24.3142 32.1002C23.3693 32.1002 22.5857 31.3105 22.5857 30.3582C22.5857 29.4059 23.3463 28.6161 24.3142 28.6161ZM8.36594 27.176C10.7397 28.198 9.56436 31.5196 8.36594 32.9829C7.19056 31.5428 6.01518 28.198 8.36594 27.176ZM11.2007 35.3985V34.8178C11.4542 34.8178 12.1456 34.6785 12.1456 35.1198C12.1686 35.5379 11.4772 35.3985 11.2007 35.3985ZM4.8398 34.8178H5.50815V35.3985H4.8398C4.47105 35.3985 4.47105 34.8178 4.8398 34.8178Z" fill="white"/>
</svg>
