<svg width="37" height="36" viewBox="0 0 37 36" fill="none" xmlns="http://www.w3.org/2000/svg">
<path d="M17.3589 6.79005C17.2462 6.96147 17.1899 7.19005 17.1336 7.41862C16.9645 7.9329 16.9082 8.44719 16.9082 8.96147C16.9082 11.8186 19.2181 14.1043 21.9786 14.1043C22.88 14.1043 23.7251 13.8758 24.5138 13.4186C24.7392 13.3043 24.9082 13.19 25.0772 13.0186C25.0772 13.0186 25.0772 13.0186 25.0772 12.9615C25.1336 12.7329 25.1336 12.5043 25.1336 12.2758C26.0913 4.16147 19.7251 5.87576 17.3589 6.79005Z" stroke="white" stroke-width="1.2369" stroke-miterlimit="10"/>
<path d="M12.9646 8.90504C12.9646 8.4479 13.021 7.99076 13.0773 7.47647C11.9506 7.47647 10.8238 7.30504 9.80972 6.96218C7.61253 6.33361 0.344929 2.39076 0.626619 12.7908C0.90831 23.1908 6.26042 33.0765 6.26042 33.0765C6.26042 33.0765 7.44352 21.1336 12.5139 21.1336C17.528 21.1336 18.9928 33.0765 18.9928 33.0765C19.8942 31.2479 22.7111 24.505 24.2886 17.705C23.5562 17.8765 22.8238 17.9908 22.0351 17.9908C17.021 18.0479 12.9646 13.9336 12.9646 8.90504Z" stroke="white" stroke-width="1.2369" stroke-miterlimit="10"/>
<path d="M35.5 21.5334L28.5141 13.8191C29.5282 12.4477 30.1479 10.7334 30.1479 8.90485C30.1479 4.33343 26.4859 0.619141 21.9789 0.619141C17.9789 0.619141 14.5986 3.59057 13.9789 7.47628C13.9225 7.93343 13.8662 8.39057 13.8662 8.90485C13.8662 13.4763 17.5282 17.1906 22.0352 17.1906C22.8803 17.1906 23.7254 17.0763 24.5141 16.7906C25.0211 16.6191 25.4718 16.4477 25.9225 16.162L32.9648 23.9334C33.3028 24.3334 33.7535 24.5049 34.2606 24.5049C34.6549 24.5049 35.1056 24.3334 35.4437 24.0477C36.1197 23.362 36.1197 22.2191 35.5 21.5334ZM26.0916 13.3049C25.9789 13.362 25.9225 13.4191 25.8099 13.4763C25.7535 13.5334 25.6972 13.5906 25.6409 13.6477C25.4155 13.8191 25.1338 13.9906 24.9085 14.162C24.0634 14.6763 23.0493 14.962 21.9225 14.962C18.6549 14.962 15.9507 12.2191 15.9507 8.90485C15.9507 8.27628 16.0634 7.70485 16.2324 7.13343C16.9648 4.67628 19.2747 2.84771 21.9225 2.84771C25.1902 2.84771 27.8944 5.59057 27.8944 8.90485C27.9507 10.6191 27.2747 12.162 26.0916 13.3049Z" stroke="white" stroke-width="1.2369" stroke-miterlimit="10"/>
</svg>
