<svg width="32" height="34" viewBox="0 0 32 34" fill="none" xmlns="http://www.w3.org/2000/svg">
<path d="M21.5425 34C21.4518 34 21.3385 33.9773 21.2478 33.9547C20.7945 33.8413 20.4771 33.456 20.4091 33.0027C19.8878 28.968 17.7345 20.6267 14.5385 20.6267C11.3198 20.6267 9.18914 28.968 8.64514 33.0027C8.57714 33.456 8.25981 33.8413 7.80647 33.9547C7.35314 34.068 6.89981 33.9093 6.60514 33.5467C3.27314 29.1493 2.68381 21.5787 2.61581 17.4533C2.59314 16.5013 2.32114 15.64 1.79981 14.9147C-0.126859 12.2853 -0.0135257 9.22533 0.009141 8.772C0.0544743 3.944 4.02114 0 8.87181 0C10.0731 0 11.2291 0.226667 12.3171 0.702667C13.7451 1.31467 15.3771 1.31467 16.8051 0.702667C17.8705 0.226667 19.0265 0 20.2051 0C25.0558 0 28.9998 3.944 29.0225 8.772C29.0451 9.22533 29.1585 12.2853 27.2318 14.9147C26.7105 15.6173 26.4385 16.5013 26.4158 17.4533C26.3478 21.5787 25.7585 29.1493 22.4265 33.5467C22.2451 33.8413 21.9051 34 21.5425 34ZM14.5385 18.36C18.9811 18.36 21.1798 25.296 22.1091 29.58C23.8545 25.4547 24.1491 19.9467 24.1718 17.4307C24.1945 16.0027 24.6251 14.688 25.4185 13.6C26.9371 11.5147 26.7785 8.93067 26.7785 8.908C26.7785 8.88533 26.7785 8.84 26.7785 8.81733C26.7785 5.21333 23.8318 2.26667 20.2051 2.26667C19.3211 2.26667 18.4598 2.448 17.6438 2.788C16.6465 3.21867 15.6038 3.42267 14.5158 3.42267C13.4278 3.42267 12.3851 3.21867 11.3878 2.788C10.6171 2.448 9.75581 2.26667 8.87181 2.26667C5.24514 2.26667 2.29847 5.21333 2.29847 8.81733C2.29847 8.84 2.29847 8.88533 2.29847 8.908C2.29847 8.93067 2.11714 11.492 3.65847 13.6C4.45181 14.688 4.88247 16.0253 4.90514 17.4307C4.95047 19.9467 5.22247 25.432 6.96781 29.58C7.89714 25.296 10.0958 18.36 14.5385 18.36Z" fill="white"/>
<path d="M31.5384 1.54102C25.645 5.66635 20.681 10.4264 16.7597 15.5944C14.2664 12.829 11.4784 10.1997 8.37305 7.77435C11.1837 8.34102 13.9037 9.06635 16.5104 9.95035C20.9077 6.66368 25.9397 3.80768 31.5384 1.54102Z" fill="white"/>
</svg>
