<svg width="43" height="32" viewBox="0 0 43 32" fill="none" xmlns="http://www.w3.org/2000/svg">
<path fill-rule="evenodd" clip-rule="evenodd" d="M0.00288001 20.7623C-0.0603634 22.5673 0.930707 24.9279 1.72279 26.2294C4.75076 31.2016 14.5095 31.8759 21.1832 31.7766C27.8577 31.8765 37.6165 31.2021 40.6437 26.2294C41.4358 24.9285 42.4261 22.5678 42.3636 20.7623C42.0597 21.6364 41.1581 22.271 39.8601 22.3822C39.132 23.3914 37.4599 23.8097 35.7809 23.3023C35.6544 23.2637 35.5302 23.2206 35.4107 23.1729C35.1284 23.8166 34.5392 24.3552 33.6013 24.6464C32.6264 24.9489 31.4888 24.9007 30.5224 24.6084C30.2448 24.5244 29.9795 24.4199 29.7327 24.2967C29.1627 26.0983 26.7301 26.91 24.1464 26.4394C22.9965 26.23 21.8758 25.7606 21.1825 25.0664C20.4891 25.7606 19.3692 26.23 18.2193 26.4394C15.6363 26.91 13.2038 26.0983 12.633 24.2967C12.3862 24.4199 12.1209 24.5249 11.8433 24.6084C10.8761 24.9007 9.7385 24.9489 8.7644 24.6464C7.82655 24.3552 7.23731 23.8166 6.95502 23.1729C6.83548 23.2212 6.71131 23.2643 6.58482 23.3023C4.90578 23.8097 3.23446 23.3914 2.50562 22.3822C1.20836 22.271 0.306757 21.637 0.00288001 20.7623ZM19.9801 16.515L23.1415 16.5927L23.0991 17.5821L19.9377 17.5043L19.9801 16.515ZM17.9524 13.3926L20.0919 11.6779L21.083 12.3488L18.9435 14.0635L17.9524 13.3926ZM19.6376 14.7134L25.6481 12.9908L26.1332 13.9142L20.1228 15.6369L19.6376 14.7134ZM10.5753 13.9807H12.249V16.8317C12.249 17.6462 10.5753 17.6468 10.5753 16.8317V13.9807ZM28.8318 2.38293C33.4802 3.16678 38.1286 3.34274 42.7778 2.72349V8.54023C38.1232 8.8876 33.4571 8.77011 28.8087 8.13099C28.2472 8.0538 27.7706 7.75979 27.7706 7.35963V2.99764C27.7706 2.59805 28.2765 2.28985 28.8318 2.38293ZM16.9853 2.98515H26.5134V6.42763H17.2113V12.0854H14.4285V13.4715H8.69345V12.0854H5.91074V4.14589C5.91074 -0.631013 15.1512 -1.62261 16.9853 2.98515ZM34.2985 22.3493C34.3386 21.8328 34.3618 19.5959 34.324 19.3212C34.2607 18.8518 34.0232 18.6826 33.4 18.6361C32.3719 18.6253 31.4657 18.5952 30.4253 18.6293C29.7967 18.6503 29.5244 18.7962 29.4697 19.4756C29.4488 19.731 29.4589 21.9214 29.492 22.3499C29.6239 24.0635 34.108 24.8008 34.2985 22.3493ZM8.06487 22.3493C8.02476 21.8328 8.00163 19.5959 8.03942 19.3212C8.10266 18.8518 8.34021 18.6826 8.96339 18.6361C9.99148 18.6253 10.8977 18.5952 11.9381 18.6293C12.5667 18.6503 12.839 18.7962 12.8945 19.4756C12.9153 19.731 12.9053 21.9214 12.8721 22.3499C12.7403 24.0635 8.25537 24.8008 8.06487 22.3493ZM13.8192 23.6576C13.7629 23.0072 13.7313 20.1913 13.7838 19.8451C13.8725 19.2542 14.2056 19.0408 15.0787 18.9823C16.521 18.9693 17.7905 18.9307 19.2481 18.9738C20.1297 18.9999 20.5115 19.1844 20.5886 20.0392C20.6179 20.361 20.604 23.1184 20.557 23.6582C20.3711 25.8156 14.0853 26.7442 13.8192 23.6576ZM1.19679 20.2004C1.1644 19.7832 1.14666 18.7593 1.17597 18.5373C1.22687 18.1582 1.41891 18.0214 1.92178 17.9839C2.21794 17.9811 2.50177 17.976 2.7825 17.972C2.74008 18.0611 2.71155 18.1673 2.69458 18.2921C2.6537 18.5952 2.67915 20.2821 2.72312 20.8526C2.74086 21.0847 2.79484 21.2896 2.87583 21.4718C2.03747 21.4622 1.26543 21.0915 1.19679 20.2004ZM3.43345 21.314C3.40183 20.8968 3.38254 19.0907 3.41262 18.8688C3.46353 18.4897 3.65557 18.3529 4.15843 18.3154C4.98908 18.3069 5.72024 18.2825 6.56014 18.3103C7.06763 18.3268 7.28744 18.4454 7.33217 18.9937C7.34914 19.2003 7.34066 20.9684 7.31443 21.3146C7.20723 22.6984 3.58693 23.2938 3.43345 21.314ZM28.5434 23.6582C28.5997 23.0077 28.6313 20.1919 28.5789 19.8456C28.4902 19.2548 28.157 19.0414 27.2839 18.9829C25.8417 18.9698 24.5722 18.9312 23.1145 18.9744C22.2329 19.0005 21.8512 19.185 21.774 20.0398C21.7447 20.3616 21.7586 23.119 21.8057 23.6588C21.9915 25.8162 28.2773 26.7448 28.5434 23.6582ZM41.1658 20.201C41.1975 19.7838 41.216 18.7598 41.1867 18.5379C41.1358 18.1587 40.9437 18.022 40.4408 17.9845C40.1447 17.9817 39.8609 17.9765 39.5801 17.9726C39.6225 18.0617 39.6511 18.1678 39.668 18.2927C39.7089 18.5958 39.6835 20.2827 39.6395 20.8531C39.6218 21.0853 39.5678 21.2902 39.4868 21.4724C40.3252 21.4627 41.0972 21.0921 41.1658 20.201ZM38.9292 21.3146C38.9608 20.8974 38.9801 19.0913 38.95 18.8694C38.8991 18.4902 38.7071 18.3534 38.2042 18.316C37.3736 18.3075 36.6424 18.2831 35.8017 18.3109C35.2942 18.3273 35.0744 18.446 35.0297 18.9942C35.0127 19.2009 35.0212 20.9689 35.0474 21.3152C35.1546 22.699 38.7757 23.2944 38.9292 21.3146Z" fill="white"/>
</svg>
