<svg width="39" height="39" viewBox="0 0 39 39" fill="none" xmlns="http://www.w3.org/2000/svg">
<g clip-path="url(#clip0_2513_319)">
<path d="M11.4525 39C11.0518 39 10.6511 38.7997 10.4174 38.4991C6.61091 33.4572 5.90971 24.7757 5.84293 20.0342C5.84293 18.9324 5.50902 17.9306 4.908 17.1293C2.70423 14.0908 2.83779 10.5848 2.87118 10.0839C2.90457 4.50771 7.41228 0 12.9885 0C14.3575 0 15.6931 0.267123 16.9285 0.80137C18.5647 1.50257 20.4345 1.50257 22.0707 0.80137C23.3395 0.267123 24.6417 0 26.0107 0C31.5869 0 36.0946 4.50771 36.128 10.0839C36.1614 10.6182 36.295 14.1241 34.0912 17.1293C33.4902 17.9306 33.1897 18.9324 33.1563 20.0342C33.0895 24.7757 32.4217 33.4572 28.5818 38.4991C28.2479 38.9332 27.7136 39.1002 27.2128 38.9666C26.7119 38.833 26.3113 38.399 26.2445 37.8647C25.6101 33.2235 23.1726 23.6404 19.4996 23.6404C15.8267 23.6404 13.3558 33.2235 12.7214 37.8647C12.6546 38.399 12.2873 38.7997 11.753 38.9666C11.6863 39 11.5861 39 11.4525 39ZM19.4996 21.0693C24.6083 21.0693 27.1126 29.0163 28.1811 33.9247C30.1845 29.1832 30.5184 22.8724 30.5518 20.0009C30.5852 18.3647 31.0527 16.8622 31.9876 15.5933C33.7573 13.1892 33.5236 10.2509 33.5236 10.2175C33.5236 10.1841 33.5236 10.1507 33.5236 10.1173C33.5236 5.97688 30.1511 2.60445 26.0107 2.60445C25.009 2.60445 24.0073 2.80479 23.0724 3.20548C21.9371 3.67295 20.7351 3.94007 19.4996 3.94007C18.2642 3.94007 17.0621 3.70634 15.9268 3.20548C14.9919 2.80479 14.0236 2.60445 12.9885 2.60445C8.84807 2.60445 5.47563 5.97688 5.47563 10.1173C5.47563 10.1507 5.47563 10.1841 5.47563 10.2175C5.47563 10.2509 5.27529 13.1892 7.01159 15.5933C7.91313 16.8288 8.41399 18.3647 8.44738 20.0009C8.48077 22.8724 8.81468 29.1832 10.8181 33.9247C11.8866 29.0163 14.3909 21.0693 19.4996 21.0693Z" fill="white"/>
<path d="M33 0L34.3471 4.1459H38.7063L35.1796 6.7082L36.5267 10.8541L33 8.2918L29.4733 10.8541L30.8204 6.7082L27.2937 4.1459H31.6529L33 0Z" fill="white"/>
<path d="M9 4L10.3471 8.1459H14.7063L11.1796 10.7082L12.5267 14.8541L9 12.2918L5.47329 14.8541L6.82037 10.7082L3.29366 8.1459H7.65292L9 4Z" fill="white"/>
<path d="M21 10L22.3471 14.1459H26.7063L23.1796 16.7082L24.5267 20.8541L21 18.2918L17.4733 20.8541L18.8204 16.7082L15.2937 14.1459H19.6529L21 10Z" fill="white"/>
</g>
<defs>
<clipPath id="clip0_2513_319">
<rect width="39" height="39" fill="white"/>
</clipPath>
</defs>
</svg>
